<svg width="30" height="27" viewBox="0 0 30 27" fill="none" xmlns="http://www.w3.org/2000/svg">
<path d="M15.0006 5.90421C18.4749 -1.60359 30.5809 2.39206 27.5041 12.1415C26.5322 14.9929 24.9706 16.911 22.3238 19.1074L21.7798 19.5507L21.206 20.0036L20.6015 20.4683L19.6353 21.192L18.2313 22.2181L15.0002 24.5447L11.7693 22.2182L10.7038 21.4415L9.71317 20.7058L9.09298 20.2345L8.50392 19.776L7.94512 19.3282C5.13463 17.0382 3.50036 15.0885 2.4963 12.1415C-0.581862 2.39214 11.5255 -1.60359 15.0006 5.90421Z" fill="#CC4700"/>
<path d="M24.0929 1.62803C21.0617 0.367613 17.2571 0.947903 15.0005 3.95566C12.7435 0.947894 8.93847 0.367649 5.90705 1.62805C4.15747 2.35548 2.62643 3.70304 1.75591 5.57677C0.881014 7.4599 0.707918 9.79857 1.5427 12.4425L1.54973 12.464C2.6353 15.6502 4.41826 17.7444 7.31345 20.1034L7.31343 20.1035L7.31975 20.1085L7.87855 20.5564L7.8897 20.5652L8.47875 21.0237L8.47871 21.0237L8.48793 21.0307L9.10812 21.502L9.10808 21.5021L9.11694 21.5086L10.1075 22.2443L10.1075 22.2444L10.1148 22.2497L11.1804 23.0263L11.1803 23.0263L11.185 23.0297L14.4158 25.3562L15.5845 25.3562L18.8156 23.0296L18.8156 23.0296L18.8213 23.0255L20.2253 21.9994L20.2254 21.9994L20.2347 21.9924L21.201 21.2687L21.201 21.2688L21.211 21.2611L21.8155 20.7965L21.8155 20.7965L21.8256 20.7886L22.3994 20.3356L22.4116 20.3259L22.9556 19.8825L22.9556 19.8825L22.9624 19.8769C25.6983 17.6066 27.4004 15.5453 28.4506 12.4641L28.4577 12.4424C29.2921 9.79843 29.1188 7.45979 28.2439 5.57671C27.3733 3.70302 25.8424 2.35547 24.0929 1.62803Z" stroke="white" stroke-opacity="0.484269" stroke-width="2" stroke-linejoin="bevel"/>
</svg>
