<svg width="29" height="26" viewBox="0 0 29 26" fill="none" xmlns="http://www.w3.org/2000/svg">
<mask id="path-1-outside-1_223_6164" maskUnits="userSpaceOnUse" x="0" y="0" width="29" height="26" fill="black">
<rect fill="white" width="29" height="26"/>
<path fill-rule="evenodd" clip-rule="evenodd" d="M18 2H21V15.0978L18.7691 17.5622L18 16.643V2ZM20.935 24L21 23.935V24H20.935ZM13 12V15.3787L10 18.3787V12H13ZM13 22.0564L10 19.0564V24H13V22.0564ZM5 7H2V24H5V7ZM24.8744 13.818L26.9957 15.9393L18.4393 24.4957L16.7825 22.8388L16.318 22.3744L12.6612 18.7175L15.1464 16.2322L18.8033 19.8891L24.8744 13.818Z"/>
</mask>
<path fill-rule="evenodd" clip-rule="evenodd" d="M18 2H21V15.0978L18.7691 17.5622L18 16.643V2ZM20.935 24L21 23.935V24H20.935ZM13 12V15.3787L10 18.3787V12H13ZM13 22.0564L10 19.0564V24H13V22.0564ZM5 7H2V24H5V7ZM24.8744 13.818L26.9957 15.9393L18.4393 24.4957L16.7825 22.8388L16.318 22.3744L12.6612 18.7175L15.1464 16.2322L18.8033 19.8891L24.8744 13.818Z" fill="#CC4700"/>
<path d="M21 2H23L21 0V2ZM18 2V0L16 2H18ZM21 15.0978L22.4827 16.4401L23 15.0978H21ZM18.7691 17.5622L17.2351 18.8456L20.2518 18.9044L18.7691 17.5622ZM18 16.643H16L16.4661 17.9263L18 16.643ZM21 23.935H23L19.5858 22.5208L21 23.935ZM20.935 24L19.5208 22.5858L20.935 26V24ZM21 24V26L23 24H21ZM13 15.3787L14.4142 16.7929L15 15.3787H13ZM13 12H15L13 10V12ZM10 18.3787H8L11.4142 19.7929L10 18.3787ZM10 12V10L8 12H10ZM10 19.0564L11.4142 17.6421L8 19.0564H10ZM13 22.0564H15L14.4142 20.6421L13 22.0564ZM10 24H8L10 26V24ZM13 24V26L15 24H13ZM2 7V5L0 7H2ZM5 7H7L5 5V7ZM2 24H0L2 26V24ZM5 24V26L7 24H5ZM26.9957 15.9393L28.4099 17.3536L28.4099 14.5251L26.9957 15.9393ZM24.8744 13.818L26.2886 12.4038H23.4602L24.8744 13.818ZM18.4393 24.4957L17.0251 25.9099H19.8536L18.4393 24.4957ZM16.7825 22.8388L18.1967 21.4246L16.7825 22.8388ZM12.6612 18.7175L11.247 17.3033V20.1317L12.6612 18.7175ZM15.1464 16.2322L16.5607 14.818L13.7322 14.818L15.1464 16.2322ZM18.8033 19.8891L17.3891 21.3033H20.2175L18.8033 19.8891ZM21 0H18V4H21V0ZM23 15.0978V2H19V15.0978H23ZM20.2518 18.9044L22.4827 16.4401L19.5173 13.7556L17.2864 16.22L20.2518 18.9044ZM16.4661 17.9263L17.2351 18.8456L20.303 16.2788L19.5339 15.3596L16.4661 17.9263ZM16 2V16.643H20V2H16ZM19.5858 22.5208L19.5208 22.5858L22.3492 25.4142L22.4142 25.3492L19.5858 22.5208ZM23 24V23.935H19V24H23ZM20.935 26H21V22H20.935V26ZM15 15.3787V12H11V15.3787H15ZM11.4142 19.7929L14.4142 16.7929L11.5858 13.9645L8.58579 16.9645L11.4142 19.7929ZM8 12V18.3787H12V12H8ZM13 10H10V14H13V10ZM8.58579 20.4706L11.5858 23.4706L14.4142 20.6421L11.4142 17.6421L8.58579 20.4706ZM12 24V19.0564H8V24H12ZM13 22H10V26H13V22ZM11 22.0564V24H15V22.0564H11ZM2 9H5V5H2V9ZM4 24V7H0V24H4ZM5 22H2V26H5V22ZM3 7V24H7V7H3ZM28.4099 14.5251L26.2886 12.4038L23.4602 15.2322L25.5815 17.3536L28.4099 14.5251ZM19.8536 25.9099L28.4099 17.3536L25.5815 14.5251L17.0251 23.0815L19.8536 25.9099ZM15.3683 24.253L17.0251 25.9099L19.8536 23.0815L18.1967 21.4246L15.3683 24.253ZM14.9038 23.7886L15.3683 24.253L18.1967 21.4246L17.7322 20.9602L14.9038 23.7886ZM11.247 20.1317L14.9038 23.7886L17.7322 20.9602L14.0754 17.3033L11.247 20.1317ZM13.7322 14.818L11.247 17.3033L14.0754 20.1317L16.5607 17.6464L13.7322 14.818ZM20.2175 18.4749L16.5607 14.818L13.7322 17.6464L17.3891 21.3033L20.2175 18.4749ZM23.4602 12.4038L17.3891 18.4749L20.2175 21.3033L26.2886 15.2322L23.4602 12.4038Z" fill="white" fill-opacity="0.484269" mask="url(#path-1-outside-1_223_6164)"/>
</svg>
