<svg width="24" height="24" viewBox="0 0 24 24" fill="none" xmlns="http://www.w3.org/2000/svg">
<path fill-rule="evenodd" clip-rule="evenodd" d="M4.82509 0.344016C9.5956 -0.114672 14.3653 -0.114672 19.1358 0.344016C21.3248 0.574512 23.4062 2.65589 23.6359 4.84407C24.0954 9.61458 24.0954 14.3851 23.6359 19.1556C23.4062 21.3445 21.3248 23.4259 19.1358 23.6556C14.3653 24.1143 9.5956 24.1143 4.82509 23.6556C2.63614 23.4259 0.554761 21.3445 0.324265 19.1556C0.149874 17.3419 0.0417857 15.5281 0 13.7144H11.8856L6.72022 18.8573H11.8648L18.7143 11.9878L11.8648 5.14291H6.72022L11.8856 10.2751H0.000233321C0.0421872 8.46479 0.150198 6.65443 0.324265 4.84407C0.554761 2.65589 2.63614 0.574512 4.82509 0.344016Z" fill="#EB7A1D"/>
</svg>
