<svg width="26" height="20" viewBox="0 0 26 20" fill="none" xmlns="http://www.w3.org/2000/svg">
<path fill-rule="evenodd" clip-rule="evenodd" d="M3.62403 14.4894C1.57608 14.2058 0 12.4488 0 10.3235C0 8.13306 1.67447 6.3336 3.81309 6.13563C5.30679 2.53351 8.85746 0 13 0C17.1425 0 20.693 2.53355 22.1869 6.13563C24.3257 6.33367 26 8.13306 26 10.3235C26 12.4489 24.4235 14.206 22.376 14.4894C21.2736 18.1115 18.4529 19.8822 13 19.8822C7.54706 19.8822 4.72643 18.1114 3.62403 14.4891V14.4894ZM1.52936 10.3235C1.52936 11.4623 2.24057 12.435 3.24317 12.8216C3.11549 11.9636 3.05876 11.0169 3.05876 9.94117C3.05876 9.21704 3.13638 8.50304 3.28829 7.80836C2.26207 8.18298 1.52939 9.16771 1.52939 10.3235H1.52936ZM22.7117 7.80836C23.7379 8.18298 24.4706 9.16771 24.4706 10.3235H24.4707C24.4707 11.4623 23.7594 12.435 22.7569 12.8216C22.8845 11.9634 22.9413 11.0169 22.9413 9.94117C22.9413 9.21704 22.8636 8.50304 22.7117 7.80836ZM14.5294 4.97046C14.5294 3.99126 13.9307 2.83968 12.684 1.53504C8.18484 1.70131 4.58829 5.40124 4.58829 9.94121C4.58829 12.7429 5.00675 14.6279 6.05325 15.9569C7.2878 17.5247 9.48228 18.353 13.0001 18.353C16.5179 18.353 18.7123 17.5247 19.9469 15.9569C20.9934 14.628 21.4119 12.743 21.4119 9.94121C21.4119 5.92867 18.6025 2.57244 14.8431 1.7319C15.6472 2.84618 16.0588 3.92318 16.0588 4.97057C16.0588 7.10424 14.8807 8.02936 13 8.02936C11.4582 8.02936 10.3236 6.7987 10.3236 5.35288C10.3236 4.42765 10.7414 3.71469 11.5356 3.3524C11.9198 3.17713 12.3734 3.34645 12.5486 3.73081C12.7239 4.11502 12.5546 4.56857 12.1704 4.74396C11.9449 4.84668 11.8529 5.00367 11.8529 5.35292C11.8529 5.98056 12.3319 6.5 13 6.5C14.106 6.5 14.5294 6.1676 14.5294 4.97061L14.5294 4.97046ZM15.4333 14.7338C15.1347 14.4352 14.6504 14.4352 14.3518 14.7338H14.3519C13.6053 15.4805 12.3949 15.4805 11.6483 14.7338C11.3497 14.4352 10.8654 14.4352 10.5668 14.7338C10.2682 15.0326 10.2682 15.5167 10.5668 15.8153C11.9105 17.1591 14.0894 17.1591 15.4333 15.8153C15.7319 15.5167 15.7319 15.0326 15.4333 14.7338ZM16.25 11.8527C15.722 11.8527 15.2941 11.4247 15.2941 10.8968C15.2941 10.3688 15.722 9.94099 16.25 9.94099C16.7779 9.94099 17.2058 10.3689 17.2058 10.8968C17.2058 11.4247 16.7779 11.8527 16.25 11.8527ZM8.79412 10.8968C8.79412 11.4247 9.22197 11.8527 9.74996 11.8527C10.2779 11.8527 10.7058 11.4247 10.7058 10.8968C10.7058 10.3689 10.2779 9.94099 9.74996 9.94099C9.22201 9.94099 8.79412 10.3688 8.79412 10.8968Z" fill="#EB7A1D"/>
</svg>
