<svg width="24" height="21" viewBox="0 0 24 21" fill="none" xmlns="http://www.w3.org/2000/svg">
<path fill-rule="evenodd" clip-rule="evenodd" d="M16.1245 0.0309526C17.6921 0.307257 18.4763 2.30564 18.104 4.41776C17.7315 6.52992 16.3111 8.13937 14.7435 7.86296C13.1758 7.58666 12.3916 5.58828 12.764 3.47615C13.1365 1.36399 14.5569 -0.245457 16.1245 0.0309526ZM11.2357 3.47623C10.8632 1.36411 9.44279 -0.245352 7.87516 0.0310274C6.30752 0.307437 5.52335 2.30564 5.89568 4.41784C6.26818 6.52996 7.68856 8.13942 9.2562 7.86304C10.8238 7.58663 11.608 5.58843 11.2357 3.47623ZM13.9084 20.6093L13.6956 20.5318H13.6957C13.0567 20.2994 12.6644 20.2138 11.9998 20.2138C11.3353 20.2138 10.9429 20.2994 10.3039 20.5318L10.0911 20.6093C9.45656 20.8382 9.01256 20.9367 8.385 20.9367C6.36089 20.9367 4.77016 19.3438 4.77016 16.9603C4.77016 13.4122 8.31832 9.73066 11.9998 9.73066C15.6812 9.73066 19.2294 13.4121 19.2294 16.9603C19.2294 19.2325 17.5873 20.9367 15.6145 20.9367C14.987 20.9367 14.543 20.8382 13.9084 20.6093ZM9.60016 19.2492C9.64433 19.2332 9.80097 19.176 9.80974 19.1728H9.80939C10.5937 18.8876 11.1429 18.7679 11.9995 18.7679C12.856 18.7679 13.4052 18.8876 14.1895 19.1728C14.1983 19.176 14.3549 19.2332 14.3991 19.2492C14.8896 19.4263 15.1807 19.4908 15.6143 19.4908C16.7763 19.4908 17.7833 18.4457 17.7833 16.9604C17.7833 14.1992 14.8702 11.1767 11.9996 11.1767C9.1291 11.1767 6.21595 14.199 6.21595 16.9604C6.21595 18.5457 7.15985 19.4908 8.38498 19.4908C8.81861 19.4908 9.10963 19.4263 9.60016 19.2492ZM8.12642 1.45505C7.53133 1.55991 7.0683 2.73986 7.31985 4.16665C7.57141 5.59359 8.41013 6.54391 9.00524 6.43891C9.60033 6.33404 10.0635 5.15409 9.8118 3.7273C9.56024 2.30036 8.72152 1.35004 8.12642 1.45505ZM14.1882 3.72734C14.4397 2.3004 15.2784 1.35007 15.8735 1.45508C16.4687 1.55994 16.9317 2.73986 16.6801 4.16669C16.4286 5.59363 15.5898 6.54396 14.9947 6.43894C14.3996 6.33408 13.9365 5.15416 14.1882 3.72734ZM23.0498 10.0592C24.2531 8.40277 24.3656 6.32355 23.0873 5.39494C21.8091 4.46625 19.8664 5.21578 18.6631 6.87205C17.4596 8.52845 17.3473 10.6077 18.6254 11.5363C19.9036 12.465 21.8463 11.7154 23.05 10.0592H23.0498ZM22.2375 6.5647C21.7389 6.20244 20.6242 6.63254 19.8327 7.72196H19.8327C19.0412 8.81138 18.9767 10.0043 19.4753 10.3664C19.9737 10.7287 21.0884 10.2986 21.8799 9.20918C22.6714 8.11991 22.7359 6.92682 22.2375 6.5647ZM2.12 9.20918C1.32849 8.11991 1.26402 6.92682 1.76242 6.5647C2.26097 6.20244 3.3757 6.63256 4.16717 7.72196C4.95869 8.81138 5.02316 10.0043 4.52461 10.3664C4.02621 10.7287 2.91148 10.2986 2.11997 9.20918H2.12ZM0.912647 5.39486C2.1908 4.46617 4.13355 5.21571 5.3369 6.87197H5.33712C6.54062 8.5283 6.65293 10.6075 5.37486 11.5362C4.09648 12.4649 2.15373 11.7154 0.950233 10.0591C-0.253113 8.40277 -0.365582 6.32355 0.912647 5.39486Z" fill="#EB7A1D"/>
</svg>
