<svg width="24" height="22" viewBox="0 0 24 22" fill="none" xmlns="http://www.w3.org/2000/svg">
<path fill-rule="evenodd" clip-rule="evenodd" d="M17.8752 17.647H6.1249L4.89073 20.7327C4.78349 21.0006 4.52395 21.1764 4.23531 21.1764H0.705784C0.315947 21.1764 0 20.8604 0 20.4705V8.11773C0 6.36329 1.42204 4.94125 3.17648 4.94125C3.8294 4.94125 4.43634 5.1383 4.9411 5.47614V2.82359C4.9411 1.26417 6.20526 0 7.76469 0H16.2353C17.7947 0 19.0589 1.26417 19.0589 2.82359V5.47614C19.5637 5.13832 20.1706 4.94125 20.8235 4.94125C22.578 4.94125 24 6.36329 24 8.11773V20.4705C24 20.8604 23.684 21.1764 23.2942 21.1764H19.7647C19.4761 21.1764 19.2165 21.0006 19.1093 20.7327L17.8752 17.647ZM1.41198 17.647V19.7647H3.75755L4.60469 17.647H1.41198ZM22.5885 16.2352H1.41198V14.1175H22.5885V16.2352ZM4.94136 8.11773C4.94136 7.14312 4.15136 6.35297 3.17675 6.35297C2.20214 6.35297 1.41198 7.14312 1.41198 8.11773V12.7059H4.94136V8.11773ZM17.6473 2.82359V12.7059H6.35323V2.82359C6.35323 2.0438 6.98531 1.41172 7.76495 1.41172H16.2356C17.0152 1.41172 17.6473 2.0438 17.6473 2.82359ZM22.5886 8.11773C22.5886 7.14312 21.7985 6.35297 20.8239 6.35297C19.8492 6.35297 19.0592 7.14312 19.0592 8.11773V12.7059H22.5886V8.11773ZM22.5886 19.7648H20.2431L19.3959 17.6472H22.5886V19.7648ZM9.8828 5.64688C9.49296 5.64688 9.17686 5.33092 9.17686 4.9411C9.17686 4.55115 9.49298 4.23516 9.8828 4.23516C10.2726 4.23516 10.5887 4.55113 10.5887 4.9411C10.5887 5.33093 10.2726 5.64688 9.8828 5.64688ZM13.4122 4.9411C13.4122 5.33092 13.7283 5.64688 14.1181 5.64688C14.5079 5.64688 14.824 5.33093 14.824 4.9411C14.824 4.55113 14.5079 4.23516 14.1181 4.23516C13.7283 4.23516 13.4122 4.55115 13.4122 4.9411ZM9.8828 9.88219C9.49296 9.88219 9.17686 9.56623 9.17686 9.17641C9.17686 8.78646 9.49298 8.47047 9.8828 8.47047C10.2726 8.47047 10.5887 8.78644 10.5887 9.17641C10.5887 9.56625 10.2726 9.88219 9.8828 9.88219ZM13.4122 9.17641C13.4122 9.56623 13.7283 9.88219 14.1181 9.88219C14.5079 9.88219 14.824 9.56625 14.824 9.17641C14.824 8.78644 14.5079 8.47047 14.1181 8.47047C13.7283 8.47047 13.4122 8.78646 13.4122 9.17641Z" fill="#EB7A1D"/>
</svg>
