<svg width="24" height="22" viewBox="0 0 24 22" fill="none" xmlns="http://www.w3.org/2000/svg">
<path fill-rule="evenodd" clip-rule="evenodd" d="M5.64704 0H14.8235C15.2134 0 15.5295 0.315961 15.5295 0.705939V21.1764C15.5295 21.5664 15.2134 21.8824 14.8235 21.8824H0.705939C0.316098 21.8824 0 21.5664 0 21.1764V5.64704C0 5.4599 0.0743334 5.28025 0.206827 5.14793L5.14793 0.206827C5.28042 0.0744897 5.45992 0.000152395 5.64704 0.000152395V0ZM6.35298 1.41176V5.64716C6.35298 6.037 6.03687 6.3531 5.64704 6.3531H1.41164V20.4707H14.1174V1.41199L6.35298 1.41176ZM4.94106 4.94122H2.40987L4.94106 2.41002V4.94122ZM11.6469 15.5291C12.0368 15.5291 12.3527 15.8452 12.3527 16.2351C12.3527 16.6249 12.0368 16.9408 11.6469 16.9408H3.88223C3.49239 16.9408 3.17645 16.6249 3.17645 16.2351C3.17645 15.8452 3.49241 15.5291 3.88223 15.5291H11.6469ZM12.3527 12.7056C12.3527 12.3158 12.0368 11.9998 11.6469 11.9998H3.88223C3.49241 11.9998 3.17645 12.3158 3.17645 12.7056C3.17645 13.0954 3.49239 13.4115 3.88223 13.4115H11.6469C12.0368 13.4115 12.3527 13.0954 12.3527 12.7056ZM11.6469 8.47037C12.0368 8.47037 12.3527 8.78648 12.3527 9.1763C12.3527 9.56614 12.0368 9.88209 11.6469 9.88209H3.88223C3.49239 9.88209 3.17645 9.56613 3.17645 9.1763C3.17645 8.78646 3.49241 8.47037 3.88223 8.47037H11.6469ZM12.3527 5.64685C12.3527 5.25702 12.0368 4.94106 11.6469 4.94106H9.1763C8.78648 4.94106 8.47037 5.25702 8.47037 5.64685C8.47037 6.03667 8.78646 6.35278 9.1763 6.35278H11.6469C12.0368 6.35278 12.3527 6.03667 12.3527 5.64685ZM17.647 1.76207C17.647 0.982711 18.2807 0.352774 19.0609 0.352774H22.5861C23.3653 0.352774 24 0.985602 24 1.76207V20.1198C24 20.8991 23.3662 21.5291 22.5861 21.5291H19.0609C18.2817 21.5291 17.647 20.8962 17.647 20.1198V1.76207ZM22.5882 1.76207L22.5881 3.88223L21.8823 3.88235C21.4925 3.88235 21.1765 4.19829 21.1765 4.58813C21.1765 4.97796 21.4924 5.29407 21.8823 5.29407H22.5881V7.05872H21.8823C21.4925 7.05872 21.1765 7.37482 21.1765 7.76466C21.1765 8.15448 21.4924 8.47044 21.8823 8.47044H22.5879C22.5879 9.04802 22.5879 9.63966 22.5878 10.2351H21.8823C21.4925 10.2351 21.1765 10.5512 21.1765 10.941C21.1765 11.3309 21.4924 11.647 21.8823 11.647H22.5878L22.5876 13.4116H21.8823C21.4925 13.4116 21.1765 13.7276 21.1765 14.1174C21.1765 14.5072 21.4924 14.8233 21.8823 14.8233H22.5875L22.5873 16.588H21.8823C21.4925 16.588 21.1765 16.9041 21.1765 17.2939C21.1765 17.6838 21.4924 17.9997 21.8823 17.9997H22.587C22.5869 19.2956 22.5866 20.1174 22.5861 20.1174C22.5861 20.1174 19.0588 20.1157 19.0588 20.1199C19.0588 20.1199 19.0592 1.76451 19.0609 1.76451C19.0609 1.76451 22.5882 1.76619 22.5882 1.76207Z" fill="#EB7A1D"/>
</svg>
