<svg width="27" height="21" viewBox="0 0 27 21" fill="none" xmlns="http://www.w3.org/2000/svg">
<path fill-rule="evenodd" clip-rule="evenodd" d="M27 13.116C27 10.0913 24.9981 7.47855 22.1746 6.63925L22.1752 6.63924C22.0627 6.12948 21.7869 5.68064 21.4052 5.35049C21.0975 2.32861 18.5445 0 15.4744 0C12.4061 0 9.85202 2.3268 9.54359 5.35011C9.03758 5.78778 8.71755 6.4348 8.71755 7.15691V9.66606L5.44918 7.4661C5.64883 6.34851 5.37752 5.33231 4.54441 4.85135C3.30049 4.13318 1.64932 5.09629 0.690724 6.7568C-0.268022 8.41743 -0.276477 10.3289 0.967325 11.0471C1.59353 11.4086 2.32302 11.344 3.01529 10.9789L8.71751 17.4085V18.2846C8.71751 19.6029 9.78576 20.6676 11.1039 20.6676H19.8443C20.6316 20.6676 21.3291 20.2875 21.7638 19.7008C24.8026 19.002 27 16.2847 27 13.116ZM11.1036 6.35918H11.9242L11.9241 6.35926C12.1444 7.94997 13.6705 9.14142 15.4738 9.14142C17.2773 9.14142 18.8034 7.94993 19.0236 6.35926H19.844C20.2834 6.35926 20.6407 6.71655 20.6407 7.15408V18.2825C20.6407 18.722 20.285 19.0774 19.844 19.0774H11.1036C10.6623 19.0774 10.3072 18.7233 10.3072 18.2843V17.1123C10.3072 16.9181 10.236 16.7306 10.1072 16.5852L4.18681 9.91619L4.91058 9.01127L9.07113 11.7899C9.59947 12.1421 10.3071 11.7634 10.3071 11.1285V7.1567C10.3071 6.71542 10.6629 6.35918 11.1036 6.35918ZM13.5509 6.35918C13.7708 7.02898 14.5315 7.55156 15.4739 7.55156C16.4163 7.55156 17.177 7.02898 17.3969 6.35918H13.5509ZM22.2303 17.8873V8.34425V8.34386C24.1157 9.12879 25.41 10.9894 25.41 13.1156C25.41 15.2416 24.116 17.1023 22.2303 17.8873ZM11.266 4.76925H19.6813C19.161 2.92715 17.4655 1.58969 15.4737 1.58969C13.4827 1.58969 11.7865 2.92638 11.266 4.76925ZM1.76156 9.6701C1.67258 9.61882 1.59129 9.43181 1.5928 9.09428C1.59488 8.64213 1.75914 8.08441 2.06681 7.55172C2.37433 7.01891 2.77521 6.59781 3.16582 6.36992C3.45737 6.19995 3.65992 6.17672 3.74875 6.22815C3.83773 6.27943 3.91902 6.46644 3.91751 6.80397C3.91543 7.25597 3.75118 7.81384 3.44366 8.34653C3.13598 8.87934 2.7351 9.30044 2.34464 9.52818C2.0531 9.6983 1.8504 9.72137 1.76156 9.6701Z" fill="#EB7A1D"/>
</svg>
