<svg width="24" height="22" viewBox="0 0 24 22" fill="none" xmlns="http://www.w3.org/2000/svg">
<path fill-rule="evenodd" clip-rule="evenodd" d="M11.294 18.2083V15.5294H0.70578C0.315945 15.5294 0 15.2132 0 14.8234V0.705931C0 0.315983 0.315964 0 0.70578 0H23.2942C23.6841 0 24 0.315964 24 0.705931V14.8234C24 15.2133 23.684 15.5294 23.2942 15.5294H12.706V18.2083L17.1788 19.8057C17.5458 19.9369 17.7373 20.3407 17.6061 20.7079C17.4749 21.075 17.0711 21.2663 16.7039 21.1353L12.0001 19.4553L7.29626 21.1353C6.92904 21.2663 6.52518 21.075 6.39403 20.7079C6.26286 20.3407 6.4543 19.9368 6.82138 19.8057L11.294 18.2083ZM1.41179 1.41164V14.1175H22.5882V1.41164H1.41179ZM21.1765 12C21.1765 11.6102 20.8604 11.2942 20.4706 11.2942H18.3529C17.9631 11.2942 17.647 11.6102 17.647 12C17.647 12.39 17.9631 12.7059 18.3529 12.7059H20.4706C20.8604 12.7059 21.1765 12.3899 21.1765 12Z" fill="#EB7A1D"/>
</svg>
