<svg width="24" height="16" viewBox="0 0 24 16" fill="none" xmlns="http://www.w3.org/2000/svg">
<path fill-rule="evenodd" clip-rule="evenodd" d="M11.0328 11.9203C11.6714 11.7709 12.2357 11.4965 12.7059 11.1113V12.0006L12.7057 12.0006C12.7057 12.3073 12.9037 12.5788 13.1955 12.6727L23.0781 15.8492C23.5338 15.9956 24 15.6558 24 15.1772V11.6477C24 11.3412 23.8021 11.0696 23.5101 10.9757L14.1145 7.95567L14.1133 7.9283L23.5101 4.90791C23.8021 4.81403 24 4.54242 24 4.23584V0.70642C24 0.227751 23.5338 -0.112024 23.0781 0.0343431L13.1955 3.21089C12.9037 3.30464 12.7057 3.57624 12.7057 3.88296L12.7059 3.883V5.12303C12.0347 4.56877 11.174 4.2358 10.2356 4.2358C9.65753 4.2358 9.10895 4.36214 8.61597 4.58871H8.11779C5.62389 4.58871 3.40825 3.14187 2.38995 0.907748C2.17004 0.425479 1.51686 0.348576 1.19086 0.766585C0.423848 1.7507 0.000106041 2.96182 0.000106041 4.23566C0.000106041 7.23769 2.34259 9.6927 5.29952 9.87239C4.62565 10.109 3.90182 10.2357 3.16243 10.2357C2.47349 10.2357 1.78763 10.1346 0.862448 9.92422C0.399174 9.81895 -0.0336888 10.1919 0.00207167 10.6657C0.223324 13.5997 2.67437 15.883 5.63288 15.883C7.76572 15.883 9.65602 14.6914 10.6153 12.8975C10.8533 12.4525 11.0328 11.9203 11.0328 11.9203ZM10.2353 5.6474C9.8912 5.6474 9.56352 5.71775 9.26586 5.84486C9.18859 5.90702 9.09794 5.95325 8.99892 5.97854C8.26101 6.40588 7.76458 7.20399 7.76458 8.11802C7.76458 8.50909 7.85512 8.8857 8.02642 9.22629C8.17948 9.53072 8.09325 9.90117 7.8215 10.1066C6.52147 11.0894 4.87519 11.6475 3.16236 11.6475C2.65263 11.6475 2.15668 11.6025 1.60704 11.5119C1.60704 11.5119 1.6922 11.9314 2.05234 12.4995C2.80503 13.6874 4.13204 14.471 5.63285 14.471C7.62943 14.471 9.34309 13.0784 9.76844 11.155C9.83259 10.8645 10.0722 10.6455 10.3672 10.6074C11.1383 10.5079 11.7395 10.1835 12.1501 9.67951L12.1708 9.65367C12.5156 9.21988 12.7059 8.68443 12.7059 8.11802C12.7059 6.75354 11.5998 5.6474 10.2353 5.6474ZM6.35306 8.11802C6.35306 7.30412 6.60355 6.54872 7.03165 5.92468C4.86362 5.61972 2.95018 4.41217 1.7392 2.62343C1.7392 2.62343 1.63353 2.7327 1.50174 3.36298C1.44228 3.64676 1.41174 3.93888 1.41174 4.2358C1.41174 6.57497 3.30801 8.47117 5.64711 8.47117L5.64738 8.47103C5.88978 8.47103 6.12924 8.45074 6.36401 8.41079C6.35675 8.3138 6.35306 8.21618 6.35306 8.11802ZM22.5888 3.72106L22.5882 1.67703L14.1177 4.39475V6.44174L22.5888 3.72106ZM22.5888 12.1625L22.5882 14.2066L14.1177 11.4889V9.44174L22.5888 12.1625ZM10.2353 9.17688C10.8201 9.17688 11.294 8.70277 11.294 8.11802C11.294 7.53327 10.8201 7.05916 10.2353 7.05916C9.65043 7.05916 9.17646 7.53327 9.17646 8.11802C9.17646 8.70277 9.65043 9.17688 10.2353 9.17688Z" fill="#EB7A1D"/>
</svg>
