<svg width="24" height="24" viewBox="0 0 24 24" fill="none" xmlns="http://www.w3.org/2000/svg">
<path fill-rule="evenodd" clip-rule="evenodd" d="M17.8215 5.29423H14.3377L14.3374 5.29401C12.9988 4.61667 11.4852 4.23514 9.88243 4.23514C4.42457 4.23514 0 8.65971 0 14.1176C0 19.5754 4.42457 24 9.88243 24C15.3403 24 19.7649 19.5754 19.7649 14.1176C19.7649 11.166 18.471 8.51674 16.4193 6.70586H17.8216C19.8493 6.70586 20.715 5.0937 19.5894 3.40551L18.9975 2.51739C18.4994 1.77056 18.6918 1.4118 19.5896 1.4118H23.2944C23.6841 1.4118 24.0002 1.09572 24.0002 0.705814C24.0002 0.316071 23.6841 0 23.2944 0H19.5896C17.5648 0 16.6991 1.61503 17.8227 3.30051L18.4147 4.18864C18.9141 4.93764 18.7227 5.29423 17.8215 5.29423ZM9.47224 12.7921C11.9836 15.0674 13.4822 18.2848 13.5444 21.7582L13.5443 21.7582C12.9701 22.0339 12.3599 22.2467 11.7229 22.388C10.1456 20.2683 9.27738 17.6972 9.27738 14.9917C9.27738 14.2455 9.34367 13.5101 9.47224 12.7921ZM14.9183 20.9295L14.9183 20.9295L14.9183 20.9297L14.9183 20.9295ZM14.9183 20.9295C15.3588 20.6034 15.7664 20.2356 16.1355 19.832C16.1573 19.5312 16.1682 19.2285 16.1682 18.9246C16.1682 14.8418 14.1805 11.1015 10.9306 8.79921C10.483 9.57514 10.1202 10.3986 9.84963 11.2568C12.7835 13.6396 14.6294 17.1174 14.9183 20.9295ZM17.5317 17.7613L17.5314 17.7618L17.5317 17.7617L17.5317 17.7613ZM18.3531 14.1178C18.3531 15.4222 18.0584 16.6577 17.5317 17.7613C17.1874 13.6562 15.0368 9.95953 11.7057 7.61786C12.0739 7.12097 12.4804 6.64989 12.9227 6.20893C16.0989 7.43079 18.3531 10.5111 18.3531 14.1178ZM10.1364 22.5832C8.6676 20.3547 7.86587 17.7339 7.86587 14.9919C7.86587 11.5364 9.14173 8.28394 11.3847 5.78023C10.8972 5.69301 10.3953 5.64747 9.88264 5.64747C9.7832 5.64747 9.68426 5.64914 9.58582 5.65249C6.91145 7.99104 5.34481 11.3632 5.34481 14.9919C5.34481 17.6646 6.19158 20.2068 7.73559 22.3141C8.42114 22.4932 9.14067 22.5886 9.88265 22.5886C9.95112 22.5886 10.0467 22.5863 10.1364 22.5833L10.1364 22.5832ZM3.93326 14.992C3.93326 17.2453 4.47463 19.4175 5.4843 21.3585L5.48443 21.3589C3.0429 19.8726 1.41231 17.1856 1.41231 14.1182C1.41231 10.3827 3.82993 7.21221 7.18603 6.08589C5.11269 8.54074 3.93326 11.6709 3.93326 14.992Z" fill="#EB7A1D"/>
</svg>
