<svg width="24" height="18" viewBox="0 0 24 18" fill="none" xmlns="http://www.w3.org/2000/svg">
<path fill-rule="evenodd" clip-rule="evenodd" d="M0.750187 13.1247C0.750187 13.9533 1.42165 14.6247 2.25016 14.6247L2.25034 16.1247C2.25034 16.953 2.9218 17.6247 3.75032 17.6247H6.75031C7.57864 17.6247 8.25028 16.953 8.25028 16.1247V14.6247H15.7499V16.1247C15.7499 16.953 16.4216 17.6247 17.2499 17.6247H20.2499C21.0784 17.6247 21.7499 16.953 21.7499 16.1247V14.6247C22.5784 14.6247 23.2498 13.9533 23.2498 13.1247V10.3094C23.2498 10.1255 23.2272 9.9423 23.1826 9.76389L22.8413 8.3982C22.7785 8.14705 22.6812 7.91155 22.5554 7.6965L23.4318 7.47754C23.8336 7.37705 24.0778 6.96988 23.9775 6.56807C23.877 6.1661 23.4698 5.92188 23.0678 6.02238L21.6575 6.37492H20.7804L19.4134 2.50193C18.8842 1.00268 17.4671 0 15.8773 0H8.12269C6.53288 0 5.11578 1.00264 4.58661 2.50193L3.21965 6.37492H2.34255L0.932191 6.02238C0.530161 5.92188 0.123032 6.16608 0.0225358 6.56807C-0.0778237 6.96992 0.166418 7.37705 0.568229 7.47754L1.4446 7.6965C1.31884 7.91152 1.22155 8.14705 1.15876 8.3982L0.817424 9.76389C0.772777 9.94227 0.750187 10.1255 0.750187 10.3094V13.1247ZM17.9993 3.00078L19.1901 6.37466H4.81051L6.00135 3.00078C6.31886 2.10128 7.16909 1.49972 8.12301 1.49972H15.8776C16.8316 1.49972 17.6818 2.10128 17.9993 3.00078ZM16.9876 13.1243H21.7501V10.309C21.7501 10.2478 21.7426 10.1866 21.7277 10.1272L21.3863 8.76152C21.256 8.24018 20.7875 7.87449 20.2501 7.87449H3.75044C3.21308 7.87449 2.74457 8.24019 2.6142 8.76152L2.27286 10.1272C2.25792 10.1866 2.25045 10.2478 2.25045 10.309V13.1243H7.01297L8.315 10.1948C8.43542 9.92389 8.70401 9.7494 9.00035 9.7494H15.0005C15.2969 9.7494 15.5654 9.92389 15.6859 10.1948L16.9876 13.1243ZM17.2501 14.6243H20.2501V16.1243H17.2501V14.6243ZM8.65409 13.1243H15.3459L14.5126 11.2494H9.48733L8.65409 13.1243ZM3.74995 16.1243V14.6243H6.74994V16.1243H3.74995ZM19.4996 11.2494C18.8783 11.2494 18.3746 10.7457 18.3746 10.1243C18.3746 9.50302 18.8783 8.99949 19.4996 8.99949C20.121 8.99949 20.6245 9.50307 20.6245 10.1243C20.6245 10.7456 20.1209 11.2494 19.4996 11.2494ZM3.37506 10.1243C3.37506 10.7457 3.87859 11.2494 4.49991 11.2494C5.12124 11.2494 5.62495 10.7456 5.62495 10.1243C5.62495 9.50307 5.1212 8.99949 4.49991 8.99949C3.87863 8.99949 3.37506 9.50302 3.37506 10.1243Z" fill="#EB7A1D"/>
</svg>
