<svg width="24" height="21" viewBox="0 0 24 21" fill="none" xmlns="http://www.w3.org/2000/svg">
<path fill-rule="evenodd" clip-rule="evenodd" d="M8.47066 7.06458C8.41212 7.06066 8.35329 7.05877 8.29417 7.05877C7.52723 7.05877 6.83641 7.38486 6.353 7.90603C5.86944 7.38484 5.17877 7.05877 4.41183 7.05877C2.94986 7.05877 1.7647 8.24389 1.7647 9.70575C1.7647 10.152 1.87509 10.5723 2.07002 10.9412H0.705773C0.316073 10.9412 0 11.2571 0 11.6469V14.4705C0 14.8604 0.316073 15.1765 0.705773 15.1765V20.1176C0.705773 20.5075 1.02185 20.8235 1.41169 20.8235H22.2353C22.6252 20.8235 22.9413 20.5075 22.9413 20.1176V10.2353H23.2942C23.6839 10.2353 24 9.91923 24 9.52938V6C24 5.61015 23.6839 5.29408 23.2942 5.29408H21.6165C22.0062 4.74634 22.2353 4.07641 22.2353 3.3529C22.2353 1.5012 20.7341 0 18.8824 0C17.8064 0 16.8489 0.506795 16.2353 1.29464C15.6218 0.506758 14.6642 0 13.5882 0C11.7365 0 10.2353 1.5012 10.2353 3.3529C10.2353 4.07641 10.4643 4.74634 10.8541 5.29408H9.17639C8.78654 5.29408 8.47062 5.61015 8.47062 6L8.47066 7.06458ZM8.47066 8.48285V9.52928C8.47066 9.91913 8.78658 10.2352 9.17643 10.2352H9.5294V10.9411H7.05878V9.70572C7.05878 9.02345 7.61191 8.47047 8.29418 8.47047C8.35374 8.47047 8.41271 8.47468 8.47067 8.48282L8.47066 8.48285ZM10.9413 10.2354V19.4119H21.5293V10.2354H10.9413ZM1.41185 12.3531H9.52935V13.7648H1.41185V12.3531ZM2.11762 19.4119H9.52935V15.1767L2.11762 15.1751V19.4119ZM22.5884 6.70578V8.82343H9.88224V6.70578H22.5884ZM11.6469 3.35273C11.6469 4.42485 12.516 5.2939 13.5881 5.2939H15.5293V3.35273C15.5293 2.28076 14.6602 1.41155 13.5881 1.41155C12.516 1.41155 11.6469 2.28076 11.6469 3.35273ZM4.41157 10.9412C3.7293 10.9412 3.17617 10.3881 3.17617 9.7058C3.17617 9.02353 3.7293 8.47055 4.41157 8.47055C5.09369 8.47055 5.64682 9.02353 5.64682 9.7058V10.9412H4.41157ZM18.8823 1.41167C17.8101 1.41167 16.9411 2.28087 16.9411 3.35284V5.29401H18.8823C19.9542 5.29401 20.8234 4.42496 20.8234 3.35284C20.8234 2.28087 19.9542 1.41167 18.8823 1.41167ZM13.3274 12.1449L13.2034 12.2688C12.3773 13.095 12.3778 14.4353 13.2038 15.2612L15.7361 17.7934C16.0116 18.0691 16.4586 18.0691 16.7343 17.7934L19.2665 15.2612C20.0925 14.4353 20.093 13.095 19.2669 12.2688L19.1429 12.1449C18.3463 11.3483 17.0655 11.3206 16.2352 12.0651C15.4049 11.3206 14.1241 11.3483 13.3275 12.1449H13.3274ZM14.2017 13.2671C13.9271 13.5418 13.9272 13.988 14.202 14.263L16.2351 16.296L18.2681 14.263C18.5431 13.988 18.5432 13.5418 18.2685 13.2671L18.1446 13.1431C17.8714 12.8699 17.4227 12.8696 17.1488 13.1435L16.7342 13.5581C16.4585 13.8337 16.0116 13.8337 15.736 13.5581L15.3215 13.1435C15.0476 12.8696 14.5989 12.8699 14.3256 13.1431L14.2017 13.2671Z" fill="#EB7A1D"/>
</svg>
