<svg width="23" height="24" viewBox="0 0 23 24" fill="none" xmlns="http://www.w3.org/2000/svg">
<path fill-rule="evenodd" clip-rule="evenodd" d="M16.7283 20.8235H4.44964L4.05828 22.5882H17.1187L16.7283 20.8235ZM3.22577 19.8603C2.73146 18.0274 2.4713 16.0166 2.4713 13.9414C2.4713 12.0762 2.68139 10.2625 3.08334 8.58203C3.08334 8.58203 2.82938 8.45413 2.50678 8.26512C2.35394 8.17555 2.2113 8.08683 2.07972 7.9991C1.63155 7.70043 1.23062 7.25998 0.862647 6.71487C0.639304 6.3841 0.441255 6.03369 0.269156 5.68347C0.165364 5.47236 0.0920356 5.30529 0.0511873 5.20333C-0.1343 4.73979 0.207232 4.23535 0.706607 4.23535H4.7302C4.7302 4.23535 5.04677 3.68507 5.33153 3.27106C6.75822 1.1965 8.59342 0 10.5893 0C12.9259 0 14.9858 1.62845 16.4459 4.23531H18.0011C20.6036 4.23531 22.5895 7.12348 22.5895 10.5881V10.5883C22.5895 13.8155 20.8663 16.5429 18.5264 16.9012C18.4954 17.1518 18.4604 17.4005 18.4215 17.6471H19.4128C19.8028 17.6471 20.1188 17.9631 20.1188 18.3529C20.1188 18.7428 19.8028 19.0589 19.4128 19.0589H18.1511C18.0897 19.3294 18.0235 19.5966 17.9524 19.8601C17.9655 19.8936 17.9761 19.9284 17.9842 19.9645L18.6901 23.141C18.7881 23.5818 18.4526 24 18.0009 24H3.17735C2.72568 24 2.39018 23.5818 2.48828 23.141L3.19411 19.9645C3.20211 19.9285 3.21275 19.8936 3.22577 19.8603ZM18.7069 13.9411C18.7069 10.8453 18.1294 7.97143 17.1373 5.64712H18.0011C19.6871 5.64712 21.1778 7.81528 21.1778 10.5882C21.1778 12.991 20.0585 14.9397 18.6627 15.4171C18.6921 14.9298 18.7069 14.4373 18.7069 13.9411ZM4.17314 17.5623C3.98213 16.4008 3.88319 15.1842 3.88319 13.941C3.88319 11.9898 4.12694 10.1029 4.58883 8.38966C4.67723 8.0622 4.52003 7.71817 4.21483 7.57052C3.67444 7.30919 3.20901 7.05491 2.86298 6.8242C2.59144 6.64306 2.30699 6.33066 2.03279 5.92471C1.84897 5.65216 1.85382 5.6468 1.85382 5.6468H5.15471C5.17784 5.6468 5.20081 5.64567 5.22355 5.64345C5.24709 5.64582 5.27098 5.64704 5.29515 5.64704H15.5304C15.5494 5.64704 15.5683 5.64628 15.5869 5.6448C16.6413 7.84714 17.2951 10.7455 17.2951 13.9409C17.2951 15.5149 17.1364 17.0465 16.8332 18.4778C16.7287 18.9703 16.6183 19.4117 16.6183 19.4117H4.57015C4.57015 19.4117 4.30715 18.3778 4.17305 17.5624L4.17314 17.5623ZM10.5892 1.41146C9.06935 1.41146 7.58402 2.41355 6.38377 4.23522H14.7955C13.63 2.46705 12.1553 1.41146 10.5892 1.41146ZM15.8835 12.5291C15.8835 9.50966 15.0666 7.05876 13.5895 7.05876C12.1122 7.05876 11.2953 9.50983 11.2953 12.5291C11.2953 15.5487 12.1122 17.9999 13.5895 17.9999C15.0666 17.9999 15.8835 15.5488 15.8835 12.5291ZM13.6385 16.5955C13.6253 16.5874 13.6087 16.574 13.5894 16.5549C13.6083 16.5362 13.6298 16.5122 13.6533 16.4825C13.7852 16.3151 13.9218 16.0382 14.0428 15.6751C14.313 14.8645 14.4717 13.7385 14.4717 12.5291C14.4717 11.3199 14.313 10.1937 14.0428 9.38328C13.9218 9.02015 13.7852 8.74309 13.6533 8.57585C13.6298 8.54611 13.6083 8.52208 13.5894 8.50343C13.6087 8.48439 13.6253 8.47096 13.6385 8.46284C13.636 8.46435 13.6166 8.47038 13.5895 8.47038C13.5622 8.47038 13.5428 8.46435 13.5403 8.46284C13.5535 8.47096 13.5701 8.48439 13.5894 8.50343C13.5705 8.52208 13.549 8.54611 13.5255 8.57585C13.3938 8.74308 13.257 9.02016 13.136 9.38328C12.8657 10.1937 12.707 11.3199 12.707 12.5291C12.707 13.7385 12.8658 14.8645 13.136 15.6751C13.257 16.0382 13.3938 16.3151 13.5255 16.4825C13.549 16.5122 13.5705 16.5362 13.5894 16.5549C13.5701 16.574 13.5535 16.5874 13.5403 16.5955C13.5428 16.5939 13.5622 16.588 13.5895 16.588C13.6166 16.588 13.636 16.5939 13.6385 16.5955Z" fill="#EB7A1D"/>
</svg>
