<svg width="24" height="19" viewBox="0 0 24 19" fill="none" xmlns="http://www.w3.org/2000/svg">
<path fill-rule="evenodd" clip-rule="evenodd" d="M2.89423 7.34158C2.45243 5.40715 2.98007 3.34995 4.36506 1.86019C4.37548 1.84909 4.55339 1.66888 4.60173 1.62339C6.97997 -0.590626 10.7053 -0.540263 13.0217 1.77611L13.3712 2.12557L13.7207 1.77611C16.0342 -0.537414 19.7535 -0.590481 22.1725 1.65317C22.1891 1.66888 22.3303 1.81009 22.3808 1.86371C24.5909 4.24316 24.5387 7.96277 22.223 10.2785L13.8758 18.6257C13.5972 18.9044 13.1454 18.9044 12.8666 18.6257L9.98156 15.7406L7.0964 18.6257C6.81775 18.9044 6.36594 18.9044 6.08729 18.6257L1.09706 13.6355C-0.363479 12.175 -0.367258 9.80538 1.09516 8.33642C1.60926 7.82475 2.23522 7.49332 2.89445 7.34195L2.89423 7.34158ZM4.35705 7.29758C5.10065 7.42174 5.81405 7.77064 6.38774 8.34433L6.59178 8.54823L6.79569 8.34433C8.25702 6.88299 10.6258 6.88015 12.0948 8.34243C13.5508 9.80526 13.547 12.1746 12.0865 13.6353L10.9906 14.7313L13.371 17.1117L21.2136 9.26918C22.9821 7.5005 23.0241 4.66126 21.3039 2.80444C21.2741 2.77221 21.1803 2.67933 21.1442 2.64616C19.3245 0.975886 16.493 1.02209 14.7298 2.78521L13.8757 3.63931C13.597 3.91809 13.1452 3.91809 12.8664 3.63931L12.0123 2.78521C10.2491 1.02194 7.41723 0.97591 5.5611 2.68258C5.52441 2.7163 5.43897 2.80119 5.41365 2.82854C4.28621 4.03872 3.89977 5.73918 4.35703 7.29746L4.35705 7.29758ZM6.59165 17.1117L2.10609 12.6261L2.10598 12.6261C1.20046 11.7206 1.19935 10.2502 2.10409 9.34544C3.00245 8.44695 4.47231 8.44747 5.37854 9.35369L6.08706 10.0622C6.3657 10.3409 6.81751 10.3409 7.09616 10.0622L7.80482 9.35369C8.71101 8.44748 10.1807 8.44693 11.0855 9.35166C11.9838 10.2502 11.9829 11.7206 11.0772 12.6261L6.59165 17.1117Z" fill="#EB7A1D"/>
</svg>
