<svg width="25" height="20" viewBox="0 0 25 20" fill="none" xmlns="http://www.w3.org/2000/svg">
<path fill-rule="evenodd" clip-rule="evenodd" d="M8.0879 15.0737V2.20616L8.08812 2.20594C8.08812 1.79982 8.41736 1.47058 8.82348 1.47058C9.2296 1.47058 9.55884 1.79983 9.55884 2.20594V2.94116C9.55884 3.34728 9.88794 3.67652 10.2941 3.67652C10.7002 3.67652 11.0294 3.34727 11.0294 2.94116V2.20594C11.0294 0.987577 10.0418 0 8.82348 0C7.60511 0 6.61754 0.987613 6.61754 2.20594V13.6031H0.735361C0.329245 13.6031 0 13.9324 0 14.3384V15.0737C0 17.3071 1.81055 19.1177 4.04395 19.1177C6.27736 19.1177 8.0879 17.3073 8.0879 15.0737ZM12.4998 7.35333H24.2645C24.712 7.35333 25.0558 7.74969 24.9925 8.19262L23.7023 17.2241C23.547 18.3107 22.6163 19.1179 21.5185 19.1179H15.2456C14.148 19.1179 13.2171 18.3107 13.062 17.2241L11.7717 8.19262C11.7085 7.74969 12.0522 7.35333 12.4996 7.35333H12.4998ZM14.5179 17.0162C14.5697 17.3784 14.88 17.6475 15.2458 17.6475H21.5187C21.8846 17.6475 22.1949 17.3784 22.2466 17.0162L23.4168 8.82405H13.3479L14.5179 17.0162ZM1.47015 15.0737C1.47015 16.4951 2.62237 17.6473 4.0437 17.6473C5.46503 17.6473 6.61725 16.4951 6.61725 15.0737H1.47015ZM18.7899 5.75907C19.1278 5.53389 19.2191 5.07727 18.9938 4.73938C18.6683 4.25109 18.6683 3.83759 18.9938 3.3493C19.6487 2.36705 19.6487 1.30997 18.9938 0.327677C18.7685 -0.0102143 18.312 -0.101593 17.9741 0.123715C17.6362 0.349038 17.545 0.805508 17.7702 1.1434C18.0958 1.63169 18.0958 2.04519 17.7702 2.53362C17.1153 3.51588 17.1153 4.57295 17.7702 5.55525C17.9955 5.89314 18.452 5.98438 18.7899 5.75907ZM22.6703 4.73938C22.8956 5.07727 22.8042 5.53389 22.4663 5.75907C22.1284 5.98438 21.6719 5.89314 21.4466 5.55525C20.7918 4.57295 20.7918 3.51588 21.4466 2.53362C21.7722 2.04519 21.7722 1.63169 21.4466 1.1434C21.2215 0.805508 21.3127 0.349038 21.6506 0.123715C21.9885 -0.101593 22.445 -0.0102143 22.6703 0.327677C23.3251 1.30997 23.3251 2.36705 22.6703 3.3493C22.3448 3.83759 22.3448 4.25109 22.6703 4.73938ZM15.1134 5.75907C15.4513 5.53389 15.5427 5.07727 15.3174 4.73938C14.9919 4.25109 14.9919 3.83759 15.3174 3.3493C15.9722 2.36705 15.9722 1.30997 15.3174 0.327677C15.0922 -0.0102143 14.6356 -0.101593 14.2977 0.123715C13.9598 0.349038 13.8686 0.805508 14.0937 1.1434C14.4193 1.63169 14.4193 2.04519 14.0937 2.53362C13.4389 3.51588 13.4389 4.57295 14.0937 5.55525C14.319 5.89314 14.7755 5.98438 15.1134 5.75907Z" fill="#EB7A1D"/>
</svg>
