<svg width="22" height="24" viewBox="0 0 22 24" fill="none" xmlns="http://www.w3.org/2000/svg">
<path fill-rule="evenodd" clip-rule="evenodd" d="M10.8386 0C11.2661 0 11.6129 0.346521 11.6129 0.774257V1.96273C17.2374 2.35975 21.6771 7.04857 21.6771 12.7745C21.6771 13.202 21.3306 13.5486 20.9031 13.5486H20.7038C20.473 13.5486 20.254 13.4455 20.107 13.2673C19.4484 12.47 18.4731 12.0002 17.4191 12.0002C16.3652 12.0002 15.3899 12.47 14.7313 13.2673H14.7316C14.5846 13.4455 14.3656 13.5486 14.1235 13.5486C13.8925 13.5486 13.6737 13.4455 13.5265 13.2673C12.8681 12.47 11.8926 12.0002 10.8387 12.0002C9.78486 12.0002 8.80935 12.47 8.15093 13.2673C8.00376 13.4455 7.78495 13.5486 7.54287 13.5486C7.31184 13.5486 7.09286 13.4455 6.94587 13.2673C6.28729 12.47 5.31195 12.0002 4.25809 12.0002C3.20406 12.0002 2.22872 12.47 1.57013 13.2673C1.42313 13.4455 1.20416 13.5486 0.973303 13.5486H0.774086C0.346539 13.5486 0 13.2021 0 12.7745C0 7.04855 4.43981 2.35972 10.0643 1.96272V0.774257C10.0643 0.346539 10.411 0 10.8386 0ZM10.8385 10.4518C11.5018 10.4518 12.1443 10.581 12.7366 10.8223V10.8225C13.5025 11.1344 14.1348 11.6711 14.1348 11.6711C15.0346 10.8951 16.1911 10.452 17.4191 10.452C18.3423 10.452 19.2251 10.7025 19.9888 11.1565C19.9888 11.1565 19.8377 10.1276 19.3143 8.96507C17.8598 5.73372 14.6119 3.48407 10.8385 3.48407C6.2609 3.48407 2.45673 6.79478 1.68933 11.1521C1.68933 11.1521 2.14653 10.7689 3.28725 10.5456C3.60315 10.4838 3.92792 10.4518 4.25788 10.4518C5.49054 10.4518 6.65137 10.8985 7.5527 11.6801C7.5527 11.6801 8.17528 11.1335 8.94187 10.8216C9.53385 10.5809 10.1757 10.4518 10.8385 10.4518ZM9.29008 24C10.5728 24 11.6126 22.9602 11.6126 21.6774V14.3226C11.6126 13.8949 11.2659 13.5484 10.8384 13.5484C10.4108 13.5484 10.0641 13.8949 10.0641 14.3226V21.6774C10.0641 22.1051 9.71759 22.4516 9.29004 22.4516C8.86247 22.4516 8.51578 22.1051 8.51578 21.6774C8.51578 21.2498 8.16924 20.9033 7.7417 20.9033C7.31413 20.9033 6.96744 21.2498 6.96744 21.6774C6.96744 22.9602 8.00741 24 9.29008 24Z" fill="#EB7A1D"/>
</svg>
