<svg width="23" height="23" viewBox="0 0 23 23" fill="none" xmlns="http://www.w3.org/2000/svg">
<path fill-rule="evenodd" clip-rule="evenodd" d="M11.5 0C17.8513 0 23 5.14871 23 11.5C23 17.8513 17.8513 23 11.5 23C5.14871 23 0 17.8513 0 11.5C0 5.14871 5.14871 0 11.5 0ZM18.5276 18.9233C20.3967 17.1545 21.5411 14.7467 21.7025 12.1387H15.3529C15.5143 14.7465 16.6587 17.1543 18.5276 18.9233ZM21.7026 10.861H15.353C15.5144 8.25293 16.6588 5.84516 18.5277 4.07638C20.3968 5.84533 21.5412 8.2531 21.7026 10.861ZM1.29745 12.1387C1.45884 14.7465 2.60323 17.1543 4.47231 18.9233C6.34122 17.1545 7.4856 14.7467 7.64701 12.1387H1.29745ZM7.64709 10.861H1.29753C1.45894 8.25293 2.60331 5.84516 4.47239 4.07638C6.34131 5.84533 7.48569 8.2531 7.64709 10.861ZM14.0731 12.1387H8.92688C8.7666 15.0517 7.51554 17.7494 5.45921 19.7471C7.15148 20.9889 9.24004 21.7223 11.5 21.7223C13.76 21.7223 15.8486 20.9889 17.5408 19.7471C15.4845 17.7497 14.2334 15.0519 14.0731 12.1387ZM17.5408 3.25249C15.4845 5.2502 14.2334 7.94794 14.0731 10.861H8.92688C8.76657 7.94777 7.5155 5.24991 5.45921 3.25249C7.15136 2.01069 9.24004 1.27736 11.5 1.27736C13.76 1.27736 15.8485 2.01073 17.5408 3.25249Z" fill="#EB7A1D"/>
</svg>
