<svg width="24" height="29" viewBox="0 0 24 29" fill="none" xmlns="http://www.w3.org/2000/svg">
<path fill-rule="evenodd" clip-rule="evenodd" d="M22.3448 6.20682H19.8619V5.79301C19.8619 5.33608 19.4916 4.96552 19.0345 4.96552C18.5773 4.96552 18.207 5.33609 18.207 5.79301V8.27586C18.207 8.7328 18.5773 9.10336 19.0345 9.10336C19.4916 9.10336 19.8619 8.73279 19.8619 8.27586V7.86192H22.3448V27.3101C22.3448 27.767 22.7154 28.1376 23.1723 28.1376C23.6294 28.1376 24 27.767 24 27.3101V0.8275C24 0.370563 23.6294 0 23.1723 0C22.7154 0 22.3448 0.370573 22.3448 0.8275V6.20682ZM5.793 10.7582H0.827701C0.370579 10.7582 0 10.3877 0 9.93075V7.03417C0 6.7641 0.131699 6.51111 0.353093 6.35626L4.49094 3.45968C4.6301 3.36233 4.79575 3.31012 4.96553 3.31012H14.8966C15.3536 3.31012 15.7241 3.68068 15.7241 4.13762V9.93097C15.7241 10.3879 15.3536 10.7585 14.8966 10.7585H10.7586V26.4824C10.7586 26.9395 10.3883 27.3101 9.93113 27.3101H6.62078C6.16366 27.3101 5.79308 26.9396 5.79308 26.4824L5.793 10.7582ZM7.44815 15.7237V25.6548H9.1033V15.7237H7.44815ZM7.44815 14.0686V10.7582H9.1033V14.0686H7.44815ZM5.22633 4.9654L1.65515 7.46513V9.10325H14.0689V4.9654H5.22633Z" fill="#EB7A1D"/>
</svg>
