<svg width="23" height="24" viewBox="0 0 23 24" fill="none" xmlns="http://www.w3.org/2000/svg">
<path fill-rule="evenodd" clip-rule="evenodd" d="M22.3643 7.9546C22.3839 7.97285 22.4025 7.99227 22.4199 8.01286C22.5403 8.15298 22.5935 8.32391 22.5881 8.49097V21.882C22.5881 22.1971 22.3792 22.4741 22.076 22.5607L17.1527 23.9674C17.1208 23.9773 17.0882 23.985 17.0547 23.9905C17.0078 23.9982 16.9611 24.0012 16.9153 23.9996H0.70598C0.316082 23.9996 0 23.6835 0 23.2937V9.88215C0 9.68946 0.0788479 9.50514 0.217965 9.37207L8.30761 1.63428C8.37708 1.55995 8.4643 1.49935 8.56759 1.45967L13.5707 0.0271395C13.8118 -0.041667 14.0714 0.0224523 14.2525 0.195721L22.3643 7.9546ZM1.41163 10.1837V22.5877H16.2349V10.1837L8.82328 3.0943L1.41163 10.1837ZM13.5692 1.49549L20.5048 8.12972L17.1361 9.09215L10.2006 2.45792L13.5692 1.49549ZM17.6466 22.3582L21.1762 21.3497V9.40638L17.6466 10.4148V22.3582ZM11.5688 16.5704C11.293 16.2946 10.8461 16.2946 10.5705 16.5704H10.5706C9.60572 17.5351 8.04145 17.5351 7.07665 16.5704C6.80091 16.2946 6.35412 16.2946 6.07839 16.5704C5.80267 16.8461 5.80267 17.2929 6.07839 17.5686C7.59449 19.0848 10.0525 19.0848 11.5688 17.5686C11.8443 17.2929 11.8443 16.8461 11.5688 16.5704ZM6.35298 14.1175C5.7682 14.1175 5.29411 13.6435 5.29411 13.0588C5.29411 12.4741 5.7682 11.9999 6.35298 11.9999C6.93776 11.9999 7.41167 12.474 7.41167 13.0588C7.41167 13.6436 6.93771 14.1175 6.35298 14.1175ZM10.2351 13.0588C10.2351 13.6435 10.7092 14.1175 11.2939 14.1175C11.8787 14.1175 12.3528 13.6436 12.3528 13.0588C12.3528 12.474 11.8787 11.9999 11.2939 11.9999C10.7092 11.9999 10.2351 12.4741 10.2351 13.0588Z" fill="#EB7A1D"/>
</svg>
