<svg width="18" height="17" viewBox="0 0 18 17" fill="none" xmlns="http://www.w3.org/2000/svg">
<g clip-path="url(#clip0_110_7048)">
<path fill-rule="evenodd" clip-rule="evenodd" d="M9.33641 0.271126L10.8171 3.1452L4.07528 10.9008L4.15871 10.4349L0.158764 6.69992C-0.14879 6.41274 0.0143027 5.89726 0.431073 5.83925L5.97643 5.06736L8.44746 0.271126C8.63362 -0.0902126 9.15025 -0.0902126 9.33641 0.271126ZM14.1614 5.39503L5.37085 15.5075L8.89193 13.7342L13.8502 16.2312C14.2182 16.4166 14.6399 16.1021 14.5672 15.6965L13.6252 10.4349L17.6251 6.69992C17.9327 6.41274 17.7696 5.89726 17.3528 5.83925L14.1614 5.39503ZM15.8792 1.89472L14.3698 0.5826L1.90466 14.9221L3.41408 16.2342L15.8792 1.89472Z" fill="#2FA827"/>
</g>
<defs>
<clipPath id="clip0_110_7048">
<rect width="18" height="17" fill="white"/>
</clipPath>
</defs>
</svg>
