<svg width="26" height="23" viewBox="0 0 26 23" fill="none" xmlns="http://www.w3.org/2000/svg">
<path fill-rule="evenodd" clip-rule="evenodd" d="M25.5041 10.1415C28.5809 0.392062 16.4749 -3.60359 13.0006 3.90421C9.52547 -3.60359 -2.58186 0.392143 0.496301 10.1415C1.50036 13.0885 3.13463 15.0382 5.94512 17.3282L6.50392 17.776L7.09298 18.2345L7.71317 18.7058L8.70376 19.4415L9.76935 20.2182L13.0002 22.5447L16.2313 20.2181L17.6353 19.192L18.6015 18.4683L19.206 18.0036L19.7798 17.5507L20.3238 17.1074C22.9706 14.911 24.5322 12.9929 25.5041 10.1415ZM2.86272 9.33521C0.871905 3.02767 8.39267 -0.0992986 10.7318 4.95434L13.0008 9.85643L15.2694 4.95414L15.3521 4.78312C17.7795 -0.0268131 25.1045 3.10077 23.12 9.38906C22.5374 11.0961 21.6809 12.4168 20.2316 13.8382L20.0073 14.0571L19.5136 14.5252L19.1276 14.8712L18.6991 15.2338L18.083 15.7261L17.1526 16.4343L15.9092 17.3521L13 19.461L12.5718 19.1523L9.78857 17.1303L8.57867 16.2322L7.91365 15.7234L7.37272 15.2927L7.00446 14.9852L6.62696 14.6535L6.27751 14.33L5.76963 13.8392C4.31958 12.4175 3.46289 11.0967 2.86272 9.33521Z" fill="white"/>
</svg>
