<svg width="18" height="18" viewBox="0 0 18 18" fill="none" xmlns="http://www.w3.org/2000/svg">
<path fill-rule="evenodd" clip-rule="evenodd" d="M8.1668 0.235356C8.41006 0.0839239 8.69539 0.00270742 8.98543 0.000132833C9.27546 -0.00361202 9.57043 0.0717531 9.83485 0.235356L17.3743 4.90051C17.7636 5.14041 18 5.56475 18 6.02069V17.0212C18 17.5611 17.5605 18 17.018 18L14 17.9247V8.96237C13.7485 8.54869 13.4058 8.18123 13 7.96655H5C4.59558 8.18123 4.25149 8.54869 4 8.96237V17.9247L0.983391 18C0.440693 18 0 17.5611 0 17.0212V6.02069C0 5.56475 0.237621 5.14041 0.626841 4.90051L8.1668 0.235356ZM6.19555 10.0106C6.31518 9.89216 6.47336 9.83154 6.63977 9.8278C6.85412 9.82148 7.08187 9.91088 7.25932 10.0876L9 11.821L10.7407 10.0876C11.0563 9.77303 11.5313 9.73886 11.8056 10.0108L12.3883 10.5922C12.6623 10.8637 12.6283 11.3367 12.3124 11.6513L10.5717 13.3847L12.3124 15.1181C12.6283 15.4327 12.6623 15.9057 12.3883 16.1791L11.8056 16.7593C11.5313 17.0322 11.0566 16.9985 10.7407 16.6835L9 14.9501L7.25909 16.6832C6.94343 16.998 6.46843 17.032 6.19555 16.7591L5.61149 16.1788C5.33861 15.9055 5.37292 15.4324 5.68858 15.1179L7.42925 13.3845L5.68858 11.6511C5.37292 11.3367 5.33861 10.8635 5.61149 10.592L6.19555 10.0106Z" fill="#FF4268"/>
</svg>
