<svg width="24" height="24" viewBox="0 0 24 24" fill="none" xmlns="http://www.w3.org/2000/svg">
<path d="M12 0C18.6274 0 24 5.37258 24 12C24 18.6274 18.6274 24 12 24C5.37258 24 0 18.6274 0 12C0 5.37258 5.37258 0 12 0Z" fill="#E9D3C3"/>
<path d="M10.9036 14.288C10.9036 13.712 11.0316 13.2373 11.2876 12.864C11.5542 12.48 11.9382 12.064 12.4396 11.616C12.8236 11.2747 13.1062 10.9813 13.2876 10.736C13.4796 10.48 13.5756 10.192 13.5756 9.872C13.5756 9.424 13.3942 9.06133 13.0316 8.784C12.6689 8.50667 12.1836 8.368 11.5756 8.368C10.4236 8.368 9.55423 8.77867 8.96756 9.6L7.41556 8.592C7.87423 7.96267 8.46623 7.48267 9.19156 7.152C9.9169 6.81067 10.7702 6.64 11.7516 6.64C12.9462 6.64 13.8956 6.90133 14.5996 7.424C15.3142 7.936 15.6716 8.64533 15.6716 9.552C15.6716 9.98933 15.5969 10.3733 15.4476 10.704C15.3089 11.0347 15.1382 11.3173 14.9356 11.552C14.7329 11.776 14.4662 12.0373 14.1356 12.336C13.7302 12.6987 13.4262 13.0187 13.2236 13.296C13.0316 13.5733 12.9356 13.904 12.9356 14.288H10.9036ZM11.9276 18.112C11.5542 18.112 11.2449 17.9947 10.9996 17.76C10.7649 17.5147 10.6476 17.216 10.6476 16.864C10.6476 16.512 10.7649 16.2187 10.9996 15.984C11.2449 15.7493 11.5542 15.632 11.9276 15.632C12.2902 15.632 12.5889 15.7493 12.8236 15.984C13.0689 16.2187 13.1916 16.512 13.1916 16.864C13.1916 17.216 13.0689 17.5147 12.8236 17.76C12.5889 17.9947 12.2902 18.112 11.9276 18.112Z" fill="white"/>
</svg>
