<svg width="30" height="30" viewBox="0 0 30 30" fill="none" xmlns="http://www.w3.org/2000/svg">
<mask id="path-1-outside-1_212_6429" maskUnits="userSpaceOnUse" x="0" y="0" width="30" height="30" fill="black">
<rect fill="white" width="30" height="30"/>
<path fill-rule="evenodd" clip-rule="evenodd" d="M18.6397 19.6801C19.6799 18.3801 21.1099 17.6 22.7998 17.6H22.8001C25.6602 17.6 28.0001 19.9399 28.0001 22.8C28.0001 25.6601 25.6602 28 22.8001 28C19.94 28 17.6001 25.6601 17.6001 22.8C17.6001 22.67 17.6326 22.54 17.6651 22.41C17.6976 22.28 17.7301 22.15 17.7301 22.02L11.3601 19.42C10.32 20.72 8.88991 21.5 7.2 21.5C4.33991 21.5 2 19.1601 2 16.3C2 13.4399 4.33991 11.1 7.2 11.1C8.63 11.1 9.93 11.75 10.8399 12.6601L17.8599 8.63005C17.8376 8.54102 17.8154 8.45581 17.7938 8.37309L17.7937 8.3729L17.7937 8.37281C17.6891 7.97254 17.5998 7.63083 17.5998 7.2C17.5998 4.33991 19.9397 2 22.7998 2C25.6599 2 27.9998 4.33991 27.9998 7.2C27.9998 10.0601 25.6599 12.4 22.7998 12.4C21.3698 12.4 20.0698 11.75 19.0297 10.8399L12.1397 14.87C12.162 14.9591 12.1843 15.0444 12.2059 15.1272L12.2059 15.1272C12.3105 15.5275 12.3998 15.8692 12.3998 16.3C12.3998 16.5601 12.3998 16.82 12.2697 17.0801L18.6397 19.6801ZM25.3998 7.2C25.3998 5.76995 24.2299 4.6 22.7998 4.6C21.3698 4.6 20.1998 5.76995 20.1998 7.2C20.1998 8.63005 21.3698 9.8 22.7998 9.8C24.2299 9.8 25.3998 8.63005 25.3998 7.2ZM7.19983 18.9C5.76978 18.9 4.59982 17.7301 4.59982 16.3C4.59982 14.87 5.76978 13.7 7.19983 13.7C8.62987 13.7 9.79983 14.87 9.79983 16.3C9.79983 17.7301 8.62987 18.9 7.19983 18.9ZM20.1998 22.8C20.1998 24.2301 21.3698 25.4 22.7998 25.4C24.2299 25.4 25.3998 24.2301 25.3998 22.8C25.3998 21.37 24.2299 20.2 22.7998 20.2C21.3698 20.2 20.1998 21.37 20.1998 22.8Z"/>
</mask>
<path fill-rule="evenodd" clip-rule="evenodd" d="M18.6397 19.6801C19.6799 18.3801 21.1099 17.6 22.7998 17.6H22.8001C25.6602 17.6 28.0001 19.9399 28.0001 22.8C28.0001 25.6601 25.6602 28 22.8001 28C19.94 28 17.6001 25.6601 17.6001 22.8C17.6001 22.67 17.6326 22.54 17.6651 22.41C17.6976 22.28 17.7301 22.15 17.7301 22.02L11.3601 19.42C10.32 20.72 8.88991 21.5 7.2 21.5C4.33991 21.5 2 19.1601 2 16.3C2 13.4399 4.33991 11.1 7.2 11.1C8.63 11.1 9.93 11.75 10.8399 12.6601L17.8599 8.63005C17.8376 8.54102 17.8154 8.45581 17.7938 8.37309L17.7937 8.3729L17.7937 8.37281C17.6891 7.97254 17.5998 7.63083 17.5998 7.2C17.5998 4.33991 19.9397 2 22.7998 2C25.6599 2 27.9998 4.33991 27.9998 7.2C27.9998 10.0601 25.6599 12.4 22.7998 12.4C21.3698 12.4 20.0698 11.75 19.0297 10.8399L12.1397 14.87C12.162 14.9591 12.1843 15.0444 12.2059 15.1272L12.2059 15.1272C12.3105 15.5275 12.3998 15.8692 12.3998 16.3C12.3998 16.5601 12.3998 16.82 12.2697 17.0801L18.6397 19.6801ZM25.3998 7.2C25.3998 5.76995 24.2299 4.6 22.7998 4.6C21.3698 4.6 20.1998 5.76995 20.1998 7.2C20.1998 8.63005 21.3698 9.8 22.7998 9.8C24.2299 9.8 25.3998 8.63005 25.3998 7.2ZM7.19983 18.9C5.76978 18.9 4.59982 17.7301 4.59982 16.3C4.59982 14.87 5.76978 13.7 7.19983 13.7C8.62987 13.7 9.79983 14.87 9.79983 16.3C9.79983 17.7301 8.62987 18.9 7.19983 18.9ZM20.1998 22.8C20.1998 24.2301 21.3698 25.4 22.7998 25.4C24.2299 25.4 25.3998 24.2301 25.3998 22.8C25.3998 21.37 24.2299 20.2 22.7998 20.2C21.3698 20.2 20.1998 21.37 20.1998 22.8Z" fill="#CC4700"/>
<path d="M18.6397 19.6801L17.8839 21.5317L20.2014 20.9295L18.6397 19.6801ZM17.6651 22.41L15.7248 21.9247L15.7248 21.9247L17.6651 22.41ZM17.7301 22.02H19.7301L18.4859 20.1683L17.7301 22.02ZM11.3601 19.42L12.1159 17.5683L9.79844 18.1705L11.3601 19.42ZM10.8399 12.6601L9.42555 14.0742L11.8357 14.3946L10.8399 12.6601ZM17.8599 8.63005L18.8557 10.3645L19.8001 8.14479L17.8599 8.63005ZM17.7938 8.37309L19.7288 7.86755L19.7287 7.86703L17.7938 8.37309ZM17.7937 8.3729L15.8553 8.86521L15.8588 8.87896L17.7937 8.3729ZM17.7937 8.37281L19.7322 7.88049L19.7287 7.86723L17.7937 8.37281ZM19.0297 10.8399L20.3467 9.33476L18.0199 9.11354L19.0297 10.8399ZM12.1397 14.87L11.1299 13.1436L10.1995 15.3552L12.1397 14.87ZM12.2059 15.1272L14.1583 14.6933L14.1409 14.6216L12.2059 15.1272ZM12.2059 15.1272L10.2535 15.5611L10.2709 15.6328L12.2059 15.1272ZM12.2697 17.0801L10.4809 16.1856L11.5139 18.9317L12.2697 17.0801ZM22.7998 15.6C20.4306 15.6 18.4505 16.7152 17.0781 18.4306L20.2014 20.9295C20.9092 20.0449 21.7892 19.6 22.7998 19.6V15.6ZM22.8001 15.6H22.7998V19.6H22.8001V15.6ZM30.0001 22.8C30.0001 18.8353 26.7647 15.6 22.8001 15.6V19.6C24.5556 19.6 26.0001 21.0445 26.0001 22.8H30.0001ZM22.8001 30C26.7647 30 30.0001 26.7647 30.0001 22.8H26.0001C26.0001 24.5555 24.5556 26 22.8001 26V30ZM15.6001 22.8C15.6001 26.7647 18.8354 30 22.8001 30V26C21.0445 26 19.6001 24.5555 19.6001 22.8H15.6001ZM15.7248 21.9247C15.704 22.0079 15.6001 22.3807 15.6001 22.8H19.6001C19.6001 22.8506 19.5969 22.8914 19.5938 22.92C19.5907 22.9483 19.5873 22.9672 19.5861 22.9736C19.585 22.9798 19.5851 22.9782 19.5884 22.964C19.5921 22.9483 19.5966 22.9301 19.6053 22.8952L15.7248 21.9247ZM15.7301 22.02C15.7301 21.9694 15.7332 21.9286 15.7364 21.9C15.7395 21.8717 15.7428 21.8528 15.7441 21.8463C15.7452 21.8402 15.7451 21.8418 15.7418 21.8559C15.7381 21.8717 15.7336 21.8898 15.7248 21.9247L19.6053 22.8952C19.6261 22.8121 19.7301 22.4393 19.7301 22.02H15.7301ZM10.6043 21.2717L16.9743 23.8717L18.4859 20.1683L12.1159 17.5683L10.6043 21.2717ZM7.2 23.5C9.56922 23.5 11.5493 22.3848 12.9218 20.6695L9.79844 18.1705C9.09061 19.0551 8.21059 19.5 7.2 19.5V23.5ZM0 16.3C0 20.2647 3.23534 23.5 7.2 23.5V19.5C5.44448 19.5 4 18.0555 4 16.3H0ZM7.2 9.1C3.23534 9.1 0 12.3353 0 16.3H4C4 14.5445 5.44448 13.1 7.2 13.1V9.1ZM12.2543 11.246C11.0282 10.0197 9.23841 9.1 7.2 9.1V13.1C8.02159 13.1 8.8318 13.4803 9.42555 14.0742L12.2543 11.246ZM16.8642 6.89555L9.84417 10.9256L11.8357 14.3946L18.8557 10.3645L16.8642 6.89555ZM15.8587 8.87863C15.8807 8.96268 15.9003 9.03801 15.9197 9.11531L19.8001 8.14479C19.775 8.04404 19.7501 7.94893 19.7288 7.86755L15.8587 8.87863ZM15.8588 8.87896L15.8589 8.87914L19.7287 7.86703L19.7286 7.86685L15.8588 8.87896ZM15.8552 8.86512L15.8553 8.86521L19.7322 7.88059L19.7322 7.8805L15.8552 8.86512ZM15.5998 7.2C15.5998 7.92067 15.7583 8.49426 15.8587 8.87839L19.7287 7.86723C19.6199 7.45082 19.5998 7.34099 19.5998 7.2H15.5998ZM22.7998 0C18.8352 0 15.5998 3.23534 15.5998 7.2H19.5998C19.5998 5.44448 21.0443 4 22.7998 4V0ZM29.9998 7.2C29.9998 3.23534 26.7645 0 22.7998 0V4C24.5554 4 25.9998 5.44448 25.9998 7.2H29.9998ZM22.7998 14.4C26.7645 14.4 29.9998 11.1647 29.9998 7.2H25.9998C25.9998 8.95553 24.5554 10.4 22.7998 10.4V14.4ZM17.7127 12.3451C18.9991 13.4707 20.7484 14.4 22.7998 14.4V10.4C21.9912 10.4 21.1405 10.0294 20.3467 9.33476L17.7127 12.3451ZM13.1495 16.5963L20.0395 12.5663L18.0199 9.11354L11.1299 13.1436L13.1495 16.5963ZM14.1409 14.6216C14.119 14.5375 14.0993 14.4621 14.0799 14.3847L10.1995 15.3552C10.2247 15.4561 10.2496 15.5512 10.2709 15.6328L14.1409 14.6216ZM14.1583 14.6933L14.1583 14.6933L10.2535 15.561L10.2535 15.5611L14.1583 14.6933ZM14.3998 16.3C14.3998 15.5793 14.2413 15.0058 14.141 14.6216L10.2709 15.6328C10.3797 16.0492 10.3998 16.159 10.3998 16.3H14.3998ZM14.0586 17.9745C14.4289 17.2338 14.3998 16.5099 14.3998 16.3H10.3998C10.3998 16.3702 10.3996 16.404 10.3987 16.4326C10.3979 16.4574 10.3971 16.457 10.399 16.4419C10.401 16.4253 10.4065 16.3903 10.4196 16.3434C10.4332 16.2954 10.453 16.2414 10.4809 16.1856L14.0586 17.9745ZM19.3955 17.8284L13.0255 15.2284L11.5139 18.9317L17.8839 21.5317L19.3955 17.8284ZM22.7998 6.6C23.1253 6.6 23.3998 6.87452 23.3998 7.2H27.3998C27.3998 4.66539 25.3344 2.6 22.7998 2.6V6.6ZM22.1998 7.2C22.1998 6.87452 22.4744 6.6 22.7998 6.6V2.6C20.2652 2.6 18.1998 4.66539 18.1998 7.2H22.1998ZM22.7998 7.8C22.4744 7.8 22.1998 7.52548 22.1998 7.2H18.1998C18.1998 9.73462 20.2652 11.8 22.7998 11.8V7.8ZM23.3998 7.2C23.3998 7.52548 23.1253 7.8 22.7998 7.8V11.8C25.3344 11.8 27.3998 9.73462 27.3998 7.2H23.3998ZM2.59982 16.3C2.59982 18.8346 4.66521 20.9 7.19983 20.9V16.9C6.87435 16.9 6.59982 16.6255 6.59982 16.3H2.59982ZM7.19983 11.7C4.66521 11.7 2.59982 13.7654 2.59982 16.3H6.59982C6.59982 15.9745 6.87435 15.7 7.19983 15.7V11.7ZM11.7998 16.3C11.7998 13.7654 9.73444 11.7 7.19983 11.7V15.7C7.5253 15.7 7.79983 15.9745 7.79983 16.3H11.7998ZM7.19983 20.9C9.73444 20.9 11.7998 18.8346 11.7998 16.3H7.79983C7.79983 16.6255 7.5253 16.9 7.19983 16.9V20.9ZM22.7998 23.4C22.4744 23.4 22.1998 23.1255 22.1998 22.8H18.1998C18.1998 25.3346 20.2652 27.4 22.7998 27.4V23.4ZM23.3998 22.8C23.3998 23.1255 23.1253 23.4 22.7998 23.4V27.4C25.3344 27.4 27.3998 25.3346 27.3998 22.8H23.3998ZM22.7998 22.2C23.1253 22.2 23.3998 22.4745 23.3998 22.8H27.3998C27.3998 20.2654 25.3344 18.2 22.7998 18.2V22.2ZM22.1998 22.8C22.1998 22.4745 22.4744 22.2 22.7998 22.2V18.2C20.2652 18.2 18.1998 20.2654 18.1998 22.8H22.1998Z" fill="white" fill-opacity="0.484269" mask="url(#path-1-outside-1_212_6429)"/>
</svg>
