<svg width="15" height="20" viewBox="0 0 15 20" fill="none" xmlns="http://www.w3.org/2000/svg">
<path fill-rule="evenodd" clip-rule="evenodd" d="M9.70102 6.2616C9.18357 6.2616 8.76309 5.84617 8.75872 5.33083V0H0.935091C0.686062 0 0.447117 0.0991569 0.271559 0.275324C0.096232 0.451747 -0.00126216 0.690241 0.000809932 0.938545V19.0306C-0.00979281 19.2843 0.0840775 19.531 0.260443 19.7139C0.436809 19.8967 0.680667 20.0003 0.935097 20H14.0654C14.3144 20 14.5534 19.9008 14.7289 19.7247C14.9043 19.5483 15.002 19.3098 14.9999 19.0615V6.26185L9.70102 6.2616ZM10.9272 17.2461C11.0159 17.3947 11.0223 17.5836 10.9442 17.7388C10.8661 17.8943 10.7159 17.9912 10.5522 17.992H9.2503C9.0863 17.9936 8.9356 17.8956 8.8605 17.7383C8.12496 16.2858 7.49999 14.9763 7.49999 14.9763C7.3496 15.3565 7.2383 15.5749 6.92058 16.1982L6.92057 16.1982C6.74096 16.5506 6.49538 17.0324 6.13948 17.746V17.7462C6.06069 17.8998 5.9122 17.9965 5.74968 18H4.4478C4.28404 17.9992 4.13383 17.9022 4.05577 17.7468C3.97771 17.5916 3.98412 17.4026 4.07276 17.2541L6.31581 13.5001L4.07276 9.73823C3.98288 9.59101 3.97574 9.40209 4.05429 9.24743C4.13309 9.09252 4.28453 8.99765 4.4478 9.00004H5.7423C5.90556 9.00084 6.05651 9.09438 6.13949 9.24611C6.55416 10.0835 6.74877 10.4531 6.88439 10.7107L6.88439 10.7107C7.06624 11.056 7.14202 11.1999 7.5 12.0001L8.86051 9.24611C8.94349 9.09438 9.09444 9.00084 9.2577 9.00004H10.5522C10.7155 8.99765 10.8669 9.09252 10.9457 9.24743C11.0243 9.40209 11.0171 9.59102 10.9272 9.73823L8.72088 13.4922L10.9272 17.2461ZM10 5H15C15.0039 4.80415 14.9919 4.6488 14.9815 4.51431C14.9664 4.31893 14.9547 4.16756 15 4L11 0C10.8274 0.0610707 10.6698 0.0462932 10.4566 0.0263141C10.3293 0.0143741 10.182 0.000576278 10 0V5Z" fill="white"/>
</svg>
