<svg width="11" height="18" viewBox="0 0 11 18" fill="none" xmlns="http://www.w3.org/2000/svg">
<path fill-rule="evenodd" clip-rule="evenodd" d="M5.46312 0C3.32245 0 1.55784 1.79873 1.55784 4.04715C1.55784 6.26558 3.29352 8.0943 5.46312 8.0943C7.63272 8.0943 9.3684 6.29556 9.3684 4.04715C9.3684 1.79873 7.60379 0 5.46312 0ZM5.46312 5.3962C4.73992 5.3962 4.16136 4.79662 4.16136 4.04715C4.16136 3.29768 4.73992 2.6981 5.46312 2.6981C6.18632 2.6981 6.76488 3.29768 6.76488 4.04715C6.76488 4.79662 6.18632 5.3962 5.46312 5.3962ZM7.14095 11.9616C8.21128 11.7817 9.28162 11.392 10.2652 10.8224C10.8727 10.4626 11.1041 9.68318 10.7859 9.02364C10.4677 8.39408 9.68661 8.15425 9.07912 8.514C6.85167 9.77311 4.10351 9.77311 1.90498 8.48402C1.29749 8.12427 0.516434 8.33413 0.169298 8.96368C-0.177838 9.62322 0.0246578 10.4027 0.632146 10.7624C1.58677 11.332 2.65711 11.6918 3.72744 11.9016L0.71893 15.7989C0.371794 16.2485 0.342866 16.998 0.661074 17.4477C0.921426 17.8074 1.29749 17.9873 1.67355 17.9873C2.04962 17.9873 2.39675 17.8374 2.65711 17.5077L5.43419 13.9402L8.24021 17.5077C8.76091 18.1972 9.80232 18.1672 10.2941 17.3877C10.6123 16.9081 10.5255 16.2785 10.1784 15.8288L7.14095 11.9616Z" fill="#FA6400"/>
</svg>
