<?xml version="1.0" encoding="utf-8"?>
<!-- Generator: Adobe Illustrator 26.3.1, SVG Export Plug-In . SVG Version: 6.00 Build 0)  -->
<svg version="1.1" id="Layer_1" xmlns="http://www.w3.org/2000/svg" xmlns:xlink="http://www.w3.org/1999/xlink" x="0px" y="0px"
	 viewBox="0 0 595.28 291.58" style="enable-background:new 0 0 595.28 291.58;" xml:space="preserve">
<style type="text/css">
	.st0{fill:#FDFDFD;}
	.st1{fill:#97E749;}
	.st2{fill:#96E749;}
	.st3{fill:#97E849;}
	.st4{fill:#95E64A;}
	.st5{fill:#FFFFFF;}
	.st6{fill:#F7F7F7;}
</style>
<g>
	<path class="st0" d="M404.18,198.07c2.44,1.13,4.47,2.01,6.44,3c7.4,3.74,10.75,9.92,11.55,18.06c0.54,5.52,0.18,10.86-1.46,16.05
		c-2.47,7.78-7.59,13.47-14.95,16.99c-4.9,2.35-10.03,4.06-15.56,4.14c-11.98,0.18-23.97,0.49-35.95,0.47
		c-2.63,0-5.35-0.87-7.87-1.79c-3.34-1.22-5.06-3.99-5.26-7.47c-0.39-6.74-0.8-13.5-0.83-20.25c-0.09-21.77-0.08-43.55,0.07-65.32
		c0.02-3.03,0.81-6.11,1.66-9.05c1.04-3.59,3.78-5.66,7.39-6.33c2.66-0.49,5.39-0.86,8.09-0.89c8.49-0.1,16.98-0.15,25.46,0.02
		c8.75,0.17,16.86,2.63,24.08,7.65c6.41,4.46,9.83,10.59,10.06,18.46c0.18,6.37-0.64,12.5-4.01,18.07
		c-1.75,2.89-4.22,5.01-7.03,6.79C405.54,197.02,405.07,197.41,404.18,198.07z M365.58,221.85c0,3.82-0.01,7.63,0.01,11.45
		c0.01,1.06,0.01,2.3,1.55,2.24c6.46-0.27,12.96-0.28,19.36-1.06c2.3-0.28,4.76-2.06,6.46-3.82c3.54-3.67,3-8.39,2.17-12.95
		c-0.64-3.56-2.59-6.42-6.08-7.42c-3.52-1.02-7.23-1.52-10.89-1.84c-3.37-0.3-6.79,0.04-10.17-0.1c-1.96-0.09-2.45,0.77-2.43,2.49
		C365.61,214.5,365.58,218.18,365.58,221.85z M365.58,167.22c0,6.94,0.02,13.64-0.01,20.33c-0.01,1.19,0.59,1.39,1.59,1.38
		c5.01-0.08,10.03-0.01,15.03-0.22c4.03-0.17,8.19-3.03,9.04-7.57c1.58-8.43-2.62-12.67-9.14-13.75
		C376.82,166.53,371.29,167.22,365.58,167.22z"/>
	<path class="st1" d="M294.12,220.56c-6.79,0-13.58,0-20.37,0c-3.02,0-3.42,0.61-2.39,3.56c2.23,6.38,7.99,10.52,14.91,11.08
		c6.89,0.56,13.06-1.61,19.17-4.34c2.82-1.26,5.69-2.63,8.68-3.27c3.32-0.71,6.77-0.2,9.07,2.74c2.57,3.29,2.73,7.05,1.16,10.83
		c-1.77,4.28-5.01,7.35-8.91,9.64c-10.51,6.18-22.07,7.89-33.92,6.56c-19.69-2.21-33.81-18.65-35.98-35.88
		c-2.19-17.34,2.42-32.23,16.12-43.63c6.31-5.25,13.74-8.06,22.03-7.97c4.42,0.05,8.94,0.11,13.23,1.04
		c8.7,1.88,15.68,6.83,21.36,13.62c5.22,6.26,8.13,13.41,8.93,21.57c0.8,8.09-4.1,14.22-12.29,14.39
		c-6.93,0.15-13.86,0.03-20.8,0.03C294.12,220.55,294.12,220.55,294.12,220.56z M302.23,204.27c0.49-6.78-6.15-13.75-13.92-14.42
		c-10.43-0.91-17.33,7.82-17.62,14.42C281.17,204.27,291.65,204.27,302.23,204.27z"/>
	<path class="st0" d="M509.52,207.44c0,7.49,0.48,15.01-0.12,22.45c-0.75,9.11-4.39,17.1-12.14,22.64
		c-4.12,2.95-8.7,4.63-13.75,5.65c-6.18,1.25-12.36,1.24-18.44,0.61c-13.98-1.46-27.73-9.18-29.18-28.15
		c-1.04-13.55-0.77-27.21-0.82-40.82c-0.02-4.17,0.45-8.42,2.68-12.2c2.56-4.33,8.76-6.17,13.6-4.54c4.81,1.62,6.75,5.25,7.67,9.65
		c0.59,2.8,0.77,5.73,0.8,8.6c0.12,9.68,0.05,19.36,0.16,29.04c0.05,4.33,0.54,8.58,3.55,12.09c1.56,1.82,3.5,2.76,5.81,3.32
		c3,0.73,5.8,0.37,8.6-0.73c4.41-1.74,6.13-5.46,6.67-9.71c0.54-4.25,0.69-8.56,0.76-12.85c0.12-8.48,0-16.96,0.11-25.44
		c0.05-4.09,1.03-7.98,3.82-11.15c4.53-5.14,15.53-4.83,18.68,3.2c1.4,3.58,1.87,7.21,1.91,10.96c0,0.14,0,0.28,0,0.42
		c0,5.65,0,11.31,0,16.96C509.75,207.44,509.64,207.44,509.52,207.44z"/>
	<path class="st0" d="M556.82,221.38c3.15-8.17,6.15-15.97,9.15-23.77c2.01-5.24,3.96-10.51,6.05-15.71
		c1.46-3.62,3.24-7.11,7.21-8.6c6.21-2.34,15,0.3,15.72,9.07c0.38,4.72-1.35,8.86-3.03,13.01c-2.69,6.65-5.63,13.2-8.42,19.8
		c-5.12,12.1-10.21,24.22-15.33,36.33c-4.45,10.52-8.85,21.07-13.42,31.54c-0.94,2.15-2.4,4.11-3.83,6c-1.33,1.75-3.2,2.6-5.51,2.53
		c-3.27-0.11-6.61,0.37-9.38-2.11c-2.09-1.87-3.34-4.04-3.62-6.89c-0.51-5.21,1.18-9.82,3.39-14.39c2.79-5.74,5.52-11.52,7.9-17.44
		c0.5-1.25-0.39-3.24-1-4.73c-3.36-8.18-6.8-16.33-10.29-24.46c-3.86-8.98-7.82-17.91-11.74-26.86c-1.62-3.71-3-7.49-2.52-11.64
		c0.55-4.76,3.17-8.37,8.86-10.3c3.92-1.33,9.8,0.31,11.89,3.85c2.09,3.55,3.61,7.47,5.13,11.33c2.89,7.38,5.62,14.83,8.39,22.26
		c1.18,3.16,2.29,6.34,3.46,9.5C556.06,220.2,556.4,220.65,556.82,221.38z"/>
	<path class="st1" d="M82.95,199.69c0-12.65-0.08-25.3,0.06-37.95c0.04-3.43,0.42-6.93,1.2-10.26c1.41-6.07,5.87-9.21,12.09-9.05
		c5.85,0.14,10.11,3.61,11.27,9.57c0.64,3.31,1.07,6.71,1.08,10.07c0.09,22.33,0.04,44.66,0.04,66.99c0,3.03,0,3.03,3.02,3.04
		c6.79,0.02,13.58-0.16,20.36,0.14c3.25,0.14,6.55,0.9,9.67,1.88c4.17,1.32,6.16,4.51,6.18,8.86c0.03,7.3-3.2,11.14-10.54,11.93
		c-4.61,0.5-9.28,0.63-13.93,0.67c-8.98,0.07-17.96,0.04-26.94-0.12c-2.08-0.04-4.2-0.55-6.2-1.18c-4.46-1.4-6.4-4.87-6.91-9.25
		c-0.28-2.38-0.43-4.79-0.44-7.18C82.93,225.13,82.95,212.41,82.95,199.69z"/>
	<path class="st2" d="M71.42,0.54c-1.1,0.96-2.21,1.91-3.3,2.89c-10.35,9.29-18.58,20.28-25.76,32.12
		c-7.34,12.1-12.91,24.98-16.69,38.59c-1.71,6.18-2.98,12.51-4.09,18.83c-2.32,13.21-2.66,26.57-1.82,39.92
		c1.08,17.16,4.55,33.85,10.83,49.91c6.45,16.49,15.52,31.35,27.73,44.24c0.45,0.47,0.8,1.05,1.19,1.57
		c-0.11,0.16-0.23,0.33-0.34,0.49c-0.66-0.23-1.38-0.37-1.97-0.72c-15.1-9.01-26.9-21.35-36.41-36.02
		c-7.97-12.29-13.28-25.68-16.77-39.84c-3.44-13.96-4.59-28.16-3.74-42.48C1.2,94.52,4.41,79.44,10.32,64.98
		c8.11-19.84,19.94-36.97,36.67-50.56C53.98,8.74,61.64,4.12,69.8,0.32C70.21,0.13,70.7,0.1,71.15,0
		C71.24,0.18,71.33,0.36,71.42,0.54z"/>
	<path class="st3" d="M202.11,219.34c0-7.14,0-14.28,0-21.41c0-3.06-0.08-2.94-3.02-3.24c-2.21-0.23-4.52-0.62-6.53-1.52
		c-4.43-1.99-5.54-5.87-5.19-10.39c0.29-3.66,2.75-6.86,6.52-8.04c2.07-0.65,4.2-1.17,6.35-1.48c1.46-0.21,1.86-0.82,1.89-2.18
		c0.1-4.8,0.2-9.59,0.5-14.38c0.31-4.89,1.95-9.26,6.7-11.45c8.08-3.72,16.09,1.18,17.02,10.44c0.49,4.84,0.47,9.72,0.61,14.59
		c0.08,2.81,0.03,2.73,2.77,2.94c4.01,0.31,8.02,0.72,11.44,3.21c3.61,2.63,3.94,6.4,3.32,10.29c-0.57,3.57-3.24,5.65-6.46,6.66
		c-2.58,0.81-5.36,1.12-8.08,1.34c-2.95,0.24-2.97,0.09-2.97,2.98c0,12.72,0.09,25.44-0.05,38.16c-0.04,4.07-0.25,8.23-1.17,12.17
		c-1.96,8.38-11.38,11.71-18.27,6.69c-3.19-2.32-4.46-5.81-4.8-9.55c-0.39-4.28-0.48-8.59-0.56-12.89
		C202.04,227.96,202.11,223.65,202.11,219.34z"/>
	<path class="st2" d="M58.44,210.01c-0.48-0.35-1-0.65-1.43-1.05c-10.89-10.18-18.69-22.35-23.71-36.37
		c-5.62-15.74-7.13-31.97-5.37-48.46c1.85-17.3,7.36-33.44,16.66-48.24c8.75-13.92,20.05-25.28,33.87-34.16
		c6.7-4.31,13.93-7.38,21.68-9.21c0.96-0.23,2-0.13,3.12,0.09c-30.46,18.65-48.78,45.94-57.21,80c-8.4,33.9-5.69,66.6,13,97.12
		C58.84,209.83,58.64,209.92,58.44,210.01z"/>
	<path class="st1" d="M179.56,213.71c0,9.26,0.11,18.52-0.05,27.78c-0.07,4.26-0.9,8.43-3.82,11.87c-4.99,5.89-15.87,4.19-18.86-2.9
		c-1.55-3.67-2.07-7.48-2.08-11.38c-0.04-16.83-0.12-33.65,0.07-50.47c0.04-3.53,0.74-7.19,1.85-10.55
		c1.74-5.27,5.69-7.35,11.86-7.04c4.64,0.23,8.53,3.22,9.68,8.08c0.85,3.61,1.35,7.37,1.45,11.08c0.21,7.84,0.07,15.69,0.07,23.54
		C179.68,213.71,179.62,213.71,179.56,213.71z"/>
	<path class="st4" d="M127.28,59.14c-27.33,8.54-45.76,27.31-58.39,52C56.16,136,52.96,162.09,62.16,189.1
		c-0.17,0.08-0.33,0.16-0.5,0.24c-0.43-0.44-0.94-0.82-1.28-1.32c-5.59-8.31-9.17-17.37-11.1-27.25
		c-3.16-16.19-1.09-31.77,4.67-46.97c7.58-20.02,20.84-35.38,39.15-46.38c6.52-3.92,13.6-6.48,21.19-7.53
		c3.27-0.45,6.53-1.01,9.8-1.44c1-0.13,2.03-0.02,3.05-0.02C127.18,58.67,127.23,58.9,127.28,59.14z"/>
	<path class="st4" d="M157.82,74.54c-22.71-1.13-41.9,7.29-58.42,22.08c-16.56,14.83-26.68,33.14-27.6,55.92
		c-0.24-0.02-0.48-0.04-0.71-0.06c-0.18-0.59-0.42-1.17-0.54-1.77c-4.06-20.43,1.73-38.25,14.64-54.04
		c6.92-8.46,15.34-15.18,25.37-19.68c6.58-2.95,13.47-4.96,20.7-5.62c3.22-0.3,6.49-1.02,9.65-0.69c5.29,0.54,10.52,1.76,15.77,2.72
		c0.43,0.08,0.81,0.41,1.22,0.63C157.88,74.19,157.85,74.36,157.82,74.54z"/>
	<path class="st2" d="M167.11,164.14c-8.47-0.01-14.25-5.78-14.23-14.21c0.02-8.14,6.22-14.2,14.47-14.16
		c8.21,0.05,13.9,5.99,14.12,14.24C181.67,157.23,175.57,164.81,167.11,164.14z"/>
	<path class="st5" d="M173.69,92.24c-17.15-4.82-33.28-2.06-48.75,5.9c-15.55,8-26.83,19.93-33.35,36.49
		c-0.04-0.7-0.2-1.41-0.09-2.09c2.03-13.55,7.95-24.92,18.49-33.91c5.06-4.32,10.6-7.71,16.76-9.99c4.95-1.82,10.01-3.4,15.43-3.3
		c2.07,0.04,4.17-0.75,6.23-0.64c8.7,0.47,17.08,2.21,24.65,6.81C173.34,91.66,173.49,91.99,173.69,92.24z"/>
	<path class="st5" d="M185.36,103.88c-26.32-11.5-49.4-5.87-69.01,15.44c-0.19-0.1-0.38-0.19-0.57-0.29
		c1.07-2.04,2.09-4.11,3.23-6.11c4.5-7.9,11.4-13.12,19.55-16.63c4.36-1.88,8.93-3.42,13.87-3.32c1.99,0.04,4.01-0.73,5.99-0.61
		c8.83,0.52,17.15,2.76,24.28,8.27C183.86,101.54,184.63,102.97,185.36,103.88z"/>
	<path class="st5" d="M196.05,116.73c-3.22-0.23-5.01-2.98-7.59-4.36c-3.88-2.07-7.76-3.98-12.14-4.62c-3.98-0.58-8-1.68-11.95-1.5
		c-8.18,0.39-15.95,2.6-22.75,7.5c-0.63,0.45-1.4,0.7-2.11,1.04c-0.17-0.23-0.35-0.46-0.52-0.69c2-1.86,3.87-3.87,6.01-5.53
		c4.05-3.14,8.71-4.86,13.74-6.07c4.59-1.11,9.13-1.27,13.61-0.53c7.89,1.31,14.94,4.6,20.46,10.63c1.19,1.31,2.21,2.77,3.31,4.16
		L196.05,116.73z"/>
	<path class="st5" d="M156.35,117.25c4.22-6.03,16.96-7.35,24.08-5.52c14.59,3.75,19.35,12.55,20.17,18.23
		C188.72,115.88,174.61,109.83,156.35,117.25z"/>
	<path class="st6" d="M196.12,116.76c-0.1,0.03-0.2,0.07-0.31,0.1c0.03,0.06,0.07,0.16,0.09,0.16c0.12-0.02,0.23-0.06,0.34-0.12
		c0.02-0.01,0.02-0.14-0.02-0.17c-0.03-0.03-0.12,0-0.17,0C196.05,116.73,196.12,116.76,196.12,116.76z"/>
</g>
</svg>
