<svg width="30" height="27" viewBox="0 0 30 27" fill="none" xmlns="http://www.w3.org/2000/svg">
<mask id="path-1-outside-1_212_6438" maskUnits="userSpaceOnUse" x="0" y="0" width="30" height="27" fill="black">
<rect fill="white" width="30" height="27"/>
<path fill-rule="evenodd" clip-rule="evenodd" d="M27.5041 12.1415C30.5809 2.39206 18.4749 -1.60359 15.0006 5.90421C11.5255 -1.60359 -0.581862 2.39214 2.4963 12.1415C3.50036 15.0885 5.13463 17.0382 7.94512 19.3282L8.50392 19.776L9.09298 20.2345L9.71317 20.7058L10.7038 21.4415L11.7693 22.2182L15.0002 24.5447L18.2313 22.2181L19.6353 21.192L20.6015 20.4683L21.206 20.0036L21.7798 19.5507L22.3238 19.1074C24.9706 16.911 26.5322 14.9929 27.5041 12.1415ZM4.86272 11.3352C2.87191 5.02767 10.3927 1.9007 12.7318 6.95434L15.0008 11.8564L17.2694 6.95414L17.3521 6.78312C19.7795 1.97319 27.1045 5.10077 25.12 11.3891C24.5374 13.0961 23.6809 14.4168 22.2316 15.8382L22.0073 16.0571L21.5136 16.5252L21.1276 16.8712L20.6991 17.2338L20.083 17.7261L19.1526 18.4343L17.9092 19.3521L15 21.461L14.5718 21.1523L11.7886 19.1303L10.5787 18.2322L9.91365 17.7234L9.37272 17.2927L9.00446 16.9852L8.62696 16.6535L8.27751 16.33L7.76963 15.8392C6.31958 14.4175 5.46289 13.0967 4.86272 11.3352Z"/>
</mask>
<path fill-rule="evenodd" clip-rule="evenodd" d="M27.5041 12.1415C30.5809 2.39206 18.4749 -1.60359 15.0006 5.90421C11.5255 -1.60359 -0.581862 2.39214 2.4963 12.1415C3.50036 15.0885 5.13463 17.0382 7.94512 19.3282L8.50392 19.776L9.09298 20.2345L9.71317 20.7058L10.7038 21.4415L11.7693 22.2182L15.0002 24.5447L18.2313 22.2181L19.6353 21.192L20.6015 20.4683L21.206 20.0036L21.7798 19.5507L22.3238 19.1074C24.9706 16.911 26.5322 14.9929 27.5041 12.1415ZM4.86272 11.3352C2.87191 5.02767 10.3927 1.9007 12.7318 6.95434L15.0008 11.8564L17.2694 6.95414L17.3521 6.78312C19.7795 1.97319 27.1045 5.10077 25.12 11.3891C24.5374 13.0961 23.6809 14.4168 22.2316 15.8382L22.0073 16.0571L21.5136 16.5252L21.1276 16.8712L20.6991 17.2338L20.083 17.7261L19.1526 18.4343L17.9092 19.3521L15 21.461L14.5718 21.1523L11.7886 19.1303L10.5787 18.2322L9.91365 17.7234L9.37272 17.2927L9.00446 16.9852L8.62696 16.6535L8.27751 16.33L7.76963 15.8392C6.31958 14.4175 5.46289 13.0967 4.86272 11.3352Z" fill="#CC4700"/>
<path d="M15.0006 5.90421L13.1856 6.74431L16.8157 6.74415L15.0006 5.90421ZM27.5041 12.1415L29.3971 12.7867L29.4113 12.7434L27.5041 12.1415ZM2.4963 12.1415L0.589103 12.7436L0.603162 12.7865L2.4963 12.1415ZM7.94512 19.3282L6.68178 20.8787L6.69437 20.8888L7.94512 19.3282ZM8.50392 19.776L7.25317 21.3367L7.27547 21.3543L8.50392 19.776ZM9.09298 20.2345L7.86453 21.8128L7.88288 21.8269L9.09298 20.2345ZM9.71317 20.7058L8.50307 22.2982L8.52071 22.3115L9.71317 20.7058ZM10.7038 21.4415L9.51129 23.0471L9.52577 23.0578L10.7038 21.4415ZM11.7693 22.2182L10.5913 23.8345L10.6006 23.8412L11.7693 22.2182ZM15.0002 24.5447L13.8315 26.1677L16.1689 26.1677L15.0002 24.5447ZM18.2313 22.2181L19.4 23.8412L19.4114 23.8328L18.2313 22.2181ZM19.6353 21.192L20.8154 22.8067L20.8342 22.7928L19.6353 21.192ZM20.6015 20.4683L21.8005 22.0691L21.8204 22.054L20.6015 20.4683ZM21.206 20.0036L22.4249 21.5893L22.4452 21.5735L21.206 20.0036ZM21.7798 19.5507L23.019 21.1206L23.0434 21.101L21.7798 19.5507ZM22.3238 19.1074L23.5873 20.6577L23.601 20.6464L22.3238 19.1074ZM12.7318 6.95434L14.5468 6.11424L12.7318 6.95434ZM4.86272 11.3352L2.95547 11.9372L2.96959 11.9802L4.86272 11.3352ZM15.0008 11.8564L13.1858 12.6965L16.8159 12.6964L15.0008 11.8564ZM17.2694 6.95414L15.4688 6.08373L15.4544 6.1142L17.2694 6.95414ZM17.3521 6.78312L15.5666 5.88205L15.5514 5.91271L17.3521 6.78312ZM25.12 11.3891L27.0128 12.035L27.0272 11.991L25.12 11.3891ZM22.2316 15.8382L23.6285 17.2695L23.632 17.2661L22.2316 15.8382ZM22.0073 16.0571L23.3835 17.5083L23.4042 17.4884L22.0073 16.0571ZM21.5136 16.5252L22.8486 18.0145L22.8899 17.9764L21.5136 16.5252ZM21.1276 16.8712L22.4195 18.398L22.4626 18.3605L21.1276 16.8712ZM20.6991 17.2338L21.9476 18.7963L21.991 18.7606L20.6991 17.2338ZM20.083 17.7261L21.2943 19.3176L21.3315 19.2886L20.083 17.7261ZM19.1526 18.4343L20.3404 20.0434L20.3639 20.0258L19.1526 18.4343ZM17.9092 19.3521L19.083 20.9714L19.097 20.9612L17.9092 19.3521ZM15 21.461L13.8304 23.0834L16.1738 23.0803L15 21.461ZM14.5718 21.1523L13.3962 22.7703L13.4022 22.7747L14.5718 21.1523ZM11.7886 19.1303L10.5966 20.7362L10.613 20.7483L11.7886 19.1303ZM10.5787 18.2322L9.36328 19.8206L9.38666 19.8382L10.5787 18.2322ZM9.91365 17.7234L8.66787 19.288L8.69827 19.3117L9.91365 17.7234ZM9.37272 17.2927L8.09093 18.8279L8.12694 18.8573L9.37272 17.2927ZM9.00446 16.9852L7.68417 18.4875L7.72267 18.5205L9.00446 16.9852ZM8.62696 16.6535L7.26847 18.1213L7.30668 18.1557L8.62696 16.6535ZM8.27751 16.33L6.88769 17.7682L6.91902 17.7979L8.27751 16.33ZM7.76963 15.8392L6.36943 17.2673L6.37981 17.2774L7.76963 15.8392ZM16.8157 6.74415C18.0294 4.1213 20.6893 3.46179 22.9411 4.3981C24.0565 4.86189 24.9947 5.70331 25.5232 6.84081C26.043 7.95952 26.2356 9.51546 25.5968 11.5395L29.4113 12.7434C30.311 9.89276 30.1441 7.29321 29.1508 5.15535C28.1662 3.03626 26.4377 1.51999 24.4769 0.704671C20.5763 -0.917245 15.4461 0.179322 13.1855 5.06427L16.8157 6.74415ZM4.4035 11.5393C3.76444 9.51525 3.95691 7.95941 4.47661 6.84079C5.00504 5.70339 5.94326 4.86197 7.0588 4.39815C9.31095 3.46175 11.9715 4.12137 13.1856 6.74431L16.8156 5.06411C14.5545 0.179248 9.42388 -0.917168 5.52313 0.70468C3.56221 1.51999 1.83356 3.03625 0.849004 5.15543C-0.144284 7.29339 -0.310924 9.89301 0.589103 12.7436L4.4035 11.5393ZM9.20846 17.7777C6.56736 15.6257 5.23049 13.965 4.38944 11.4965L0.603162 12.7865C1.77023 16.2119 3.70189 18.4506 6.68178 20.8787L9.20846 17.7777ZM9.75467 18.2154L9.19587 17.7675L6.69437 20.8888L7.25317 21.3367L9.75467 18.2154ZM10.3214 18.6563L9.73237 18.1978L7.27547 21.3543L7.86453 21.8128L10.3214 18.6563ZM10.9233 19.1135L10.3031 18.6422L7.88288 21.8269L8.50307 22.2982L10.9233 19.1135ZM11.8962 19.8359L10.9056 19.1002L8.52071 22.3115L9.51129 23.0471L11.8962 19.8359ZM12.9473 20.6019L11.8817 19.8253L9.52577 23.0578L10.5914 23.8344L12.9473 20.6019ZM16.1689 22.9217L12.9381 20.5952L10.6006 23.8412L13.8315 26.1677L16.1689 22.9217ZM17.0626 20.5951L13.8315 22.9217L16.1689 26.1677L19.3999 23.8411L17.0626 20.5951ZM18.4552 19.5773L17.0512 20.6034L19.4114 23.8328L20.8154 22.8067L18.4552 19.5773ZM19.4026 18.8675L18.4363 19.5912L20.8342 22.7928L21.8005 22.0691L19.4026 18.8675ZM19.9872 18.418L19.3827 18.8826L21.8204 22.054L22.4249 21.5893L19.9872 18.418ZM20.5407 17.9808L19.9669 18.4338L22.4452 21.5735L23.019 21.1206L20.5407 17.9808ZM21.0603 17.557L20.5163 18.0004L23.0434 21.101L23.5873 20.6577L21.0603 17.557ZM25.611 11.4962C24.7957 13.8883 23.5153 15.5197 21.0466 17.5683L23.601 20.6464C26.4259 18.3023 28.2686 16.0976 29.3971 12.7867L25.611 11.4962ZM14.5468 6.11424C13.7435 4.37876 12.4168 3.21488 10.8416 2.71392C9.30112 2.22398 7.67351 2.41512 6.29663 3.08682C3.45551 4.47284 1.67108 7.86786 2.95547 11.9372L6.76998 10.7332C6.06354 8.49502 7.04409 7.17278 8.05044 6.68184C8.59729 6.41506 9.16404 6.3778 9.62934 6.52578C10.06 6.66274 10.5505 7.0031 10.9168 7.79444L14.5468 6.11424ZM16.8158 11.0163L14.5468 6.11424L10.9168 7.79444L13.1858 12.6965L16.8158 11.0163ZM15.4544 6.1142L13.1858 11.0165L16.8159 12.6964L19.0845 7.79408L15.4544 6.1142ZM15.5514 5.91271L15.4688 6.08373L19.0701 7.82455L19.1528 7.65354L15.5514 5.91271ZM27.0272 11.991C28.3008 7.95551 26.5934 4.57437 23.8025 3.14432C22.4517 2.45214 20.8496 2.22902 19.3194 2.6663C17.7553 3.11327 16.4102 4.21046 15.5666 5.88205L19.1376 7.6842C19.5077 6.95082 19.9884 6.63523 20.4185 6.51234C20.8824 6.37976 21.4427 6.42969 21.9785 6.7042C22.9608 7.20753 23.9237 8.53433 23.2127 10.7872L27.0272 11.991ZM23.632 17.2661C25.2766 15.6531 26.3176 14.0721 27.0128 12.035L23.2271 10.7432C22.7573 12.1201 22.0852 13.1804 20.8312 14.4103L23.632 17.2661ZM23.4042 17.4884L23.6285 17.2695L20.8347 14.4069L20.6104 14.6258L23.4042 17.4884ZM22.8899 17.9764L23.3835 17.5083L20.6311 14.6059L20.1374 15.074L22.8899 17.9764ZM22.4626 18.3605L22.8486 18.0145L20.1787 15.036L19.7927 15.382L22.4626 18.3605ZM21.991 18.7606L22.4195 18.398L19.8357 15.3445L19.4072 15.7071L21.991 18.7606ZM21.3315 19.2886L21.9476 18.7963L19.4506 15.6714L18.8345 16.1637L21.3315 19.2886ZM20.3639 20.0258L21.2943 19.3176L18.8717 16.1347L17.9413 16.8428L20.3639 20.0258ZM19.097 20.9612L20.3404 20.0434L17.9648 16.8252L16.7214 17.743L19.097 20.9612ZM16.1738 23.0803L19.083 20.9714L16.7354 17.7328L13.8262 19.8417L16.1738 23.0803ZM13.4022 22.7747L13.8304 23.0834L16.1696 19.8386L15.7413 19.5299L13.4022 22.7747ZM10.613 20.7483L13.3962 22.7703L15.7473 19.5342L12.9641 17.5122L10.613 20.7483ZM9.38666 19.8382L10.5966 20.7362L12.9806 17.5243L11.7707 16.6263L9.38666 19.8382ZM8.69827 19.3117L9.36328 19.8206L11.794 16.6439L11.129 16.135L8.69827 19.3117ZM8.12694 18.8573L8.66787 19.288L11.1594 16.1588L10.6185 15.7281L8.12694 18.8573ZM7.72267 18.5205L8.09093 18.8279L10.6545 15.7574L10.2862 15.45L7.72267 18.5205ZM7.30668 18.1557L7.68417 18.4875L10.3247 15.4829L9.94725 15.1512L7.30668 18.1557ZM6.91902 17.7979L7.26847 18.1213L9.98545 15.1856L9.636 14.8622L6.91902 17.7979ZM6.37981 17.2774L6.88769 17.7682L9.66733 14.8918L9.15945 14.401L6.37981 17.2774ZM2.96959 11.9802C3.68079 14.0677 4.71986 15.65 6.36943 17.2673L9.16983 14.4112C7.9193 13.185 7.24498 12.1258 6.75586 10.6902L2.96959 11.9802Z" fill="white" fill-opacity="0.484269" mask="url(#path-1-outside-1_212_6438)"/>
</svg>
