<svg style="display: none;" aria-hidden="true" xmlns="http://www.w3.org/2000/svg" xmlns:xlink="http://www.w3.org/1999/xlink"><symbol viewBox="0 0 23 26" id="svg-add-compare"><mask id="aaa" maskUnits="userSpaceOnUse" x="0" y="0" width="23" height="26"><path d="M0 0H23V26H0z"/><path fill-rule="evenodd" clip-rule="evenodd" d="M18 2H21V24H18V2ZM10 12H13V24H10V12ZM5 7H2V24H5V7Z"/></mask><path fill-rule="evenodd" clip-rule="evenodd" d="M18 2H21V24H18V2ZM10 12H13V24H10V12ZM5 7H2V24H5V7Z"/><path d="M21 2H23L21 0V2ZM18 2V0L16 2H18ZM21 24V26L23 24H21ZM18 24H16L18 26V24ZM13 12H15L13 10V12ZM10 12V10L8 12H10ZM13 24V26L15 24H13ZM10 24H8L10 26V24ZM2 7V5L0 7H2ZM5 7H7L5 5V7ZM2 24H0L2 26V24ZM5 24V26L7 24H5ZM21 0H18V4H21V0ZM23 24V2H19V24H23ZM18 26H21V22H18V26ZM16 2V24H20V2H16ZM13 10H10V14H13V10ZM15 24V12H11V24H15ZM10 26H13V22H10V26ZM8 12V24H12V12H8ZM2 9H5V5H2V9ZM4 24V7H0V24H4ZM5 22H2V26H5V22ZM3 7V24H7V7H3Z" fill-opacity=".484" mask="url(#aaa)"/></symbol><symbol viewBox="0 0 30 27" id="svg-add-favorites"><mask id="aba" maskUnits="userSpaceOnUse" x="0" y="0" width="30" height="27"><path d="M0 0H30V27H0z"/><path fill-rule="evenodd" clip-rule="evenodd" d="M27.5041 12.1415C30.5809 2.39206 18.4749 -1.60359 15.0006 5.90421C11.5255 -1.60359 -0.581862 2.39214 2.4963 12.1415C3.50036 15.0885 5.13463 17.0382 7.94512 19.3282L8.50392 19.776L9.09298 20.2345L9.71317 20.7058L10.7038 21.4415L11.7693 22.2182L15.0002 24.5447L18.2313 22.2181L19.6353 21.192L20.6015 20.4683L21.206 20.0036L21.7798 19.5507L22.3238 19.1074C24.9706 16.911 26.5322 14.9929 27.5041 12.1415ZM4.86272 11.3352C2.87191 5.02767 10.3927 1.9007 12.7318 6.95434L15.0008 11.8564L17.2694 6.95414L17.3521 6.78312C19.7795 1.97319 27.1045 5.10077 25.12 11.3891C24.5374 13.0961 23.6809 14.4168 22.2316 15.8382L22.0073 16.0571L21.5136 16.5252L21.1276 16.8712L20.6991 17.2338L20.083 17.7261L19.1526 18.4343L17.9092 19.3521L15 21.461L14.5718 21.1523L11.7886 19.1303L10.5787 18.2322L9.91365 17.7234L9.37272 17.2927L9.00446 16.9852L8.62696 16.6535L8.27751 16.33L7.76963 15.8392C6.31958 14.4175 5.46289 13.0967 4.86272 11.3352Z"/></mask><path fill-rule="evenodd" clip-rule="evenodd" d="M27.5041 12.1415C30.5809 2.39206 18.4749 -1.60359 15.0006 5.90421C11.5255 -1.60359 -0.581862 2.39214 2.4963 12.1415C3.50036 15.0885 5.13463 17.0382 7.94512 19.3282L8.50392 19.776L9.09298 20.2345L9.71317 20.7058L10.7038 21.4415L11.7693 22.2182L15.0002 24.5447L18.2313 22.2181L19.6353 21.192L20.6015 20.4683L21.206 20.0036L21.7798 19.5507L22.3238 19.1074C24.9706 16.911 26.5322 14.9929 27.5041 12.1415ZM4.86272 11.3352C2.87191 5.02767 10.3927 1.9007 12.7318 6.95434L15.0008 11.8564L17.2694 6.95414L17.3521 6.78312C19.7795 1.97319 27.1045 5.10077 25.12 11.3891C24.5374 13.0961 23.6809 14.4168 22.2316 15.8382L22.0073 16.0571L21.5136 16.5252L21.1276 16.8712L20.6991 17.2338L20.083 17.7261L19.1526 18.4343L17.9092 19.3521L15 21.461L14.5718 21.1523L11.7886 19.1303L10.5787 18.2322L9.91365 17.7234L9.37272 17.2927L9.00446 16.9852L8.62696 16.6535L8.27751 16.33L7.76963 15.8392C6.31958 14.4175 5.46289 13.0967 4.86272 11.3352Z"/><path d="M15.0006 5.90421L13.1856 6.74431L16.8157 6.74415L15.0006 5.90421ZM27.5041 12.1415L29.3971 12.7867L29.4113 12.7434L27.5041 12.1415ZM2.4963 12.1415L0.589103 12.7436L0.603162 12.7865L2.4963 12.1415ZM7.94512 19.3282L6.68178 20.8787L6.69437 20.8888L7.94512 19.3282ZM8.50392 19.776L7.25317 21.3367L7.27547 21.3543L8.50392 19.776ZM9.09298 20.2345L7.86453 21.8128L7.88288 21.8269L9.09298 20.2345ZM9.71317 20.7058L8.50307 22.2982L8.52071 22.3115L9.71317 20.7058ZM10.7038 21.4415L9.51129 23.0471L9.52577 23.0578L10.7038 21.4415ZM11.7693 22.2182L10.5913 23.8345L10.6006 23.8412L11.7693 22.2182ZM15.0002 24.5447L13.8315 26.1677L16.1689 26.1677L15.0002 24.5447ZM18.2313 22.2181L19.4 23.8412L19.4114 23.8328L18.2313 22.2181ZM19.6353 21.192L20.8154 22.8067L20.8342 22.7928L19.6353 21.192ZM20.6015 20.4683L21.8005 22.0691L21.8204 22.054L20.6015 20.4683ZM21.206 20.0036L22.4249 21.5893L22.4452 21.5735L21.206 20.0036ZM21.7798 19.5507L23.019 21.1206L23.0434 21.101L21.7798 19.5507ZM22.3238 19.1074L23.5873 20.6577L23.601 20.6464L22.3238 19.1074ZM12.7318 6.95434L14.5468 6.11424L12.7318 6.95434ZM4.86272 11.3352L2.95547 11.9372L2.96959 11.9802L4.86272 11.3352ZM15.0008 11.8564L13.1858 12.6965L16.8159 12.6964L15.0008 11.8564ZM17.2694 6.95414L15.4688 6.08373L15.4544 6.1142L17.2694 6.95414ZM17.3521 6.78312L15.5666 5.88205L15.5514 5.91271L17.3521 6.78312ZM25.12 11.3891L27.0128 12.035L27.0272 11.991L25.12 11.3891ZM22.2316 15.8382L23.6285 17.2695L23.632 17.2661L22.2316 15.8382ZM22.0073 16.0571L23.3835 17.5083L23.4042 17.4884L22.0073 16.0571ZM21.5136 16.5252L22.8486 18.0145L22.8899 17.9764L21.5136 16.5252ZM21.1276 16.8712L22.4195 18.398L22.4626 18.3605L21.1276 16.8712ZM20.6991 17.2338L21.9476 18.7963L21.991 18.7606L20.6991 17.2338ZM20.083 17.7261L21.2943 19.3176L21.3315 19.2886L20.083 17.7261ZM19.1526 18.4343L20.3404 20.0434L20.3639 20.0258L19.1526 18.4343ZM17.9092 19.3521L19.083 20.9714L19.097 20.9612L17.9092 19.3521ZM15 21.461L13.8304 23.0834L16.1738 23.0803L15 21.461ZM14.5718 21.1523L13.3962 22.7703L13.4022 22.7747L14.5718 21.1523ZM11.7886 19.1303L10.5966 20.7362L10.613 20.7483L11.7886 19.1303ZM10.5787 18.2322L9.36328 19.8206L9.38666 19.8382L10.5787 18.2322ZM9.91365 17.7234L8.66787 19.288L8.69827 19.3117L9.91365 17.7234ZM9.37272 17.2927L8.09093 18.8279L8.12694 18.8573L9.37272 17.2927ZM9.00446 16.9852L7.68417 18.4875L7.72267 18.5205L9.00446 16.9852ZM8.62696 16.6535L7.26847 18.1213L7.30668 18.1557L8.62696 16.6535ZM8.27751 16.33L6.88769 17.7682L6.91902 17.7979L8.27751 16.33ZM7.76963 15.8392L6.36943 17.2673L6.37981 17.2774L7.76963 15.8392ZM16.8157 6.74415C18.0294 4.1213 20.6893 3.46179 22.9411 4.3981C24.0565 4.86189 24.9947 5.70331 25.5232 6.84081C26.043 7.95952 26.2356 9.51546 25.5968 11.5395L29.4113 12.7434C30.311 9.89276 30.1441 7.29321 29.1508 5.15535C28.1662 3.03626 26.4377 1.51999 24.4769 0.704671C20.5763 -0.917245 15.4461 0.179322 13.1855 5.06427L16.8157 6.74415ZM4.4035 11.5393C3.76444 9.51525 3.95691 7.95941 4.47661 6.84079C5.00504 5.70339 5.94326 4.86197 7.0588 4.39815C9.31095 3.46175 11.9715 4.12137 13.1856 6.74431L16.8156 5.06411C14.5545 0.179248 9.42388 -0.917168 5.52313 0.70468C3.56221 1.51999 1.83356 3.03625 0.849004 5.15543C-0.144284 7.29339 -0.310924 9.89301 0.589103 12.7436L4.4035 11.5393ZM9.20846 17.7777C6.56736 15.6257 5.23049 13.965 4.38944 11.4965L0.603162 12.7865C1.77023 16.2119 3.70189 18.4506 6.68178 20.8787L9.20846 17.7777ZM9.75467 18.2154L9.19587 17.7675L6.69437 20.8888L7.25317 21.3367L9.75467 18.2154ZM10.3214 18.6563L9.73237 18.1978L7.27547 21.3543L7.86453 21.8128L10.3214 18.6563ZM10.9233 19.1135L10.3031 18.6422L7.88288 21.8269L8.50307 22.2982L10.9233 19.1135ZM11.8962 19.8359L10.9056 19.1002L8.52071 22.3115L9.51129 23.0471L11.8962 19.8359ZM12.9473 20.6019L11.8817 19.8253L9.52577 23.0578L10.5914 23.8344L12.9473 20.6019ZM16.1689 22.9217L12.9381 20.5952L10.6006 23.8412L13.8315 26.1677L16.1689 22.9217ZM17.0626 20.5951L13.8315 22.9217L16.1689 26.1677L19.3999 23.8411L17.0626 20.5951ZM18.4552 19.5773L17.0512 20.6034L19.4114 23.8328L20.8154 22.8067L18.4552 19.5773ZM19.4026 18.8675L18.4363 19.5912L20.8342 22.7928L21.8005 22.0691L19.4026 18.8675ZM19.9872 18.418L19.3827 18.8826L21.8204 22.054L22.4249 21.5893L19.9872 18.418ZM20.5407 17.9808L19.9669 18.4338L22.4452 21.5735L23.019 21.1206L20.5407 17.9808ZM21.0603 17.557L20.5163 18.0004L23.0434 21.101L23.5873 20.6577L21.0603 17.557ZM25.611 11.4962C24.7957 13.8883 23.5153 15.5197 21.0466 17.5683L23.601 20.6464C26.4259 18.3023 28.2686 16.0976 29.3971 12.7867L25.611 11.4962ZM14.5468 6.11424C13.7435 4.37876 12.4168 3.21488 10.8416 2.71392C9.30112 2.22398 7.67351 2.41512 6.29663 3.08682C3.45551 4.47284 1.67108 7.86786 2.95547 11.9372L6.76998 10.7332C6.06354 8.49502 7.04409 7.17278 8.05044 6.68184C8.59729 6.41506 9.16404 6.3778 9.62934 6.52578C10.06 6.66274 10.5505 7.0031 10.9168 7.79444L14.5468 6.11424ZM16.8158 11.0163L14.5468 6.11424L10.9168 7.79444L13.1858 12.6965L16.8158 11.0163ZM15.4544 6.1142L13.1858 11.0165L16.8159 12.6964L19.0845 7.79408L15.4544 6.1142ZM15.5514 5.91271L15.4688 6.08373L19.0701 7.82455L19.1528 7.65354L15.5514 5.91271ZM27.0272 11.991C28.3008 7.95551 26.5934 4.57437 23.8025 3.14432C22.4517 2.45214 20.8496 2.22902 19.3194 2.6663C17.7553 3.11327 16.4102 4.21046 15.5666 5.88205L19.1376 7.6842C19.5077 6.95082 19.9884 6.63523 20.4185 6.51234C20.8824 6.37976 21.4427 6.42969 21.9785 6.7042C22.9608 7.20753 23.9237 8.53433 23.2127 10.7872L27.0272 11.991ZM23.632 17.2661C25.2766 15.6531 26.3176 14.0721 27.0128 12.035L23.2271 10.7432C22.7573 12.1201 22.0852 13.1804 20.8312 14.4103L23.632 17.2661ZM23.4042 17.4884L23.6285 17.2695L20.8347 14.4069L20.6104 14.6258L23.4042 17.4884ZM22.8899 17.9764L23.3835 17.5083L20.6311 14.6059L20.1374 15.074L22.8899 17.9764ZM22.4626 18.3605L22.8486 18.0145L20.1787 15.036L19.7927 15.382L22.4626 18.3605ZM21.991 18.7606L22.4195 18.398L19.8357 15.3445L19.4072 15.7071L21.991 18.7606ZM21.3315 19.2886L21.9476 18.7963L19.4506 15.6714L18.8345 16.1637L21.3315 19.2886ZM20.3639 20.0258L21.2943 19.3176L18.8717 16.1347L17.9413 16.8428L20.3639 20.0258ZM19.097 20.9612L20.3404 20.0434L17.9648 16.8252L16.7214 17.743L19.097 20.9612ZM16.1738 23.0803L19.083 20.9714L16.7354 17.7328L13.8262 19.8417L16.1738 23.0803ZM13.4022 22.7747L13.8304 23.0834L16.1696 19.8386L15.7413 19.5299L13.4022 22.7747ZM10.613 20.7483L13.3962 22.7703L15.7473 19.5342L12.9641 17.5122L10.613 20.7483ZM9.38666 19.8382L10.5966 20.7362L12.9806 17.5243L11.7707 16.6263L9.38666 19.8382ZM8.69827 19.3117L9.36328 19.8206L11.794 16.6439L11.129 16.135L8.69827 19.3117ZM8.12694 18.8573L8.66787 19.288L11.1594 16.1588L10.6185 15.7281L8.12694 18.8573ZM7.72267 18.5205L8.09093 18.8279L10.6545 15.7574L10.2862 15.45L7.72267 18.5205ZM7.30668 18.1557L7.68417 18.4875L10.3247 15.4829L9.94725 15.1512L7.30668 18.1557ZM6.91902 17.7979L7.26847 18.1213L9.98545 15.1856L9.636 14.8622L6.91902 17.7979ZM6.37981 17.2774L6.88769 17.7682L9.66733 14.8918L9.15945 14.401L6.37981 17.2774ZM2.96959 11.9802C3.68079 14.0677 4.71986 15.65 6.36943 17.2673L9.16983 14.4112C7.9193 13.185 7.24498 12.1258 6.75586 10.6902L2.96959 11.9802Z" fill-opacity=".484" mask="url(#aba)"/></symbol><symbol viewBox="0 0 30 27" id="svg-add-favorites_full"><path d="M15.0006 5.90421C18.4749 -1.60359 30.5809 2.39206 27.5041 12.1415C26.5322 14.9929 24.9706 16.911 22.3238 19.1074L21.7798 19.5507L21.206 20.0036L20.6015 20.4683L19.6353 21.192L18.2313 22.2181L15.0002 24.5447L11.7693 22.2182L10.7038 21.4415L9.71317 20.7058L9.09298 20.2345L8.50392 19.776L7.94512 19.3282C5.13463 17.0382 3.50036 15.0885 2.4963 12.1415C-0.581862 2.39214 11.5255 -1.60359 15.0006 5.90421Z"/><path d="M24.0929 1.62803C21.0617 0.367613 17.2571 0.947903 15.0005 3.95566C12.7435 0.947894 8.93847 0.367649 5.90705 1.62805C4.15747 2.35548 2.62643 3.70304 1.75591 5.57677C0.881014 7.4599 0.707918 9.79857 1.5427 12.4425L1.54973 12.464C2.6353 15.6502 4.41826 17.7444 7.31345 20.1034L7.31343 20.1035L7.31975 20.1085L7.87855 20.5564L7.8897 20.5652L8.47875 21.0237L8.47871 21.0237L8.48793 21.0307L9.10812 21.502L9.10808 21.5021L9.11694 21.5086L10.1075 22.2443L10.1075 22.2444L10.1148 22.2497L11.1804 23.0263L11.1803 23.0263L11.185 23.0297L14.4158 25.3562L15.5845 25.3562L18.8156 23.0296L18.8156 23.0296L18.8213 23.0255L20.2253 21.9994L20.2254 21.9994L20.2347 21.9924L21.201 21.2687L21.201 21.2688L21.211 21.2611L21.8155 20.7965L21.8155 20.7965L21.8256 20.7886L22.3994 20.3356L22.4116 20.3259L22.9556 19.8825L22.9556 19.8825L22.9624 19.8769C25.6983 17.6066 27.4004 15.5453 28.4506 12.4641L28.4577 12.4424C29.2921 9.79843 29.1188 7.45979 28.2439 5.57671C27.3733 3.70302 25.8424 2.35547 24.0929 1.62803Z" stroke="#fff" stroke-opacity=".484" stroke-width="2" stroke-linejoin="bevel"/></symbol><symbol viewBox="0 0 14 7" id="svg-arrow-dropdown"><path fill-rule="evenodd" clip-rule="evenodd" d="M12 0L7 5L2 0H0L7 7L14 0H12Z"/></symbol><symbol viewBox="0 0 18 27" id="svg-arrow-main-slider-left"><path fill-rule="evenodd" clip-rule="evenodd" d="M17.125 27H13.125L0 13.5L13.125 0H17.125L3.87524 13.5L17.125 27Z"/></symbol><symbol viewBox="0 0 18 27" id="svg-arrow-main-slider-right"><path fill-rule="evenodd" clip-rule="evenodd" d="M0 27H4L17.125 13.5L4 0H0L13.2498 13.5L0 27Z"/></symbol><symbol viewBox="0 0 23 14" id="svg-arrow__slider_left"><path fill-rule="evenodd" clip-rule="evenodd" d="M22.8055 6.29564L3.19392 6.29564L9.50309 0L7.40239 0L0.405542 6.99498L7.40239 14H9.50309L3.19392 7.7L22.8055 7.7V6.29564Z"/></symbol><symbol viewBox="0 0 23 14" id="svg-arrow__slider_right"><path fill-rule="evenodd" clip-rule="evenodd" d="M0.487793 6.29564L20.0994 6.29564L13.7902 0L15.8909 0L22.8878 6.99498L15.8909 14H13.7902L20.0994 7.7L0.487793 7.7L0.487793 6.29564Z"/></symbol><symbol viewBox="0 0 24 24" id="svg-arrow__view-all"><path fill-rule="evenodd" clip-rule="evenodd" d="M4.82509 0.344016C9.5956 -0.114672 14.3653 -0.114672 19.1358 0.344016C21.3248 0.574512 23.4062 2.65589 23.6359 4.84407C24.0954 9.61458 24.0954 14.3851 23.6359 19.1556C23.4062 21.3445 21.3248 23.4259 19.1358 23.6556C14.3653 24.1143 9.5956 24.1143 4.82509 23.6556C2.63614 23.4259 0.554761 21.3445 0.324265 19.1556C0.149874 17.3419 0.0417857 15.5281 0 13.7144H11.8856L6.72022 18.8573H11.8648L18.7143 11.9878L11.8648 5.14291H6.72022L11.8856 10.2751H0.000233321C0.0421872 8.46479 0.150198 6.65443 0.324265 4.84407C0.554761 2.65589 2.63614 0.574512 4.82509 0.344016Z"/></symbol><symbol viewBox="0 0 30 24" id="svg-basket"><path fill-rule="evenodd" clip-rule="evenodd" d="M0 2.52632H6.02929L10.3958 16H26.464L30 4.52522H9.30518L7.83865 0H0V2.52632ZM24.6267 13.4737H12.2052L10.1239 7.05154H26.6057L24.6267 13.4737ZM17.4812 21.0526C17.4812 22.6804 16.1767 24 14.5676 24C12.9585 24 11.6541 22.6804 11.6541 21.0526C11.6541 19.4248 12.9585 18.1053 14.5676 18.1053C16.1767 18.1053 17.4812 19.4248 17.4812 21.0526ZM23.7244 24C25.3335 24 26.638 22.6804 26.638 21.0526C26.638 19.4248 25.3335 18.1053 23.7244 18.1053C22.1153 18.1053 20.8109 19.4248 20.8109 21.0526C20.8109 22.6804 22.1153 24 23.7244 24Z"/></symbol><symbol viewBox="0 0 53 43" id="svg-basket-empty"><path opacity=".503" fill-rule="evenodd" clip-rule="evenodd" d="M10.6571 0C14.8992 0 18.3387 3.4278 18.3387 7.65455C18.3387 11.8823 14.8992 15.3091 10.6571 15.3091C6.41591 15.3091 2.97642 11.8823 2.97642 7.65455C2.97742 3.4278 6.41591 0 10.6571 0ZM42.3429 0C46.5851 0 50.0215 3.4278 50.0215 7.65455C50.0215 11.8823 46.5841 15.3091 42.3429 15.3091C38.0997 15.3091 34.6622 11.8823 34.6622 7.65455C34.6622 3.4278 38.1007 0 42.3429 0ZM26.5 23.3876C15.7932 23.3876 5.96841 29.2213 0.861357 38.6087C0.0757331 40.0537 0.613529 41.8586 2.06337 42.6405C3.51422 43.4225 5.32426 42.8865 6.10788 41.4426C10.1725 33.975 17.9855 29.3343 26.5 29.3343C35.0144 29.3343 42.8275 33.975 46.8931 41.4436C47.6767 42.8875 49.4908 43.4225 50.9376 42.6395C52.3864 41.8566 52.9242 40.0507 52.1386 38.6087C47.0306 29.2203 37.2067 23.3876 26.5 23.3876Z"/></symbol><symbol viewBox="0 0 29 19" id="svg-burger"><path fill-rule="evenodd" clip-rule="evenodd" d="M29 0H0V3H29V0ZM29 8H0V11H29V8ZM0 16H29V19H0V16Z"/></symbol><symbol viewBox="0 0 24 24" id="svg-cabinet"><path fill-rule="evenodd" clip-rule="evenodd" d="M24 21.0964C24 19.1673 22.6869 17.4859 20.8158 17.0185L16.2181 15.8695L16.2243 15.2833C16.2296 14.7569 16.4483 14.2325 16.8468 13.7958C18.1591 12.3574 18.7991 10.9712 19.0069 9.35909C19.085 8.75304 19.0997 8.29281 19.0997 7.25245C19.0997 3.27444 15.9693 0.0724969 12.0236 0C8.03086 0.0724936 4.90032 3.27426 4.90032 7.25147C4.90032 8.29184 4.91499 8.75207 4.99311 9.35811C5.20091 10.9702 5.84088 12.3564 7.15313 13.7947C7.55171 14.2315 7.77044 14.7559 7.77571 15.2817L7.78189 15.8685L3.18407 17.0175C1.31261 17.4864 0 19.1677 0 21.0964V22.7143C0 23.4244 0.575634 24 1.28571 24H22.7143C23.4244 24 24 23.4244 24 22.7143V21.0964ZM20.2696 19.5839C21.0027 19.7671 21.5172 20.426 21.5172 21.182V21.5172H2.48276V21.182C2.48276 20.4259 2.99753 19.7666 3.73123 19.5828L8.61295 18.3628C9.63691 18.1074 10.3517 17.1815 10.3403 16.1262L10.3315 15.286C10.3195 14.0978 9.84557 12.9616 9.02493 12.0623C8.06062 11.0054 7.64328 10.1014 7.50153 9.00171C7.44163 8.53702 7.42917 8.14605 7.42917 7.20713C7.42917 4.60514 9.45829 2.5299 12.0238 2.48276C14.5418 2.5299 16.5708 4.60526 16.5708 7.20812C16.5708 8.14704 16.5584 8.538 16.4985 9.00269C16.3567 10.1024 15.9394 11.0064 14.975 12.0633C14.1544 12.9626 13.6805 14.0988 13.6685 15.2876L13.6597 16.1276C13.6483 17.1833 14.3629 18.1084 15.3876 18.364L20.2696 19.5839Z"/></symbol><symbol viewBox="0 0 24 18" id="svg-cat-link-icon-1"><path fill-rule="evenodd" clip-rule="evenodd" d="M0.750187 13.1247C0.750187 13.9533 1.42165 14.6247 2.25016 14.6247L2.25034 16.1247C2.25034 16.953 2.9218 17.6247 3.75032 17.6247H6.75031C7.57864 17.6247 8.25028 16.953 8.25028 16.1247V14.6247H15.7499V16.1247C15.7499 16.953 16.4216 17.6247 17.2499 17.6247H20.2499C21.0784 17.6247 21.7499 16.953 21.7499 16.1247V14.6247C22.5784 14.6247 23.2498 13.9533 23.2498 13.1247V10.3094C23.2498 10.1255 23.2272 9.9423 23.1826 9.76389L22.8413 8.3982C22.7785 8.14705 22.6812 7.91155 22.5554 7.6965L23.4318 7.47754C23.8336 7.37705 24.0778 6.96988 23.9775 6.56807C23.877 6.1661 23.4698 5.92188 23.0678 6.02238L21.6575 6.37492H20.7804L19.4134 2.50193C18.8842 1.00268 17.4671 0 15.8773 0H8.12269C6.53288 0 5.11578 1.00264 4.58661 2.50193L3.21965 6.37492H2.34255L0.932191 6.02238C0.530161 5.92188 0.123032 6.16608 0.0225358 6.56807C-0.0778237 6.96992 0.166418 7.37705 0.568229 7.47754L1.4446 7.6965C1.31884 7.91152 1.22155 8.14705 1.15876 8.3982L0.817424 9.76389C0.772777 9.94227 0.750187 10.1255 0.750187 10.3094V13.1247ZM17.9993 3.00078L19.1901 6.37466H4.81051L6.00135 3.00078C6.31886 2.10128 7.16909 1.49972 8.12301 1.49972H15.8776C16.8316 1.49972 17.6818 2.10128 17.9993 3.00078ZM16.9876 13.1243H21.7501V10.309C21.7501 10.2478 21.7426 10.1866 21.7277 10.1272L21.3863 8.76152C21.256 8.24018 20.7875 7.87449 20.2501 7.87449H3.75044C3.21308 7.87449 2.74457 8.24019 2.6142 8.76152L2.27286 10.1272C2.25792 10.1866 2.25045 10.2478 2.25045 10.309V13.1243H7.01297L8.315 10.1948C8.43542 9.92389 8.70401 9.7494 9.00035 9.7494H15.0005C15.2969 9.7494 15.5654 9.92389 15.6859 10.1948L16.9876 13.1243ZM17.2501 14.6243H20.2501V16.1243H17.2501V14.6243ZM8.65409 13.1243H15.3459L14.5126 11.2494H9.48733L8.65409 13.1243ZM3.74995 16.1243V14.6243H6.74994V16.1243H3.74995ZM19.4996 11.2494C18.8783 11.2494 18.3746 10.7457 18.3746 10.1243C18.3746 9.50302 18.8783 8.99949 19.4996 8.99949C20.121 8.99949 20.6245 9.50307 20.6245 10.1243C20.6245 10.7456 20.1209 11.2494 19.4996 11.2494ZM3.37506 10.1243C3.37506 10.7457 3.87859 11.2494 4.49991 11.2494C5.12124 11.2494 5.62495 10.7456 5.62495 10.1243C5.62495 9.50307 5.1212 8.99949 4.49991 8.99949C3.87863 8.99949 3.37506 9.50302 3.37506 10.1243Z"/></symbol><symbol viewBox="0 0 24 22" id="svg-cat-link-icon-10"><path fill-rule="evenodd" clip-rule="evenodd" d="M11.294 18.2083V15.5294H0.70578C0.315945 15.5294 0 15.2132 0 14.8234V0.705931C0 0.315983 0.315964 0 0.70578 0H23.2942C23.6841 0 24 0.315964 24 0.705931V14.8234C24 15.2133 23.684 15.5294 23.2942 15.5294H12.706V18.2083L17.1788 19.8057C17.5458 19.9369 17.7373 20.3407 17.6061 20.7079C17.4749 21.075 17.0711 21.2663 16.7039 21.1353L12.0001 19.4553L7.29626 21.1353C6.92904 21.2663 6.52518 21.075 6.39403 20.7079C6.26286 20.3407 6.4543 19.9368 6.82138 19.8057L11.294 18.2083ZM1.41179 1.41164V14.1175H22.5882V1.41164H1.41179ZM21.1765 12C21.1765 11.6102 20.8604 11.2942 20.4706 11.2942H18.3529C17.9631 11.2942 17.647 11.6102 17.647 12C17.647 12.39 17.9631 12.7059 18.3529 12.7059H20.4706C20.8604 12.7059 21.1765 12.3899 21.1765 12Z"/></symbol><symbol viewBox="0 0 26 20" id="svg-cat-link-icon-11"><path fill-rule="evenodd" clip-rule="evenodd" d="M3.62403 14.4894C1.57608 14.2058 0 12.4488 0 10.3235C0 8.13306 1.67447 6.3336 3.81309 6.13563C5.30679 2.53351 8.85746 0 13 0C17.1425 0 20.693 2.53355 22.1869 6.13563C24.3257 6.33367 26 8.13306 26 10.3235C26 12.4489 24.4235 14.206 22.376 14.4894C21.2736 18.1115 18.4529 19.8822 13 19.8822C7.54706 19.8822 4.72643 18.1114 3.62403 14.4891V14.4894ZM1.52936 10.3235C1.52936 11.4623 2.24057 12.435 3.24317 12.8216C3.11549 11.9636 3.05876 11.0169 3.05876 9.94117C3.05876 9.21704 3.13638 8.50304 3.28829 7.80836C2.26207 8.18298 1.52939 9.16771 1.52939 10.3235H1.52936ZM22.7117 7.80836C23.7379 8.18298 24.4706 9.16771 24.4706 10.3235H24.4707C24.4707 11.4623 23.7594 12.435 22.7569 12.8216C22.8845 11.9634 22.9413 11.0169 22.9413 9.94117C22.9413 9.21704 22.8636 8.50304 22.7117 7.80836ZM14.5294 4.97046C14.5294 3.99126 13.9307 2.83968 12.684 1.53504C8.18484 1.70131 4.58829 5.40124 4.58829 9.94121C4.58829 12.7429 5.00675 14.6279 6.05325 15.9569C7.2878 17.5247 9.48228 18.353 13.0001 18.353C16.5179 18.353 18.7123 17.5247 19.9469 15.9569C20.9934 14.628 21.4119 12.743 21.4119 9.94121C21.4119 5.92867 18.6025 2.57244 14.8431 1.7319C15.6472 2.84618 16.0588 3.92318 16.0588 4.97057C16.0588 7.10424 14.8807 8.02936 13 8.02936C11.4582 8.02936 10.3236 6.7987 10.3236 5.35288C10.3236 4.42765 10.7414 3.71469 11.5356 3.3524C11.9198 3.17713 12.3734 3.34645 12.5486 3.73081C12.7239 4.11502 12.5546 4.56857 12.1704 4.74396C11.9449 4.84668 11.8529 5.00367 11.8529 5.35292C11.8529 5.98056 12.3319 6.5 13 6.5C14.106 6.5 14.5294 6.1676 14.5294 4.97061L14.5294 4.97046ZM15.4333 14.7338C15.1347 14.4352 14.6504 14.4352 14.3518 14.7338H14.3519C13.6053 15.4805 12.3949 15.4805 11.6483 14.7338C11.3497 14.4352 10.8654 14.4352 10.5668 14.7338C10.2682 15.0326 10.2682 15.5167 10.5668 15.8153C11.9105 17.1591 14.0894 17.1591 15.4333 15.8153C15.7319 15.5167 15.7319 15.0326 15.4333 14.7338ZM16.25 11.8527C15.722 11.8527 15.2941 11.4247 15.2941 10.8968C15.2941 10.3688 15.722 9.94099 16.25 9.94099C16.7779 9.94099 17.2058 10.3689 17.2058 10.8968C17.2058 11.4247 16.7779 11.8527 16.25 11.8527ZM8.79412 10.8968C8.79412 11.4247 9.22197 11.8527 9.74996 11.8527C10.2779 11.8527 10.7058 11.4247 10.7058 10.8968C10.7058 10.3689 10.2779 9.94099 9.74996 9.94099C9.22201 9.94099 8.79412 10.3688 8.79412 10.8968Z"/></symbol><symbol viewBox="0 0 23 23" id="svg-cat-link-icon-12"><path fill-rule="evenodd" clip-rule="evenodd" d="M11.5 0C17.8513 0 23 5.14871 23 11.5C23 17.8513 17.8513 23 11.5 23C5.14871 23 0 17.8513 0 11.5C0 5.14871 5.14871 0 11.5 0ZM18.5276 18.9233C20.3967 17.1545 21.5411 14.7467 21.7025 12.1387H15.3529C15.5143 14.7465 16.6587 17.1543 18.5276 18.9233ZM21.7026 10.861H15.353C15.5144 8.25293 16.6588 5.84516 18.5277 4.07638C20.3968 5.84533 21.5412 8.2531 21.7026 10.861ZM1.29745 12.1387C1.45884 14.7465 2.60323 17.1543 4.47231 18.9233C6.34122 17.1545 7.4856 14.7467 7.64701 12.1387H1.29745ZM7.64709 10.861H1.29753C1.45894 8.25293 2.60331 5.84516 4.47239 4.07638C6.34131 5.84533 7.48569 8.2531 7.64709 10.861ZM14.0731 12.1387H8.92688C8.7666 15.0517 7.51554 17.7494 5.45921 19.7471C7.15148 20.9889 9.24004 21.7223 11.5 21.7223C13.76 21.7223 15.8486 20.9889 17.5408 19.7471C15.4845 17.7497 14.2334 15.0519 14.0731 12.1387ZM17.5408 3.25249C15.4845 5.2502 14.2334 7.94794 14.0731 10.861H8.92688C8.76657 7.94777 7.5155 5.24991 5.45921 3.25249C7.15136 2.01069 9.24004 1.27736 11.5 1.27736C13.76 1.27736 15.8485 2.01073 17.5408 3.25249Z"/></symbol><symbol viewBox="0 0 24 19" id="svg-cat-link-icon-13"><path fill-rule="evenodd" clip-rule="evenodd" d="M2.89423 7.34158C2.45243 5.40715 2.98007 3.34995 4.36506 1.86019C4.37548 1.84909 4.55339 1.66888 4.60173 1.62339C6.97997 -0.590626 10.7053 -0.540263 13.0217 1.77611L13.3712 2.12557L13.7207 1.77611C16.0342 -0.537414 19.7535 -0.590481 22.1725 1.65317C22.1891 1.66888 22.3303 1.81009 22.3808 1.86371C24.5909 4.24316 24.5387 7.96277 22.223 10.2785L13.8758 18.6257C13.5972 18.9044 13.1454 18.9044 12.8666 18.6257L9.98156 15.7406L7.0964 18.6257C6.81775 18.9044 6.36594 18.9044 6.08729 18.6257L1.09706 13.6355C-0.363479 12.175 -0.367258 9.80538 1.09516 8.33642C1.60926 7.82475 2.23522 7.49332 2.89445 7.34195L2.89423 7.34158ZM4.35705 7.29758C5.10065 7.42174 5.81405 7.77064 6.38774 8.34433L6.59178 8.54823L6.79569 8.34433C8.25702 6.88299 10.6258 6.88015 12.0948 8.34243C13.5508 9.80526 13.547 12.1746 12.0865 13.6353L10.9906 14.7313L13.371 17.1117L21.2136 9.26918C22.9821 7.5005 23.0241 4.66126 21.3039 2.80444C21.2741 2.77221 21.1803 2.67933 21.1442 2.64616C19.3245 0.975886 16.493 1.02209 14.7298 2.78521L13.8757 3.63931C13.597 3.91809 13.1452 3.91809 12.8664 3.63931L12.0123 2.78521C10.2491 1.02194 7.41723 0.97591 5.5611 2.68258C5.52441 2.7163 5.43897 2.80119 5.41365 2.82854C4.28621 4.03872 3.89977 5.73918 4.35703 7.29746L4.35705 7.29758ZM6.59165 17.1117L2.10609 12.6261L2.10598 12.6261C1.20046 11.7206 1.19935 10.2502 2.10409 9.34544C3.00245 8.44695 4.47231 8.44747 5.37854 9.35369L6.08706 10.0622C6.3657 10.3409 6.81751 10.3409 7.09616 10.0622L7.80482 9.35369C8.71101 8.44748 10.1807 8.44693 11.0855 9.35166C11.9838 10.2502 11.9829 11.7206 11.0772 12.6261L6.59165 17.1117Z"/></symbol><symbol viewBox="0 0 24 21" id="svg-cat-link-icon-14"><path fill-rule="evenodd" clip-rule="evenodd" d="M16.1245 0.0309526C17.6921 0.307257 18.4763 2.30564 18.104 4.41776C17.7315 6.52992 16.3111 8.13937 14.7435 7.86296C13.1758 7.58666 12.3916 5.58828 12.764 3.47615C13.1365 1.36399 14.5569 -0.245457 16.1245 0.0309526ZM11.2357 3.47623C10.8632 1.36411 9.44279 -0.245352 7.87516 0.0310274C6.30752 0.307437 5.52335 2.30564 5.89568 4.41784C6.26818 6.52996 7.68856 8.13942 9.2562 7.86304C10.8238 7.58663 11.608 5.58843 11.2357 3.47623ZM13.9084 20.6093L13.6956 20.5318H13.6957C13.0567 20.2994 12.6644 20.2138 11.9998 20.2138C11.3353 20.2138 10.9429 20.2994 10.3039 20.5318L10.0911 20.6093C9.45656 20.8382 9.01256 20.9367 8.385 20.9367C6.36089 20.9367 4.77016 19.3438 4.77016 16.9603C4.77016 13.4122 8.31832 9.73066 11.9998 9.73066C15.6812 9.73066 19.2294 13.4121 19.2294 16.9603C19.2294 19.2325 17.5873 20.9367 15.6145 20.9367C14.987 20.9367 14.543 20.8382 13.9084 20.6093ZM9.60016 19.2492C9.64433 19.2332 9.80097 19.176 9.80974 19.1728H9.80939C10.5937 18.8876 11.1429 18.7679 11.9995 18.7679C12.856 18.7679 13.4052 18.8876 14.1895 19.1728C14.1983 19.176 14.3549 19.2332 14.3991 19.2492C14.8896 19.4263 15.1807 19.4908 15.6143 19.4908C16.7763 19.4908 17.7833 18.4457 17.7833 16.9604C17.7833 14.1992 14.8702 11.1767 11.9996 11.1767C9.1291 11.1767 6.21595 14.199 6.21595 16.9604C6.21595 18.5457 7.15985 19.4908 8.38498 19.4908C8.81861 19.4908 9.10963 19.4263 9.60016 19.2492ZM8.12642 1.45505C7.53133 1.55991 7.0683 2.73986 7.31985 4.16665C7.57141 5.59359 8.41013 6.54391 9.00524 6.43891C9.60033 6.33404 10.0635 5.15409 9.8118 3.7273C9.56024 2.30036 8.72152 1.35004 8.12642 1.45505ZM14.1882 3.72734C14.4397 2.3004 15.2784 1.35007 15.8735 1.45508C16.4687 1.55994 16.9317 2.73986 16.6801 4.16669C16.4286 5.59363 15.5898 6.54396 14.9947 6.43894C14.3996 6.33408 13.9365 5.15416 14.1882 3.72734ZM23.0498 10.0592C24.2531 8.40277 24.3656 6.32355 23.0873 5.39494C21.8091 4.46625 19.8664 5.21578 18.6631 6.87205C17.4596 8.52845 17.3473 10.6077 18.6254 11.5363C19.9036 12.465 21.8463 11.7154 23.05 10.0592H23.0498ZM22.2375 6.5647C21.7389 6.20244 20.6242 6.63254 19.8327 7.72196H19.8327C19.0412 8.81138 18.9767 10.0043 19.4753 10.3664C19.9737 10.7287 21.0884 10.2986 21.8799 9.20918C22.6714 8.11991 22.7359 6.92682 22.2375 6.5647ZM2.12 9.20918C1.32849 8.11991 1.26402 6.92682 1.76242 6.5647C2.26097 6.20244 3.3757 6.63256 4.16717 7.72196C4.95869 8.81138 5.02316 10.0043 4.52461 10.3664C4.02621 10.7287 2.91148 10.2986 2.11997 9.20918H2.12ZM0.912647 5.39486C2.1908 4.46617 4.13355 5.21571 5.3369 6.87197H5.33712C6.54062 8.5283 6.65293 10.6075 5.37486 11.5362C4.09648 12.4649 2.15373 11.7154 0.950233 10.0591C-0.253113 8.40277 -0.365582 6.32355 0.912647 5.39486Z"/></symbol><symbol viewBox="0 0 25 20" id="svg-cat-link-icon-15"><path fill-rule="evenodd" clip-rule="evenodd" d="M8.0879 15.0737V2.20616L8.08812 2.20594C8.08812 1.79982 8.41736 1.47058 8.82348 1.47058C9.2296 1.47058 9.55884 1.79983 9.55884 2.20594V2.94116C9.55884 3.34728 9.88794 3.67652 10.2941 3.67652C10.7002 3.67652 11.0294 3.34727 11.0294 2.94116V2.20594C11.0294 0.987577 10.0418 0 8.82348 0C7.60511 0 6.61754 0.987613 6.61754 2.20594V13.6031H0.735361C0.329245 13.6031 0 13.9324 0 14.3384V15.0737C0 17.3071 1.81055 19.1177 4.04395 19.1177C6.27736 19.1177 8.0879 17.3073 8.0879 15.0737ZM12.4998 7.35333H24.2645C24.712 7.35333 25.0558 7.74969 24.9925 8.19262L23.7023 17.2241C23.547 18.3107 22.6163 19.1179 21.5185 19.1179H15.2456C14.148 19.1179 13.2171 18.3107 13.062 17.2241L11.7717 8.19262C11.7085 7.74969 12.0522 7.35333 12.4996 7.35333H12.4998ZM14.5179 17.0162C14.5697 17.3784 14.88 17.6475 15.2458 17.6475H21.5187C21.8846 17.6475 22.1949 17.3784 22.2466 17.0162L23.4168 8.82405H13.3479L14.5179 17.0162ZM1.47015 15.0737C1.47015 16.4951 2.62237 17.6473 4.0437 17.6473C5.46503 17.6473 6.61725 16.4951 6.61725 15.0737H1.47015ZM18.7899 5.75907C19.1278 5.53389 19.2191 5.07727 18.9938 4.73938C18.6683 4.25109 18.6683 3.83759 18.9938 3.3493C19.6487 2.36705 19.6487 1.30997 18.9938 0.327677C18.7685 -0.0102143 18.312 -0.101593 17.9741 0.123715C17.6362 0.349038 17.545 0.805508 17.7702 1.1434C18.0958 1.63169 18.0958 2.04519 17.7702 2.53362C17.1153 3.51588 17.1153 4.57295 17.7702 5.55525C17.9955 5.89314 18.452 5.98438 18.7899 5.75907ZM22.6703 4.73938C22.8956 5.07727 22.8042 5.53389 22.4663 5.75907C22.1284 5.98438 21.6719 5.89314 21.4466 5.55525C20.7918 4.57295 20.7918 3.51588 21.4466 2.53362C21.7722 2.04519 21.7722 1.63169 21.4466 1.1434C21.2215 0.805508 21.3127 0.349038 21.6506 0.123715C21.9885 -0.101593 22.445 -0.0102143 22.6703 0.327677C23.3251 1.30997 23.3251 2.36705 22.6703 3.3493C22.3448 3.83759 22.3448 4.25109 22.6703 4.73938ZM15.1134 5.75907C15.4513 5.53389 15.5427 5.07727 15.3174 4.73938C14.9919 4.25109 14.9919 3.83759 15.3174 3.3493C15.9722 2.36705 15.9722 1.30997 15.3174 0.327677C15.0922 -0.0102143 14.6356 -0.101593 14.2977 0.123715C13.9598 0.349038 13.8686 0.805508 14.0937 1.1434C14.4193 1.63169 14.4193 2.04519 14.0937 2.53362C13.4389 3.51588 13.4389 4.57295 14.0937 5.55525C14.319 5.89314 14.7755 5.98438 15.1134 5.75907Z"/></symbol><symbol viewBox="0 0 24 16" id="svg-cat-link-icon-16"><path fill-rule="evenodd" clip-rule="evenodd" d="M11.0328 11.9203C11.6714 11.7709 12.2357 11.4965 12.7059 11.1113V12.0006L12.7057 12.0006C12.7057 12.3073 12.9037 12.5788 13.1955 12.6727L23.0781 15.8492C23.5338 15.9956 24 15.6558 24 15.1772V11.6477C24 11.3412 23.8021 11.0696 23.5101 10.9757L14.1145 7.95567L14.1133 7.9283L23.5101 4.90791C23.8021 4.81403 24 4.54242 24 4.23584V0.70642C24 0.227751 23.5338 -0.112024 23.0781 0.0343431L13.1955 3.21089C12.9037 3.30464 12.7057 3.57624 12.7057 3.88296L12.7059 3.883V5.12303C12.0347 4.56877 11.174 4.2358 10.2356 4.2358C9.65753 4.2358 9.10895 4.36214 8.61597 4.58871H8.11779C5.62389 4.58871 3.40825 3.14187 2.38995 0.907748C2.17004 0.425479 1.51686 0.348576 1.19086 0.766585C0.423848 1.7507 0.000106041 2.96182 0.000106041 4.23566C0.000106041 7.23769 2.34259 9.6927 5.29952 9.87239C4.62565 10.109 3.90182 10.2357 3.16243 10.2357C2.47349 10.2357 1.78763 10.1346 0.862448 9.92422C0.399174 9.81895 -0.0336888 10.1919 0.00207167 10.6657C0.223324 13.5997 2.67437 15.883 5.63288 15.883C7.76572 15.883 9.65602 14.6914 10.6153 12.8975C10.8533 12.4525 11.0328 11.9203 11.0328 11.9203ZM10.2353 5.6474C9.8912 5.6474 9.56352 5.71775 9.26586 5.84486C9.18859 5.90702 9.09794 5.95325 8.99892 5.97854C8.26101 6.40588 7.76458 7.20399 7.76458 8.11802C7.76458 8.50909 7.85512 8.8857 8.02642 9.22629C8.17948 9.53072 8.09325 9.90117 7.8215 10.1066C6.52147 11.0894 4.87519 11.6475 3.16236 11.6475C2.65263 11.6475 2.15668 11.6025 1.60704 11.5119C1.60704 11.5119 1.6922 11.9314 2.05234 12.4995C2.80503 13.6874 4.13204 14.471 5.63285 14.471C7.62943 14.471 9.34309 13.0784 9.76844 11.155C9.83259 10.8645 10.0722 10.6455 10.3672 10.6074C11.1383 10.5079 11.7395 10.1835 12.1501 9.67951L12.1708 9.65367C12.5156 9.21988 12.7059 8.68443 12.7059 8.11802C12.7059 6.75354 11.5998 5.6474 10.2353 5.6474ZM6.35306 8.11802C6.35306 7.30412 6.60355 6.54872 7.03165 5.92468C4.86362 5.61972 2.95018 4.41217 1.7392 2.62343C1.7392 2.62343 1.63353 2.7327 1.50174 3.36298C1.44228 3.64676 1.41174 3.93888 1.41174 4.2358C1.41174 6.57497 3.30801 8.47117 5.64711 8.47117L5.64738 8.47103C5.88978 8.47103 6.12924 8.45074 6.36401 8.41079C6.35675 8.3138 6.35306 8.21618 6.35306 8.11802ZM22.5888 3.72106L22.5882 1.67703L14.1177 4.39475V6.44174L22.5888 3.72106ZM22.5888 12.1625L22.5882 14.2066L14.1177 11.4889V9.44174L22.5888 12.1625ZM10.2353 9.17688C10.8201 9.17688 11.294 8.70277 11.294 8.11802C11.294 7.53327 10.8201 7.05916 10.2353 7.05916C9.65043 7.05916 9.17646 7.53327 9.17646 8.11802C9.17646 8.70277 9.65043 9.17688 10.2353 9.17688Z"/></symbol><symbol viewBox="0 0 24 21" id="svg-cat-link-icon-17"><path fill-rule="evenodd" clip-rule="evenodd" d="M8.47066 7.06458C8.41212 7.06066 8.35329 7.05877 8.29417 7.05877C7.52723 7.05877 6.83641 7.38486 6.353 7.90603C5.86944 7.38484 5.17877 7.05877 4.41183 7.05877C2.94986 7.05877 1.7647 8.24389 1.7647 9.70575C1.7647 10.152 1.87509 10.5723 2.07002 10.9412H0.705773C0.316073 10.9412 0 11.2571 0 11.6469V14.4705C0 14.8604 0.316073 15.1765 0.705773 15.1765V20.1176C0.705773 20.5075 1.02185 20.8235 1.41169 20.8235H22.2353C22.6252 20.8235 22.9413 20.5075 22.9413 20.1176V10.2353H23.2942C23.6839 10.2353 24 9.91923 24 9.52938V6C24 5.61015 23.6839 5.29408 23.2942 5.29408H21.6165C22.0062 4.74634 22.2353 4.07641 22.2353 3.3529C22.2353 1.5012 20.7341 0 18.8824 0C17.8064 0 16.8489 0.506795 16.2353 1.29464C15.6218 0.506758 14.6642 0 13.5882 0C11.7365 0 10.2353 1.5012 10.2353 3.3529C10.2353 4.07641 10.4643 4.74634 10.8541 5.29408H9.17639C8.78654 5.29408 8.47062 5.61015 8.47062 6L8.47066 7.06458ZM8.47066 8.48285V9.52928C8.47066 9.91913 8.78658 10.2352 9.17643 10.2352H9.5294V10.9411H7.05878V9.70572C7.05878 9.02345 7.61191 8.47047 8.29418 8.47047C8.35374 8.47047 8.41271 8.47468 8.47067 8.48282L8.47066 8.48285ZM10.9413 10.2354V19.4119H21.5293V10.2354H10.9413ZM1.41185 12.3531H9.52935V13.7648H1.41185V12.3531ZM2.11762 19.4119H9.52935V15.1767L2.11762 15.1751V19.4119ZM22.5884 6.70578V8.82343H9.88224V6.70578H22.5884ZM11.6469 3.35273C11.6469 4.42485 12.516 5.2939 13.5881 5.2939H15.5293V3.35273C15.5293 2.28076 14.6602 1.41155 13.5881 1.41155C12.516 1.41155 11.6469 2.28076 11.6469 3.35273ZM4.41157 10.9412C3.7293 10.9412 3.17617 10.3881 3.17617 9.7058C3.17617 9.02353 3.7293 8.47055 4.41157 8.47055C5.09369 8.47055 5.64682 9.02353 5.64682 9.7058V10.9412H4.41157ZM18.8823 1.41167C17.8101 1.41167 16.9411 2.28087 16.9411 3.35284V5.29401H18.8823C19.9542 5.29401 20.8234 4.42496 20.8234 3.35284C20.8234 2.28087 19.9542 1.41167 18.8823 1.41167ZM13.3274 12.1449L13.2034 12.2688C12.3773 13.095 12.3778 14.4353 13.2038 15.2612L15.7361 17.7934C16.0116 18.0691 16.4586 18.0691 16.7343 17.7934L19.2665 15.2612C20.0925 14.4353 20.093 13.095 19.2669 12.2688L19.1429 12.1449C18.3463 11.3483 17.0655 11.3206 16.2352 12.0651C15.4049 11.3206 14.1241 11.3483 13.3275 12.1449H13.3274ZM14.2017 13.2671C13.9271 13.5418 13.9272 13.988 14.202 14.263L16.2351 16.296L18.2681 14.263C18.5431 13.988 18.5432 13.5418 18.2685 13.2671L18.1446 13.1431C17.8714 12.8699 17.4227 12.8696 17.1488 13.1435L16.7342 13.5581C16.4585 13.8337 16.0116 13.8337 15.736 13.5581L15.3215 13.1435C15.0476 12.8696 14.5989 12.8699 14.3256 13.1431L14.2017 13.2671Z"/></symbol><symbol viewBox="0 0 24 29" id="svg-cat-link-icon-2"><path fill-rule="evenodd" clip-rule="evenodd" d="M22.3448 6.20682H19.8619V5.79301C19.8619 5.33608 19.4916 4.96552 19.0345 4.96552C18.5773 4.96552 18.207 5.33609 18.207 5.79301V8.27586C18.207 8.7328 18.5773 9.10336 19.0345 9.10336C19.4916 9.10336 19.8619 8.73279 19.8619 8.27586V7.86192H22.3448V27.3101C22.3448 27.767 22.7154 28.1376 23.1723 28.1376C23.6294 28.1376 24 27.767 24 27.3101V0.8275C24 0.370563 23.6294 0 23.1723 0C22.7154 0 22.3448 0.370573 22.3448 0.8275V6.20682ZM5.793 10.7582H0.827701C0.370579 10.7582 0 10.3877 0 9.93075V7.03417C0 6.7641 0.131699 6.51111 0.353093 6.35626L4.49094 3.45968C4.6301 3.36233 4.79575 3.31012 4.96553 3.31012H14.8966C15.3536 3.31012 15.7241 3.68068 15.7241 4.13762V9.93097C15.7241 10.3879 15.3536 10.7585 14.8966 10.7585H10.7586V26.4824C10.7586 26.9395 10.3883 27.3101 9.93113 27.3101H6.62078C6.16366 27.3101 5.79308 26.9396 5.79308 26.4824L5.793 10.7582ZM7.44815 15.7237V25.6548H9.1033V15.7237H7.44815ZM7.44815 14.0686V10.7582H9.1033V14.0686H7.44815ZM5.22633 4.9654L1.65515 7.46513V9.10325H14.0689V4.9654H5.22633Z"/></symbol><symbol viewBox="0 0 23 24" id="svg-cat-link-icon-3"><path fill-rule="evenodd" clip-rule="evenodd" d="M22.3643 7.9546C22.3839 7.97285 22.4025 7.99227 22.4199 8.01286C22.5403 8.15298 22.5935 8.32391 22.5881 8.49097V21.882C22.5881 22.1971 22.3792 22.4741 22.076 22.5607L17.1527 23.9674C17.1208 23.9773 17.0882 23.985 17.0547 23.9905C17.0078 23.9982 16.9611 24.0012 16.9153 23.9996H0.70598C0.316082 23.9996 0 23.6835 0 23.2937V9.88215C0 9.68946 0.0788479 9.50514 0.217965 9.37207L8.30761 1.63428C8.37708 1.55995 8.4643 1.49935 8.56759 1.45967L13.5707 0.0271395C13.8118 -0.041667 14.0714 0.0224523 14.2525 0.195721L22.3643 7.9546ZM1.41163 10.1837V22.5877H16.2349V10.1837L8.82328 3.0943L1.41163 10.1837ZM13.5692 1.49549L20.5048 8.12972L17.1361 9.09215L10.2006 2.45792L13.5692 1.49549ZM17.6466 22.3582L21.1762 21.3497V9.40638L17.6466 10.4148V22.3582ZM11.5688 16.5704C11.293 16.2946 10.8461 16.2946 10.5705 16.5704H10.5706C9.60572 17.5351 8.04145 17.5351 7.07665 16.5704C6.80091 16.2946 6.35412 16.2946 6.07839 16.5704C5.80267 16.8461 5.80267 17.2929 6.07839 17.5686C7.59449 19.0848 10.0525 19.0848 11.5688 17.5686C11.8443 17.2929 11.8443 16.8461 11.5688 16.5704ZM6.35298 14.1175C5.7682 14.1175 5.29411 13.6435 5.29411 13.0588C5.29411 12.4741 5.7682 11.9999 6.35298 11.9999C6.93776 11.9999 7.41167 12.474 7.41167 13.0588C7.41167 13.6436 6.93771 14.1175 6.35298 14.1175ZM10.2351 13.0588C10.2351 13.6435 10.7092 14.1175 11.2939 14.1175C11.8787 14.1175 12.3528 13.6436 12.3528 13.0588C12.3528 12.474 11.8787 11.9999 11.2939 11.9999C10.7092 11.9999 10.2351 12.4741 10.2351 13.0588Z"/></symbol><symbol viewBox="0 0 24 22" id="svg-cat-link-icon-4"><path fill-rule="evenodd" clip-rule="evenodd" d="M17.8752 17.647H6.1249L4.89073 20.7327C4.78349 21.0006 4.52395 21.1764 4.23531 21.1764H0.705784C0.315947 21.1764 0 20.8604 0 20.4705V8.11773C0 6.36329 1.42204 4.94125 3.17648 4.94125C3.8294 4.94125 4.43634 5.1383 4.9411 5.47614V2.82359C4.9411 1.26417 6.20526 0 7.76469 0H16.2353C17.7947 0 19.0589 1.26417 19.0589 2.82359V5.47614C19.5637 5.13832 20.1706 4.94125 20.8235 4.94125C22.578 4.94125 24 6.36329 24 8.11773V20.4705C24 20.8604 23.684 21.1764 23.2942 21.1764H19.7647C19.4761 21.1764 19.2165 21.0006 19.1093 20.7327L17.8752 17.647ZM1.41198 17.647V19.7647H3.75755L4.60469 17.647H1.41198ZM22.5885 16.2352H1.41198V14.1175H22.5885V16.2352ZM4.94136 8.11773C4.94136 7.14312 4.15136 6.35297 3.17675 6.35297C2.20214 6.35297 1.41198 7.14312 1.41198 8.11773V12.7059H4.94136V8.11773ZM17.6473 2.82359V12.7059H6.35323V2.82359C6.35323 2.0438 6.98531 1.41172 7.76495 1.41172H16.2356C17.0152 1.41172 17.6473 2.0438 17.6473 2.82359ZM22.5886 8.11773C22.5886 7.14312 21.7985 6.35297 20.8239 6.35297C19.8492 6.35297 19.0592 7.14312 19.0592 8.11773V12.7059H22.5886V8.11773ZM22.5886 19.7648H20.2431L19.3959 17.6472H22.5886V19.7648ZM9.8828 5.64688C9.49296 5.64688 9.17686 5.33092 9.17686 4.9411C9.17686 4.55115 9.49298 4.23516 9.8828 4.23516C10.2726 4.23516 10.5887 4.55113 10.5887 4.9411C10.5887 5.33093 10.2726 5.64688 9.8828 5.64688ZM13.4122 4.9411C13.4122 5.33092 13.7283 5.64688 14.1181 5.64688C14.5079 5.64688 14.824 5.33093 14.824 4.9411C14.824 4.55113 14.5079 4.23516 14.1181 4.23516C13.7283 4.23516 13.4122 4.55115 13.4122 4.9411ZM9.8828 9.88219C9.49296 9.88219 9.17686 9.56623 9.17686 9.17641C9.17686 8.78646 9.49298 8.47047 9.8828 8.47047C10.2726 8.47047 10.5887 8.78644 10.5887 9.17641C10.5887 9.56625 10.2726 9.88219 9.8828 9.88219ZM13.4122 9.17641C13.4122 9.56623 13.7283 9.88219 14.1181 9.88219C14.5079 9.88219 14.824 9.56625 14.824 9.17641C14.824 8.78644 14.5079 8.47047 14.1181 8.47047C13.7283 8.47047 13.4122 8.78646 13.4122 9.17641Z"/></symbol><symbol viewBox="0 0 23 24" id="svg-cat-link-icon-5"><path fill-rule="evenodd" clip-rule="evenodd" d="M16.7283 20.8235H4.44964L4.05828 22.5882H17.1187L16.7283 20.8235ZM3.22577 19.8603C2.73146 18.0274 2.4713 16.0166 2.4713 13.9414C2.4713 12.0762 2.68139 10.2625 3.08334 8.58203C3.08334 8.58203 2.82938 8.45413 2.50678 8.26512C2.35394 8.17555 2.2113 8.08683 2.07972 7.9991C1.63155 7.70043 1.23062 7.25998 0.862647 6.71487C0.639304 6.3841 0.441255 6.03369 0.269156 5.68347C0.165364 5.47236 0.0920356 5.30529 0.0511873 5.20333C-0.1343 4.73979 0.207232 4.23535 0.706607 4.23535H4.7302C4.7302 4.23535 5.04677 3.68507 5.33153 3.27106C6.75822 1.1965 8.59342 0 10.5893 0C12.9259 0 14.9858 1.62845 16.4459 4.23531H18.0011C20.6036 4.23531 22.5895 7.12348 22.5895 10.5881V10.5883C22.5895 13.8155 20.8663 16.5429 18.5264 16.9012C18.4954 17.1518 18.4604 17.4005 18.4215 17.6471H19.4128C19.8028 17.6471 20.1188 17.9631 20.1188 18.3529C20.1188 18.7428 19.8028 19.0589 19.4128 19.0589H18.1511C18.0897 19.3294 18.0235 19.5966 17.9524 19.8601C17.9655 19.8936 17.9761 19.9284 17.9842 19.9645L18.6901 23.141C18.7881 23.5818 18.4526 24 18.0009 24H3.17735C2.72568 24 2.39018 23.5818 2.48828 23.141L3.19411 19.9645C3.20211 19.9285 3.21275 19.8936 3.22577 19.8603ZM18.7069 13.9411C18.7069 10.8453 18.1294 7.97143 17.1373 5.64712H18.0011C19.6871 5.64712 21.1778 7.81528 21.1778 10.5882C21.1778 12.991 20.0585 14.9397 18.6627 15.4171C18.6921 14.9298 18.7069 14.4373 18.7069 13.9411ZM4.17314 17.5623C3.98213 16.4008 3.88319 15.1842 3.88319 13.941C3.88319 11.9898 4.12694 10.1029 4.58883 8.38966C4.67723 8.0622 4.52003 7.71817 4.21483 7.57052C3.67444 7.30919 3.20901 7.05491 2.86298 6.8242C2.59144 6.64306 2.30699 6.33066 2.03279 5.92471C1.84897 5.65216 1.85382 5.6468 1.85382 5.6468H5.15471C5.17784 5.6468 5.20081 5.64567 5.22355 5.64345C5.24709 5.64582 5.27098 5.64704 5.29515 5.64704H15.5304C15.5494 5.64704 15.5683 5.64628 15.5869 5.6448C16.6413 7.84714 17.2951 10.7455 17.2951 13.9409C17.2951 15.5149 17.1364 17.0465 16.8332 18.4778C16.7287 18.9703 16.6183 19.4117 16.6183 19.4117H4.57015C4.57015 19.4117 4.30715 18.3778 4.17305 17.5624L4.17314 17.5623ZM10.5892 1.41146C9.06935 1.41146 7.58402 2.41355 6.38377 4.23522H14.7955C13.63 2.46705 12.1553 1.41146 10.5892 1.41146ZM15.8835 12.5291C15.8835 9.50966 15.0666 7.05876 13.5895 7.05876C12.1122 7.05876 11.2953 9.50983 11.2953 12.5291C11.2953 15.5487 12.1122 17.9999 13.5895 17.9999C15.0666 17.9999 15.8835 15.5488 15.8835 12.5291ZM13.6385 16.5955C13.6253 16.5874 13.6087 16.574 13.5894 16.5549C13.6083 16.5362 13.6298 16.5122 13.6533 16.4825C13.7852 16.3151 13.9218 16.0382 14.0428 15.6751C14.313 14.8645 14.4717 13.7385 14.4717 12.5291C14.4717 11.3199 14.313 10.1937 14.0428 9.38328C13.9218 9.02015 13.7852 8.74309 13.6533 8.57585C13.6298 8.54611 13.6083 8.52208 13.5894 8.50343C13.6087 8.48439 13.6253 8.47096 13.6385 8.46284C13.636 8.46435 13.6166 8.47038 13.5895 8.47038C13.5622 8.47038 13.5428 8.46435 13.5403 8.46284C13.5535 8.47096 13.5701 8.48439 13.5894 8.50343C13.5705 8.52208 13.549 8.54611 13.5255 8.57585C13.3938 8.74308 13.257 9.02016 13.136 9.38328C12.8657 10.1937 12.707 11.3199 12.707 12.5291C12.707 13.7385 12.8658 14.8645 13.136 15.6751C13.257 16.0382 13.3938 16.3151 13.5255 16.4825C13.549 16.5122 13.5705 16.5362 13.5894 16.5549C13.5701 16.574 13.5535 16.5874 13.5403 16.5955C13.5428 16.5939 13.5622 16.588 13.5895 16.588C13.6166 16.588 13.636 16.5939 13.6385 16.5955Z"/></symbol><symbol viewBox="0 0 27 21" id="svg-cat-link-icon-6"><path fill-rule="evenodd" clip-rule="evenodd" d="M27 13.116C27 10.0913 24.9981 7.47855 22.1746 6.63925L22.1752 6.63924C22.0627 6.12948 21.7869 5.68064 21.4052 5.35049C21.0975 2.32861 18.5445 0 15.4744 0C12.4061 0 9.85202 2.3268 9.54359 5.35011C9.03758 5.78778 8.71755 6.4348 8.71755 7.15691V9.66606L5.44918 7.4661C5.64883 6.34851 5.37752 5.33231 4.54441 4.85135C3.30049 4.13318 1.64932 5.09629 0.690724 6.7568C-0.268022 8.41743 -0.276477 10.3289 0.967325 11.0471C1.59353 11.4086 2.32302 11.344 3.01529 10.9789L8.71751 17.4085V18.2846C8.71751 19.6029 9.78576 20.6676 11.1039 20.6676H19.8443C20.6316 20.6676 21.3291 20.2875 21.7638 19.7008C24.8026 19.002 27 16.2847 27 13.116ZM11.1036 6.35918H11.9242L11.9241 6.35926C12.1444 7.94997 13.6705 9.14142 15.4738 9.14142C17.2773 9.14142 18.8034 7.94993 19.0236 6.35926H19.844C20.2834 6.35926 20.6407 6.71655 20.6407 7.15408V18.2825C20.6407 18.722 20.285 19.0774 19.844 19.0774H11.1036C10.6623 19.0774 10.3072 18.7233 10.3072 18.2843V17.1123C10.3072 16.9181 10.236 16.7306 10.1072 16.5852L4.18681 9.91619L4.91058 9.01127L9.07113 11.7899C9.59947 12.1421 10.3071 11.7634 10.3071 11.1285V7.1567C10.3071 6.71542 10.6629 6.35918 11.1036 6.35918ZM13.5509 6.35918C13.7708 7.02898 14.5315 7.55156 15.4739 7.55156C16.4163 7.55156 17.177 7.02898 17.3969 6.35918H13.5509ZM22.2303 17.8873V8.34425V8.34386C24.1157 9.12879 25.41 10.9894 25.41 13.1156C25.41 15.2416 24.116 17.1023 22.2303 17.8873ZM11.266 4.76925H19.6813C19.161 2.92715 17.4655 1.58969 15.4737 1.58969C13.4827 1.58969 11.7865 2.92638 11.266 4.76925ZM1.76156 9.6701C1.67258 9.61882 1.59129 9.43181 1.5928 9.09428C1.59488 8.64213 1.75914 8.08441 2.06681 7.55172C2.37433 7.01891 2.77521 6.59781 3.16582 6.36992C3.45737 6.19995 3.65992 6.17672 3.74875 6.22815C3.83773 6.27943 3.91902 6.46644 3.91751 6.80397C3.91543 7.25597 3.75118 7.81384 3.44366 8.34653C3.13598 8.87934 2.7351 9.30044 2.34464 9.52818C2.0531 9.6983 1.8504 9.72137 1.76156 9.6701Z"/></symbol><symbol viewBox="0 0 24 22" id="svg-cat-link-icon-7"><path fill-rule="evenodd" clip-rule="evenodd" d="M5.64704 0H14.8235C15.2134 0 15.5295 0.315961 15.5295 0.705939V21.1764C15.5295 21.5664 15.2134 21.8824 14.8235 21.8824H0.705939C0.316098 21.8824 0 21.5664 0 21.1764V5.64704C0 5.4599 0.0743334 5.28025 0.206827 5.14793L5.14793 0.206827C5.28042 0.0744897 5.45992 0.000152395 5.64704 0.000152395V0ZM6.35298 1.41176V5.64716C6.35298 6.037 6.03687 6.3531 5.64704 6.3531H1.41164V20.4707H14.1174V1.41199L6.35298 1.41176ZM4.94106 4.94122H2.40987L4.94106 2.41002V4.94122ZM11.6469 15.5291C12.0368 15.5291 12.3527 15.8452 12.3527 16.2351C12.3527 16.6249 12.0368 16.9408 11.6469 16.9408H3.88223C3.49239 16.9408 3.17645 16.6249 3.17645 16.2351C3.17645 15.8452 3.49241 15.5291 3.88223 15.5291H11.6469ZM12.3527 12.7056C12.3527 12.3158 12.0368 11.9998 11.6469 11.9998H3.88223C3.49241 11.9998 3.17645 12.3158 3.17645 12.7056C3.17645 13.0954 3.49239 13.4115 3.88223 13.4115H11.6469C12.0368 13.4115 12.3527 13.0954 12.3527 12.7056ZM11.6469 8.47037C12.0368 8.47037 12.3527 8.78648 12.3527 9.1763C12.3527 9.56614 12.0368 9.88209 11.6469 9.88209H3.88223C3.49239 9.88209 3.17645 9.56613 3.17645 9.1763C3.17645 8.78646 3.49241 8.47037 3.88223 8.47037H11.6469ZM12.3527 5.64685C12.3527 5.25702 12.0368 4.94106 11.6469 4.94106H9.1763C8.78648 4.94106 8.47037 5.25702 8.47037 5.64685C8.47037 6.03667 8.78646 6.35278 9.1763 6.35278H11.6469C12.0368 6.35278 12.3527 6.03667 12.3527 5.64685ZM17.647 1.76207C17.647 0.982711 18.2807 0.352774 19.0609 0.352774H22.5861C23.3653 0.352774 24 0.985602 24 1.76207V20.1198C24 20.8991 23.3662 21.5291 22.5861 21.5291H19.0609C18.2817 21.5291 17.647 20.8962 17.647 20.1198V1.76207ZM22.5882 1.76207L22.5881 3.88223L21.8823 3.88235C21.4925 3.88235 21.1765 4.19829 21.1765 4.58813C21.1765 4.97796 21.4924 5.29407 21.8823 5.29407H22.5881V7.05872H21.8823C21.4925 7.05872 21.1765 7.37482 21.1765 7.76466C21.1765 8.15448 21.4924 8.47044 21.8823 8.47044H22.5879C22.5879 9.04802 22.5879 9.63966 22.5878 10.2351H21.8823C21.4925 10.2351 21.1765 10.5512 21.1765 10.941C21.1765 11.3309 21.4924 11.647 21.8823 11.647H22.5878L22.5876 13.4116H21.8823C21.4925 13.4116 21.1765 13.7276 21.1765 14.1174C21.1765 14.5072 21.4924 14.8233 21.8823 14.8233H22.5875L22.5873 16.588H21.8823C21.4925 16.588 21.1765 16.9041 21.1765 17.2939C21.1765 17.6838 21.4924 17.9997 21.8823 17.9997H22.587C22.5869 19.2956 22.5866 20.1174 22.5861 20.1174C22.5861 20.1174 19.0588 20.1157 19.0588 20.1199C19.0588 20.1199 19.0592 1.76451 19.0609 1.76451C19.0609 1.76451 22.5882 1.76619 22.5882 1.76207Z"/></symbol><symbol viewBox="0 0 22 24" id="svg-cat-link-icon-8"><path fill-rule="evenodd" clip-rule="evenodd" d="M10.8386 0C11.2661 0 11.6129 0.346521 11.6129 0.774257V1.96273C17.2374 2.35975 21.6771 7.04857 21.6771 12.7745C21.6771 13.202 21.3306 13.5486 20.9031 13.5486H20.7038C20.473 13.5486 20.254 13.4455 20.107 13.2673C19.4484 12.47 18.4731 12.0002 17.4191 12.0002C16.3652 12.0002 15.3899 12.47 14.7313 13.2673H14.7316C14.5846 13.4455 14.3656 13.5486 14.1235 13.5486C13.8925 13.5486 13.6737 13.4455 13.5265 13.2673C12.8681 12.47 11.8926 12.0002 10.8387 12.0002C9.78486 12.0002 8.80935 12.47 8.15093 13.2673C8.00376 13.4455 7.78495 13.5486 7.54287 13.5486C7.31184 13.5486 7.09286 13.4455 6.94587 13.2673C6.28729 12.47 5.31195 12.0002 4.25809 12.0002C3.20406 12.0002 2.22872 12.47 1.57013 13.2673C1.42313 13.4455 1.20416 13.5486 0.973303 13.5486H0.774086C0.346539 13.5486 0 13.2021 0 12.7745C0 7.04855 4.43981 2.35972 10.0643 1.96272V0.774257C10.0643 0.346539 10.411 0 10.8386 0ZM10.8385 10.4518C11.5018 10.4518 12.1443 10.581 12.7366 10.8223V10.8225C13.5025 11.1344 14.1348 11.6711 14.1348 11.6711C15.0346 10.8951 16.1911 10.452 17.4191 10.452C18.3423 10.452 19.2251 10.7025 19.9888 11.1565C19.9888 11.1565 19.8377 10.1276 19.3143 8.96507C17.8598 5.73372 14.6119 3.48407 10.8385 3.48407C6.2609 3.48407 2.45673 6.79478 1.68933 11.1521C1.68933 11.1521 2.14653 10.7689 3.28725 10.5456C3.60315 10.4838 3.92792 10.4518 4.25788 10.4518C5.49054 10.4518 6.65137 10.8985 7.5527 11.6801C7.5527 11.6801 8.17528 11.1335 8.94187 10.8216C9.53385 10.5809 10.1757 10.4518 10.8385 10.4518ZM9.29008 24C10.5728 24 11.6126 22.9602 11.6126 21.6774V14.3226C11.6126 13.8949 11.2659 13.5484 10.8384 13.5484C10.4108 13.5484 10.0641 13.8949 10.0641 14.3226V21.6774C10.0641 22.1051 9.71759 22.4516 9.29004 22.4516C8.86247 22.4516 8.51578 22.1051 8.51578 21.6774C8.51578 21.2498 8.16924 20.9033 7.7417 20.9033C7.31413 20.9033 6.96744 21.2498 6.96744 21.6774C6.96744 22.9602 8.00741 24 9.29008 24Z"/></symbol><symbol viewBox="0 0 24 24" id="svg-cat-link-icon-9"><path fill-rule="evenodd" clip-rule="evenodd" d="M17.8215 5.29423H14.3377L14.3374 5.29401C12.9988 4.61667 11.4852 4.23514 9.88243 4.23514C4.42457 4.23514 0 8.65971 0 14.1176C0 19.5754 4.42457 24 9.88243 24C15.3403 24 19.7649 19.5754 19.7649 14.1176C19.7649 11.166 18.471 8.51674 16.4193 6.70586H17.8216C19.8493 6.70586 20.715 5.0937 19.5894 3.40551L18.9975 2.51739C18.4994 1.77056 18.6918 1.4118 19.5896 1.4118H23.2944C23.6841 1.4118 24.0002 1.09572 24.0002 0.705814C24.0002 0.316071 23.6841 0 23.2944 0H19.5896C17.5648 0 16.6991 1.61503 17.8227 3.30051L18.4147 4.18864C18.9141 4.93764 18.7227 5.29423 17.8215 5.29423ZM9.47224 12.7921C11.9836 15.0674 13.4822 18.2848 13.5444 21.7582L13.5443 21.7582C12.9701 22.0339 12.3599 22.2467 11.7229 22.388C10.1456 20.2683 9.27738 17.6972 9.27738 14.9917C9.27738 14.2455 9.34367 13.5101 9.47224 12.7921ZM14.9183 20.9295L14.9183 20.9295L14.9183 20.9297L14.9183 20.9295ZM14.9183 20.9295C15.3588 20.6034 15.7664 20.2356 16.1355 19.832C16.1573 19.5312 16.1682 19.2285 16.1682 18.9246C16.1682 14.8418 14.1805 11.1015 10.9306 8.79921C10.483 9.57514 10.1202 10.3986 9.84963 11.2568C12.7835 13.6396 14.6294 17.1174 14.9183 20.9295ZM17.5317 17.7613L17.5314 17.7618L17.5317 17.7617L17.5317 17.7613ZM18.3531 14.1178C18.3531 15.4222 18.0584 16.6577 17.5317 17.7613C17.1874 13.6562 15.0368 9.95953 11.7057 7.61786C12.0739 7.12097 12.4804 6.64989 12.9227 6.20893C16.0989 7.43079 18.3531 10.5111 18.3531 14.1178ZM10.1364 22.5832C8.6676 20.3547 7.86587 17.7339 7.86587 14.9919C7.86587 11.5364 9.14173 8.28394 11.3847 5.78023C10.8972 5.69301 10.3953 5.64747 9.88264 5.64747C9.7832 5.64747 9.68426 5.64914 9.58582 5.65249C6.91145 7.99104 5.34481 11.3632 5.34481 14.9919C5.34481 17.6646 6.19158 20.2068 7.73559 22.3141C8.42114 22.4932 9.14067 22.5886 9.88265 22.5886C9.95112 22.5886 10.0467 22.5863 10.1364 22.5833L10.1364 22.5832ZM3.93326 14.992C3.93326 17.2453 4.47463 19.4175 5.4843 21.3585L5.48443 21.3589C3.0429 19.8726 1.41231 17.1856 1.41231 14.1182C1.41231 10.3827 3.82993 7.21221 7.18603 6.08589C5.11269 8.54074 3.93326 11.6709 3.93326 14.992Z"/></symbol><symbol viewBox="0 0 16 12" id="svg-check"><path fill-rule="evenodd" clip-rule="evenodd" d="M5.9999 9.19998L1.7999 4.99998L0.399902 6.39998L5.9999 12L15.9999 1.99998L14.5999 0.599976L5.9999 9.19998Z"/></symbol><symbol viewBox="0 0 19 22" id="svg-compare"><path fill-rule="evenodd" clip-rule="evenodd" d="M16 0H19V22H16V0ZM8 10H11V22H8V10ZM3 5H0V22H3V5Z"/></symbol><symbol viewBox="0 0 15 19" id="svg-del-compare"><path fill-rule="evenodd" clip-rule="evenodd" d="M15 3V2C15 2.12293 14.9367 2.11085 14.7488 2.07496C14.5945 2.0455 14.3562 2 14 2H10V1C10.3125 0.447715 9.89277 0 9 0H6C5.10723 0 4.6875 0.447715 5 1V2H1C0.643773 2 0.405491 2.0455 0.251211 2.07496C0.0632898 2.11085 0 2.12293 0 2V3C0 3.77614 0.209867 4 1 4H14C14.7901 4 15 3.77614 15 3ZM3 19C2.68802 19.0024 1.87624 18.2474 2 17L1 6H14L13 17C13.1423 18.2474 12.3305 19.0024 12 19H3Z"/></symbol><symbol viewBox="0 0 18 17" id="svg-del-favorites"><g clip-path="url(#bhclip0_110_7048)"><path fill-rule="evenodd" clip-rule="evenodd" d="M9.33641 0.271126L10.8171 3.1452L4.07528 10.9008L4.15871 10.4349L0.158764 6.69992C-0.14879 6.41274 0.0143027 5.89726 0.431073 5.83925L5.97643 5.06736L8.44746 0.271126C8.63362 -0.0902126 9.15025 -0.0902126 9.33641 0.271126ZM14.1614 5.39503L5.37085 15.5075L8.89193 13.7342L13.8502 16.2312C14.2182 16.4166 14.6399 16.1021 14.5672 15.6965L13.6252 10.4349L17.6251 6.69992C17.9327 6.41274 17.7696 5.89726 17.3528 5.83925L14.1614 5.39503ZM15.8792 1.89472L14.3698 0.5826L1.90466 14.9221L3.41408 16.2342L15.8792 1.89472Z"/></g><defs><clipPath id="bhclip0_110_7048"><path d="M0 0H18V17H0z"/></clipPath></defs></symbol><symbol viewBox="0 0 26 23" id="svg-favorites"><path fill-rule="evenodd" clip-rule="evenodd" d="M25.5041 10.1415C28.5809 0.392062 16.4749 -3.60359 13.0006 3.90421C9.52547 -3.60359 -2.58186 0.392143 0.496301 10.1415C1.50036 13.0885 3.13463 15.0382 5.94512 17.3282L6.50392 17.776L7.09298 18.2345L7.71317 18.7058L8.70376 19.4415L9.76935 20.2182L13.0002 22.5447L16.2313 20.2181L17.6353 19.192L18.6015 18.4683L19.206 18.0036L19.7798 17.5507L20.3238 17.1074C22.9706 14.911 24.5322 12.9929 25.5041 10.1415ZM2.86272 9.33521C0.871905 3.02767 8.39267 -0.0992986 10.7318 4.95434L13.0008 9.85643L15.2694 4.95414L15.3521 4.78312C17.7795 -0.0268131 25.1045 3.10077 23.12 9.38906C22.5374 11.0961 21.6809 12.4168 20.2316 13.8382L20.0073 14.0571L19.5136 14.5252L19.1276 14.8712L18.6991 15.2338L18.083 15.7261L17.1526 16.4343L15.9092 17.3521L13 19.461L12.5718 19.1523L9.78857 17.1303L8.57867 16.2322L7.91365 15.7234L7.37272 15.2927L7.00446 14.9852L6.62696 14.6535L6.27751 14.33L5.76963 13.8392C4.31958 12.4175 3.46289 11.0967 2.86272 9.33521Z"/></symbol><symbol viewBox="0 0 20 20" id="svg-filters-btn"><path fill-rule="evenodd" clip-rule="evenodd" d="M2 0H4V3.17071C5.16519 3.58254 6 4.69378 6 6C6 7.30622 5.16519 8.41746 4 8.82929V20H2V8.82929C0.834808 8.41746 0 7.30622 0 6C0 4.69378 0.834808 3.58254 2 3.17071V0ZM7 14C7 15.3062 7.83481 16.4175 9 16.8293V20H11V16.8293C12.1652 16.4175 13 15.3062 13 14C13 12.6938 12.1652 11.5825 11 11.1707V0H9V11.1707C7.83481 11.5825 7 12.6938 7 14ZM18 0H16V5.17071C14.8348 5.58254 14 6.69378 14 8C14 9.30622 14.8348 10.4175 16 10.8293V20H18V10.8293C19.1652 10.4175 20 9.30622 20 8C20 6.69378 19.1652 5.58254 18 5.17071V0ZM18 8C18 8.55228 17.5523 9 17 9C16.4477 9 16 8.55228 16 8C16 7.44772 16.4477 7 17 7C17.5523 7 18 7.44772 18 8ZM10 15C10.5523 15 11 14.5523 11 14C11 13.4477 10.5523 13 10 13C9.44772 13 9 13.4477 9 14C9 14.5523 9.44772 15 10 15ZM4 6C4 6.55228 3.55228 7 3 7C2.44772 7 2 6.55228 2 6C2 5.44772 2.44772 5 3 5C3.55228 5 4 5.44772 4 6Z"/></symbol><symbol viewBox="0 0 16 28" id="svg-icon-back"><path fill-rule="evenodd" clip-rule="evenodd" d="M13.9337 0L16 2.0663L4.41168 14.3454L16 25.9337L13.9337 28L1 15.0663L1.01155 15.0548L0.374878 14.4374L13.9337 0Z"/></symbol><symbol viewBox="0 0 28 28" id="svg-icon-close-modal"><path fill-rule="evenodd" clip-rule="evenodd" d="M2.0663 0L0 2.0663L11.9337 14L0 25.9337L2.0663 28L14 16.0663L25.9337 28L28 25.9337L16.0663 14L28 2.0663L25.9337 0L14 11.9337L2.0663 0Z"/></symbol><symbol viewBox="0 0 20 15" id="svg-in-stock"><path fill-rule="evenodd" clip-rule="evenodd" d="M19.0919 2.82843L7.07107 14.8492L4.24264 12.0208L4.3029 11.9594L0 7.65685L2.82843 4.82843L7.13132 9.13102L16.2635 0L19.0919 2.82843Z"/></symbol><symbol viewBox="0 0 16 16" id="svg-input_close"><path fill-rule="evenodd" clip-rule="evenodd" d="M8 0C3.6 0 0 3.6 0 8C0 12.4 3.6 16 8 16C12.4 16 16 12.4 16 8C16 3.6 12.4 0 8 0ZM12 11.0494L10.88 12.2353L8 9.18588L5.12 12.2353L4 11.0494L6.88 8L4 4.95059L5.12 3.76471L8 6.81412L10.88 3.76471L12 4.95059L9.12 8L12 11.0494Z"/></symbol><symbol viewBox="0 0 22 18" id="svg-layout__col-icon"><path fill-rule="evenodd" clip-rule="evenodd" d="M10 0H0V18H10V0ZM22 0H12V18H22V0Z"/></symbol><symbol viewBox="0 0 22 18" id="svg-layout__row-icon"><path fill-rule="evenodd" clip-rule="evenodd" d="M22 0H0V8H22V0ZM22 10H0V18H22V10Z"/></symbol><symbol viewBox="0 0 77 14" id="svg-logo_salt"><path fill-rule="evenodd" clip-rule="evenodd" d="M32.7048 10.9764C34.2224 11.0205 35.7244 10.6559 37.0571 9.91985C37.1285 9.8802 37.2046 9.85222 37.3061 9.80557C37.673 10.5339 37.8597 11.3415 37.8501 12.159C37.8616 13.0733 37.8501 13.0919 36.9902 13.3741C35.5422 13.8278 34.028 14.0267 32.5134 13.9619C30.8998 13.9293 29.376 13.619 27.9883 12.77C26.3377 11.7718 25.4156 10.2767 25.1298 8.39213C24.8566 6.89013 25.0167 5.34034 25.5908 3.92792C26.453 1.89406 28.0528 0.760515 30.1391 0.289369C32.6121 -0.288017 35.2057 0.00401796 37.4928 1.11737C37.6103 1.17102 37.7763 1.30396 37.7763 1.39959C37.8041 2.50724 37.5391 3.60231 37.0087 4.57166C36.2249 4.17282 35.4849 3.74832 34.7034 3.40546C33.7746 2.99609 32.7409 2.89722 31.7527 3.12324C30.1321 3.49409 29.1593 4.67895 29.104 6.45157C29.0804 7.09895 29.1455 7.74653 29.2976 8.3758C29.7057 9.9665 31.0266 10.9414 32.7071 10.9858L32.7048 10.9764ZM73.0235 8.54374C72.9516 8.3518 72.8262 8.18509 72.6625 8.06379C72.4989 7.9425 72.3039 7.87183 72.1014 7.86034C71.0733 7.82536 70.0428 7.86034 68.9939 7.86034V10.9088C70.052 10.9088 71.0848 10.9508 72.1106 10.8831C72.2748 10.8493 72.4307 10.7831 72.5696 10.6882C72.7084 10.5934 72.8274 10.4718 72.9198 10.3304C73.0905 10.07 73.1895 9.7682 73.2065 9.45619C73.2235 9.14418 73.158 8.83322 73.0166 8.5554L73.0235 8.54374ZM76.4122 11.4966C75.7206 12.9846 74.4435 13.6774 72.8644 13.7123C70.4808 13.7683 68.0972 13.7287 65.7182 13.731C65.3862 13.731 65.1903 13.5771 65.1903 13.2459C65.1903 10.7362 65.1903 8.22575 65.1903 5.71454C65.1672 5.49762 65.1557 5.29237 65.1534 5.10578C65.1547 4.77476 65.1246 4.44438 65.0635 4.11917C65.0362 3.85923 64.9121 3.61955 64.7164 3.44886C64.5207 3.27816 64.2681 3.18926 64.01 3.20021C63.3184 3.17688 62.6061 3.20021 61.873 3.20021C61.873 3.89993 61.8846 4.59965 61.873 5.29937C61.8431 6.99969 61.7393 8.69301 61.2667 10.335C60.8818 11.6738 60.2547 12.8633 58.89 13.4325C58.37 13.6436 57.8196 13.7681 57.2602 13.801C56.4419 13.8476 55.6166 13.7776 54.7798 13.7567C54.5266 12.7605 54.5393 11.7141 54.8167 10.7245C55.1822 10.7433 55.5484 10.7433 55.914 10.7245C56.336 10.7018 56.7413 10.5504 57.0766 10.2902C57.412 10.0301 57.6616 9.67325 57.7928 9.26678C58.0676 8.49036 58.2472 7.68276 58.3276 6.86208C58.4175 5.7122 58.3506 4.55067 58.3506 3.2935H55.9301C55.8333 2.48183 55.7641 2.32322 55.7641 1.84975C55.732 1.32925 55.7881 0.807033 55.9301 0.305696H56.428C59.1943 0.305696 61.9606 0.284704 64.7384 0.31969C65.4236 0.317351 66.1045 0.430059 66.7532 0.653224C68.0972 1.14303 68.6551 2.2859 68.8717 3.62004C68.9328 4.02918 68.9628 4.44244 68.9617 4.85621V4.98916C68.9706 5.00423 68.9769 5.02083 68.9801 5.03814C70.0636 5.03814 71.0963 5.02181 72.1268 5.03814C72.7177 5.03636 73.3078 5.0863 73.8903 5.18741C75.3748 5.49062 76.32 6.40259 76.6865 7.886C77.0201 9.08074 76.9253 10.3563 76.4191 11.4872L76.4122 11.4966ZM49.5907 6.15536C49.4708 4.54367 48.6686 3.16289 46.5939 3.0556C45.0401 2.9763 43.846 3.53607 43.3389 5.24106C43.2026 5.81928 43.1253 6.41015 43.1084 7.00435C43.1099 7.29195 43.1269 7.57926 43.1591 7.86501C43.3343 9.41372 43.9797 10.7339 45.8585 10.9484C47.5068 11.135 49.0328 10.5706 49.4731 8.61604C49.6326 7.80707 49.6738 6.97877 49.5953 6.15769L49.5907 6.15536ZM51.9905 11.8324C51.0446 12.8584 49.7915 13.5412 48.4242 13.7753C46.2781 14.1881 44.1757 14.0902 42.2208 12.9893C40.425 11.9747 39.4937 10.3583 39.1848 8.35948C38.9355 6.92374 39.0815 5.44627 39.6067 4.08885C40.3836 2.15063 41.822 0.923782 43.8138 0.384997C45.8746 -0.170115 47.9355 -0.118801 49.9134 0.74652C52.0112 1.66082 53.173 3.33315 53.5672 5.5606C53.6502 6.02708 53.6641 6.52154 53.7102 6.99969C53.6802 8.81196 53.233 10.468 51.9858 11.8371"/><path d="M0 5H20V6H0zM0 8H20V9H0z"/></symbol><symbol viewBox="0 0 18 18" id="svg-out-of-stock"><path fill-rule="evenodd" clip-rule="evenodd" d="M8.1668 0.235356C8.41006 0.0839239 8.69539 0.00270742 8.98543 0.000132833C9.27546 -0.00361202 9.57043 0.0717531 9.83485 0.235356L17.3743 4.90051C17.7636 5.14041 18 5.56475 18 6.02069V17.0212C18 17.5611 17.5605 18 17.018 18L14 17.9247V8.96237C13.7485 8.54869 13.4058 8.18123 13 7.96655H5C4.59558 8.18123 4.25149 8.54869 4 8.96237V17.9247L0.983391 18C0.440693 18 0 17.5611 0 17.0212V6.02069C0 5.56475 0.237621 5.14041 0.626841 4.90051L8.1668 0.235356ZM6.19555 10.0106C6.31518 9.89216 6.47336 9.83154 6.63977 9.8278C6.85412 9.82148 7.08187 9.91088 7.25932 10.0876L9 11.821L10.7407 10.0876C11.0563 9.77303 11.5313 9.73886 11.8056 10.0108L12.3883 10.5922C12.6623 10.8637 12.6283 11.3367 12.3124 11.6513L10.5717 13.3847L12.3124 15.1181C12.6283 15.4327 12.6623 15.9057 12.3883 16.1791L11.8056 16.7593C11.5313 17.0322 11.0566 16.9985 10.7407 16.6835L9 14.9501L7.25909 16.6832C6.94343 16.998 6.46843 17.032 6.19555 16.7591L5.61149 16.1788C5.33861 15.9055 5.37292 15.4324 5.68858 15.1179L7.42925 13.3845L5.68858 11.6511C5.37292 11.3367 5.33861 10.8635 5.61149 10.592L6.19555 10.0106Z"/></symbol><symbol viewBox="0 0 24 24" id="svg-question-mark"><path d="M12 0C18.6274 0 24 5.37258 24 12C24 18.6274 18.6274 24 12 24C5.37258 24 0 18.6274 0 12C0 5.37258 5.37258 0 12 0Z"/><path d="M10.9036 14.288C10.9036 13.712 11.0316 13.2373 11.2876 12.864C11.5542 12.48 11.9382 12.064 12.4396 11.616C12.8236 11.2747 13.1062 10.9813 13.2876 10.736C13.4796 10.48 13.5756 10.192 13.5756 9.872C13.5756 9.424 13.3942 9.06133 13.0316 8.784C12.6689 8.50667 12.1836 8.368 11.5756 8.368C10.4236 8.368 9.55423 8.77867 8.96756 9.6L7.41556 8.592C7.87423 7.96267 8.46623 7.48267 9.19156 7.152C9.9169 6.81067 10.7702 6.64 11.7516 6.64C12.9462 6.64 13.8956 6.90133 14.5996 7.424C15.3142 7.936 15.6716 8.64533 15.6716 9.552C15.6716 9.98933 15.5969 10.3733 15.4476 10.704C15.3089 11.0347 15.1382 11.3173 14.9356 11.552C14.7329 11.776 14.4662 12.0373 14.1356 12.336C13.7302 12.6987 13.4262 13.0187 13.2236 13.296C13.0316 13.5733 12.9356 13.904 12.9356 14.288H10.9036ZM11.9276 18.112C11.5542 18.112 11.2449 17.9947 10.9996 17.76C10.7649 17.5147 10.6476 17.216 10.6476 16.864C10.6476 16.512 10.7649 16.2187 10.9996 15.984C11.2449 15.7493 11.5542 15.632 11.9276 15.632C12.2902 15.632 12.5889 15.7493 12.8236 15.984C13.0689 16.2187 13.1916 16.512 13.1916 16.864C13.1916 17.216 13.0689 17.5147 12.8236 17.76C12.5889 17.9947 12.2902 18.112 11.9276 18.112Z"/></symbol><symbol viewBox="0 0 17 18" id="svg-reset-icon"><g clip-path="url(#btclip0_112_15829)"><path fill-rule="evenodd" clip-rule="evenodd" d="M11.0006 1C14.4508 1.88831 17 5.02035 17 8.7478C17 11.7271 15.3713 14.3261 12.9558 15.7029L15 17.7478H9V11.7478L10.7034 13.4501C12.6262 12.7535 14 10.9111 14 8.7478C14 6.69799 12.7665 4.93628 11.0013 4.16442L11.0006 1ZM5.99935 16.7478C2.54923 15.8595 0 12.7274 0 9C0 6.02065 1.62865 3.4217 4.04422 2.04486L2 0H8V6L6.29661 4.29765C4.37383 4.9943 3 6.83671 3 9C3 11.0498 4.23348 12.8115 5.99868 13.5834L5.99935 16.7478Z"/></g><defs><clipPath id="btclip0_112_15829"><path d="M0 0H17V17.748H0z"/></clipPath></defs></symbol><symbol viewBox="0 0 27 26" id="svg-search"><path fill-rule="evenodd" clip-rule="evenodd" d="M18.1974 19.3187C16.2683 20.9893 13.7522 22 11 22C4.92487 22 0 17.0751 0 11C0 4.92487 4.92487 0 11 0C17.0751 0 22 4.92487 22 11C22 13.2394 21.3308 15.3225 20.1815 17.0602L26.4497 23.3284L24.3284 25.4497L18.1974 19.3187ZM19 11C19 15.4183 15.4183 19 11 19C6.58172 19 3 15.4183 3 11C3 6.58172 6.58172 3 11 3C15.4183 3 19 6.58172 19 11Z"/></symbol><symbol viewBox="0 0 30 30" id="svg-to_share"><mask id="bva" maskUnits="userSpaceOnUse" x="0" y="0" width="30" height="30"><path d="M0 0H30V30H0z"/><path fill-rule="evenodd" clip-rule="evenodd" d="M18.6397 19.6801C19.6799 18.3801 21.1099 17.6 22.7998 17.6H22.8001C25.6602 17.6 28.0001 19.9399 28.0001 22.8C28.0001 25.6601 25.6602 28 22.8001 28C19.94 28 17.6001 25.6601 17.6001 22.8C17.6001 22.67 17.6326 22.54 17.6651 22.41C17.6976 22.28 17.7301 22.15 17.7301 22.02L11.3601 19.42C10.32 20.72 8.88991 21.5 7.2 21.5C4.33991 21.5 2 19.1601 2 16.3C2 13.4399 4.33991 11.1 7.2 11.1C8.63 11.1 9.93 11.75 10.8399 12.6601L17.8599 8.63005C17.8376 8.54102 17.8154 8.45581 17.7938 8.37309L17.7937 8.3729L17.7937 8.37281C17.6891 7.97254 17.5998 7.63083 17.5998 7.2C17.5998 4.33991 19.9397 2 22.7998 2C25.6599 2 27.9998 4.33991 27.9998 7.2C27.9998 10.0601 25.6599 12.4 22.7998 12.4C21.3698 12.4 20.0698 11.75 19.0297 10.8399L12.1397 14.87C12.162 14.9591 12.1843 15.0444 12.2059 15.1272L12.2059 15.1272C12.3105 15.5275 12.3998 15.8692 12.3998 16.3C12.3998 16.5601 12.3998 16.82 12.2697 17.0801L18.6397 19.6801ZM25.3998 7.2C25.3998 5.76995 24.2299 4.6 22.7998 4.6C21.3698 4.6 20.1998 5.76995 20.1998 7.2C20.1998 8.63005 21.3698 9.8 22.7998 9.8C24.2299 9.8 25.3998 8.63005 25.3998 7.2ZM7.19983 18.9C5.76978 18.9 4.59982 17.7301 4.59982 16.3C4.59982 14.87 5.76978 13.7 7.19983 13.7C8.62987 13.7 9.79983 14.87 9.79983 16.3C9.79983 17.7301 8.62987 18.9 7.19983 18.9ZM20.1998 22.8C20.1998 24.2301 21.3698 25.4 22.7998 25.4C24.2299 25.4 25.3998 24.2301 25.3998 22.8C25.3998 21.37 24.2299 20.2 22.7998 20.2C21.3698 20.2 20.1998 21.37 20.1998 22.8Z"/></mask><path fill-rule="evenodd" clip-rule="evenodd" d="M18.6397 19.6801C19.6799 18.3801 21.1099 17.6 22.7998 17.6H22.8001C25.6602 17.6 28.0001 19.9399 28.0001 22.8C28.0001 25.6601 25.6602 28 22.8001 28C19.94 28 17.6001 25.6601 17.6001 22.8C17.6001 22.67 17.6326 22.54 17.6651 22.41C17.6976 22.28 17.7301 22.15 17.7301 22.02L11.3601 19.42C10.32 20.72 8.88991 21.5 7.2 21.5C4.33991 21.5 2 19.1601 2 16.3C2 13.4399 4.33991 11.1 7.2 11.1C8.63 11.1 9.93 11.75 10.8399 12.6601L17.8599 8.63005C17.8376 8.54102 17.8154 8.45581 17.7938 8.37309L17.7937 8.3729L17.7937 8.37281C17.6891 7.97254 17.5998 7.63083 17.5998 7.2C17.5998 4.33991 19.9397 2 22.7998 2C25.6599 2 27.9998 4.33991 27.9998 7.2C27.9998 10.0601 25.6599 12.4 22.7998 12.4C21.3698 12.4 20.0698 11.75 19.0297 10.8399L12.1397 14.87C12.162 14.9591 12.1843 15.0444 12.2059 15.1272L12.2059 15.1272C12.3105 15.5275 12.3998 15.8692 12.3998 16.3C12.3998 16.5601 12.3998 16.82 12.2697 17.0801L18.6397 19.6801ZM25.3998 7.2C25.3998 5.76995 24.2299 4.6 22.7998 4.6C21.3698 4.6 20.1998 5.76995 20.1998 7.2C20.1998 8.63005 21.3698 9.8 22.7998 9.8C24.2299 9.8 25.3998 8.63005 25.3998 7.2ZM7.19983 18.9C5.76978 18.9 4.59982 17.7301 4.59982 16.3C4.59982 14.87 5.76978 13.7 7.19983 13.7C8.62987 13.7 9.79983 14.87 9.79983 16.3C9.79983 17.7301 8.62987 18.9 7.19983 18.9ZM20.1998 22.8C20.1998 24.2301 21.3698 25.4 22.7998 25.4C24.2299 25.4 25.3998 24.2301 25.3998 22.8C25.3998 21.37 24.2299 20.2 22.7998 20.2C21.3698 20.2 20.1998 21.37 20.1998 22.8Z"/><path d="M18.6397 19.6801L17.8839 21.5317L20.2014 20.9295L18.6397 19.6801ZM17.6651 22.41L15.7248 21.9247L15.7248 21.9247L17.6651 22.41ZM17.7301 22.02H19.7301L18.4859 20.1683L17.7301 22.02ZM11.3601 19.42L12.1159 17.5683L9.79844 18.1705L11.3601 19.42ZM10.8399 12.6601L9.42555 14.0742L11.8357 14.3946L10.8399 12.6601ZM17.8599 8.63005L18.8557 10.3645L19.8001 8.14479L17.8599 8.63005ZM17.7938 8.37309L19.7288 7.86755L19.7287 7.86703L17.7938 8.37309ZM17.7937 8.3729L15.8553 8.86521L15.8588 8.87896L17.7937 8.3729ZM17.7937 8.37281L19.7322 7.88049L19.7287 7.86723L17.7937 8.37281ZM19.0297 10.8399L20.3467 9.33476L18.0199 9.11354L19.0297 10.8399ZM12.1397 14.87L11.1299 13.1436L10.1995 15.3552L12.1397 14.87ZM12.2059 15.1272L14.1583 14.6933L14.1409 14.6216L12.2059 15.1272ZM12.2059 15.1272L10.2535 15.5611L10.2709 15.6328L12.2059 15.1272ZM12.2697 17.0801L10.4809 16.1856L11.5139 18.9317L12.2697 17.0801ZM22.7998 15.6C20.4306 15.6 18.4505 16.7152 17.0781 18.4306L20.2014 20.9295C20.9092 20.0449 21.7892 19.6 22.7998 19.6V15.6ZM22.8001 15.6H22.7998V19.6H22.8001V15.6ZM30.0001 22.8C30.0001 18.8353 26.7647 15.6 22.8001 15.6V19.6C24.5556 19.6 26.0001 21.0445 26.0001 22.8H30.0001ZM22.8001 30C26.7647 30 30.0001 26.7647 30.0001 22.8H26.0001C26.0001 24.5555 24.5556 26 22.8001 26V30ZM15.6001 22.8C15.6001 26.7647 18.8354 30 22.8001 30V26C21.0445 26 19.6001 24.5555 19.6001 22.8H15.6001ZM15.7248 21.9247C15.704 22.0079 15.6001 22.3807 15.6001 22.8H19.6001C19.6001 22.8506 19.5969 22.8914 19.5938 22.92C19.5907 22.9483 19.5873 22.9672 19.5861 22.9736C19.585 22.9798 19.5851 22.9782 19.5884 22.964C19.5921 22.9483 19.5966 22.9301 19.6053 22.8952L15.7248 21.9247ZM15.7301 22.02C15.7301 21.9694 15.7332 21.9286 15.7364 21.9C15.7395 21.8717 15.7428 21.8528 15.7441 21.8463C15.7452 21.8402 15.7451 21.8418 15.7418 21.8559C15.7381 21.8717 15.7336 21.8898 15.7248 21.9247L19.6053 22.8952C19.6261 22.8121 19.7301 22.4393 19.7301 22.02H15.7301ZM10.6043 21.2717L16.9743 23.8717L18.4859 20.1683L12.1159 17.5683L10.6043 21.2717ZM7.2 23.5C9.56922 23.5 11.5493 22.3848 12.9218 20.6695L9.79844 18.1705C9.09061 19.0551 8.21059 19.5 7.2 19.5V23.5ZM0 16.3C0 20.2647 3.23534 23.5 7.2 23.5V19.5C5.44448 19.5 4 18.0555 4 16.3H0ZM7.2 9.1C3.23534 9.1 0 12.3353 0 16.3H4C4 14.5445 5.44448 13.1 7.2 13.1V9.1ZM12.2543 11.246C11.0282 10.0197 9.23841 9.1 7.2 9.1V13.1C8.02159 13.1 8.8318 13.4803 9.42555 14.0742L12.2543 11.246ZM16.8642 6.89555L9.84417 10.9256L11.8357 14.3946L18.8557 10.3645L16.8642 6.89555ZM15.8587 8.87863C15.8807 8.96268 15.9003 9.03801 15.9197 9.11531L19.8001 8.14479C19.775 8.04404 19.7501 7.94893 19.7288 7.86755L15.8587 8.87863ZM15.8588 8.87896L15.8589 8.87914L19.7287 7.86703L19.7286 7.86685L15.8588 8.87896ZM15.8552 8.86512L15.8553 8.86521L19.7322 7.88059L19.7322 7.8805L15.8552 8.86512ZM15.5998 7.2C15.5998 7.92067 15.7583 8.49426 15.8587 8.87839L19.7287 7.86723C19.6199 7.45082 19.5998 7.34099 19.5998 7.2H15.5998ZM22.7998 0C18.8352 0 15.5998 3.23534 15.5998 7.2H19.5998C19.5998 5.44448 21.0443 4 22.7998 4V0ZM29.9998 7.2C29.9998 3.23534 26.7645 0 22.7998 0V4C24.5554 4 25.9998 5.44448 25.9998 7.2H29.9998ZM22.7998 14.4C26.7645 14.4 29.9998 11.1647 29.9998 7.2H25.9998C25.9998 8.95553 24.5554 10.4 22.7998 10.4V14.4ZM17.7127 12.3451C18.9991 13.4707 20.7484 14.4 22.7998 14.4V10.4C21.9912 10.4 21.1405 10.0294 20.3467 9.33476L17.7127 12.3451ZM13.1495 16.5963L20.0395 12.5663L18.0199 9.11354L11.1299 13.1436L13.1495 16.5963ZM14.1409 14.6216C14.119 14.5375 14.0993 14.4621 14.0799 14.3847L10.1995 15.3552C10.2247 15.4561 10.2496 15.5512 10.2709 15.6328L14.1409 14.6216ZM14.1583 14.6933L14.1583 14.6933L10.2535 15.561L10.2535 15.5611L14.1583 14.6933ZM14.3998 16.3C14.3998 15.5793 14.2413 15.0058 14.141 14.6216L10.2709 15.6328C10.3797 16.0492 10.3998 16.159 10.3998 16.3H14.3998ZM14.0586 17.9745C14.4289 17.2338 14.3998 16.5099 14.3998 16.3H10.3998C10.3998 16.3702 10.3996 16.404 10.3987 16.4326C10.3979 16.4574 10.3971 16.457 10.399 16.4419C10.401 16.4253 10.4065 16.3903 10.4196 16.3434C10.4332 16.2954 10.453 16.2414 10.4809 16.1856L14.0586 17.9745ZM19.3955 17.8284L13.0255 15.2284L11.5139 18.9317L17.8839 21.5317L19.3955 17.8284ZM22.7998 6.6C23.1253 6.6 23.3998 6.87452 23.3998 7.2H27.3998C27.3998 4.66539 25.3344 2.6 22.7998 2.6V6.6ZM22.1998 7.2C22.1998 6.87452 22.4744 6.6 22.7998 6.6V2.6C20.2652 2.6 18.1998 4.66539 18.1998 7.2H22.1998ZM22.7998 7.8C22.4744 7.8 22.1998 7.52548 22.1998 7.2H18.1998C18.1998 9.73462 20.2652 11.8 22.7998 11.8V7.8ZM23.3998 7.2C23.3998 7.52548 23.1253 7.8 22.7998 7.8V11.8C25.3344 11.8 27.3998 9.73462 27.3998 7.2H23.3998ZM2.59982 16.3C2.59982 18.8346 4.66521 20.9 7.19983 20.9V16.9C6.87435 16.9 6.59982 16.6255 6.59982 16.3H2.59982ZM7.19983 11.7C4.66521 11.7 2.59982 13.7654 2.59982 16.3H6.59982C6.59982 15.9745 6.87435 15.7 7.19983 15.7V11.7ZM11.7998 16.3C11.7998 13.7654 9.73444 11.7 7.19983 11.7V15.7C7.5253 15.7 7.79983 15.9745 7.79983 16.3H11.7998ZM7.19983 20.9C9.73444 20.9 11.7998 18.8346 11.7998 16.3H7.79983C7.79983 16.6255 7.5253 16.9 7.19983 16.9V20.9ZM22.7998 23.4C22.4744 23.4 22.1998 23.1255 22.1998 22.8H18.1998C18.1998 25.3346 20.2652 27.4 22.7998 27.4V23.4ZM23.3998 22.8C23.3998 23.1255 23.1253 23.4 22.7998 23.4V27.4C25.3344 27.4 27.3998 25.3346 27.3998 22.8H23.3998ZM22.7998 22.2C23.1253 22.2 23.3998 22.4745 23.3998 22.8H27.3998C27.3998 20.2654 25.3344 18.2 22.7998 18.2V22.2ZM22.1998 22.8C22.1998 22.4745 22.4744 22.2 22.7998 22.2V18.2C20.2652 18.2 18.1998 20.2654 18.1998 22.8H22.1998Z" fill-opacity=".484" mask="url(#bva)"/></symbol></svg>