<svg width="88" height="66" viewBox="0 0 88 66" fill="none" xmlns="http://www.w3.org/2000/svg">
<path fill-rule="evenodd" clip-rule="evenodd" d="M44.5758 0C58.249 0 69.3334 11.0533 69.3334 24.6882C69.3334 29.2971 68.0669 33.611 65.8621 37.3028L65.9037 37.3026L65.6827 37.5983C64.8876 38.8882 63.977 40.0997 62.9651 41.2183L44.3622 66L26.1355 41.1617C22.2074 36.7921 19.8182 31.0184 19.8182 24.6882C19.8182 11.0533 30.9026 0 44.5758 0ZM44.5758 34.975C50.273 34.975 54.8915 30.3694 54.8915 24.6882C54.8915 19.007 50.273 14.4015 44.5758 14.4015C38.8786 14.4015 34.2602 19.007 34.2602 24.6882C34.2602 30.3694 38.8786 34.975 44.5758 34.975Z" fill="#3D4A62"/>
<g filter="url(#filter0_d_117_27362)">
<path d="M44.1024 8.10526C44.8027 8.10526 45.4939 8.13963 46.1739 8.20657L81.0857 8.20785C81.5516 8.20785 81.9364 8.55772 81.9929 9.00948L82 9.1244V27.4553C82 27.9223 81.651 28.3081 81.2003 28.3647L81.0857 28.3718L61.9453 28.3715C59.8988 35.3616 52.6861 40.5263 44.1024 40.5263C35.5187 40.5263 28.306 35.3616 26.2595 28.3715L6.91432 28.3718C6.44844 28.3718 6.06358 28.022 6.00713 27.5702L6 27.4553V9.1244C6 8.65738 6.34902 8.27159 6.79968 8.215L6.91432 8.20785L42.0303 8.20663C42.7105 8.13965 43.4019 8.10526 44.1024 8.10526Z" fill="url(#paint0_linear_117_27362)"/>
<path fill-rule="evenodd" clip-rule="evenodd" d="M16.1113 21.0813C15.6176 21.2896 15.0738 21.3937 14.4799 21.3937C13.748 21.3937 13.0868 21.2323 12.4964 20.9094C11.906 20.5865 11.4433 20.1404 11.1084 19.571C10.7735 19.0017 10.6061 18.3594 10.6061 17.6442C10.6061 16.929 10.7753 16.2868 11.1136 15.7174C11.452 15.148 11.9164 14.7019 12.5068 14.379C13.0972 14.0562 13.7583 13.8947 14.4903 13.8947C15.0841 13.8947 15.6262 13.9989 16.1165 14.2072C16.6068 14.4155 17.0211 14.7175 17.3594 15.1133L16.4894 15.9361C15.9646 15.3667 15.3189 15.0821 14.5524 15.0821C14.0553 15.0821 13.6099 15.1914 13.2163 15.4101C12.8227 15.6289 12.5154 15.9326 12.2944 16.3215C12.0734 16.7103 11.963 17.1512 11.963 17.6442C11.963 18.1372 12.0734 18.5781 12.2944 18.967C12.5154 19.3558 12.8227 19.6596 13.2163 19.8783C13.6099 20.097 14.0553 20.2064 14.5524 20.2064C15.3189 20.2064 15.9646 19.9182 16.4894 19.3419L17.3594 20.1751C17.0211 20.5709 16.605 20.873 16.1113 21.0813ZM19.7625 16.8318V21.2896H18.4677V15.7278H23.771V21.2896H22.4866V16.8318H19.7625ZM27.1373 21.3625C27.5516 21.3625 27.9055 21.2982 28.199 21.1698C28.4924 21.0413 28.7186 20.8556 28.8774 20.6126V21.2896H30.0996V18.0296C30.0996 17.238 29.8839 16.6461 29.4523 16.2538C29.0207 15.8615 28.3975 15.6653 27.5827 15.6653C27.1269 15.6653 26.6954 15.7243 26.2879 15.8424C25.8805 15.9604 25.5318 16.1305 25.2418 16.3527L25.7493 17.3005C25.9565 17.1269 26.2103 16.9915 26.5106 16.8943C26.811 16.7971 27.1166 16.7485 27.4273 16.7485C27.8831 16.7485 28.2266 16.8527 28.4579 17.061C28.6892 17.2693 28.8049 17.5678 28.8049 17.9567V18.04H27.3755C26.5814 18.04 25.9996 18.191 25.6302 18.4931C25.2608 18.7951 25.0761 19.1961 25.0761 19.696C25.0761 20.0154 25.1607 20.3019 25.3298 20.5553C25.499 20.8087 25.739 21.0066 26.0497 21.149C26.3604 21.2913 26.723 21.3625 27.1373 21.3625ZM26.6298 20.2064C26.8162 20.3452 27.0751 20.4147 27.4066 20.4147C27.7311 20.4147 28.0194 20.34 28.2715 20.1908C28.5235 20.0415 28.7013 19.828 28.8049 19.5502V18.9045H27.4687C26.723 18.9045 26.3501 19.151 26.3501 19.644C26.3501 19.88 26.4433 20.0675 26.6298 20.2064ZM32.9999 19.0919H35.7861V21.2896H37.0809V15.7278H35.7861V17.9879H32.9999V15.7278H31.7051V21.2896H32.9999V19.0919ZM39.2457 21.2896V22.529H38.0442V20.1855H38.3031C38.6553 20.1717 38.8952 19.9443 39.023 19.5033C39.1507 19.0624 39.2353 18.4393 39.2767 17.6338L39.3493 15.7278H43.9067V20.1855H44.725V22.529H43.5131V21.2896H39.2457ZM42.612 20.1855H39.8879C40.0881 19.9911 40.2262 19.6926 40.3022 19.2898C40.3781 18.8871 40.4299 18.3663 40.4575 17.7275L40.4886 16.8318H42.612V20.1855ZM48.5626 21.1698C48.2691 21.2982 47.9152 21.3625 47.5009 21.3625C47.0866 21.3625 46.7241 21.2913 46.4133 21.149C46.1026 21.0066 45.8626 20.8087 45.6935 20.5553C45.5243 20.3019 45.4397 20.0154 45.4397 19.696C45.4397 19.1961 45.6244 18.7951 45.9938 18.4931C46.3633 18.191 46.945 18.04 47.7392 18.04H49.1685V17.9567C49.1685 17.5678 49.0529 17.2693 48.8216 17.061C48.5902 16.8527 48.2467 16.7485 47.7909 16.7485C47.4802 16.7485 47.1746 16.7971 46.8743 16.8943C46.5739 16.9915 46.3201 17.1269 46.113 17.3005L45.6054 16.3527C45.8954 16.1305 46.2442 15.9604 46.6516 15.8424C47.059 15.7243 47.4906 15.6653 47.9463 15.6653C48.7611 15.6653 49.3843 15.8615 49.8159 16.2538C50.2475 16.6461 50.4633 17.238 50.4633 18.0296V21.2896H49.241V20.6126C49.0822 20.8556 48.8561 21.0413 48.5626 21.1698ZM47.7702 20.4147C47.4388 20.4147 47.1798 20.3452 46.9934 20.2064C46.8069 20.0675 46.7137 19.88 46.7137 19.644C46.7137 19.151 47.0866 18.9045 47.8324 18.9045H49.1685V19.5502C49.065 19.828 48.8871 20.0415 48.6351 20.1908C48.3831 20.34 48.0948 20.4147 47.7702 20.4147ZM53.3635 20.6126V23.3101H52.0688V15.7278H53.3013V16.4569C53.5154 16.193 53.7795 15.9951 54.0937 15.8632C54.4079 15.7313 54.7549 15.6653 55.1347 15.6653C55.6733 15.6653 56.1549 15.7834 56.5796 16.0194C57.0043 16.2555 57.3375 16.5888 57.5792 17.0193C57.8208 17.4498 57.9417 17.9463 57.9417 18.5087C57.9417 19.0711 57.8208 19.5693 57.5792 20.0033C57.3375 20.4372 57.0043 20.7723 56.5796 21.0084C56.1549 21.2444 55.6733 21.3625 55.1347 21.3625C54.3889 21.3625 53.7985 21.1125 53.3635 20.6126ZM54.9897 20.248C54.6789 20.248 54.3993 20.1769 54.1507 20.0345C53.9021 19.8922 53.7053 19.6891 53.5603 19.4252C53.4153 19.1614 53.3428 18.8559 53.3428 18.5087C53.3428 18.1615 53.4153 17.856 53.5603 17.5921C53.7053 17.3283 53.9021 17.1252 54.1507 16.9828C54.3993 16.8405 54.6789 16.7693 54.9897 16.7693C55.4661 16.7693 55.858 16.929 56.1653 17.2484C56.4726 17.5678 56.6262 17.9879 56.6262 18.5087C56.6262 19.0294 56.4726 19.4495 56.1653 19.7689C55.858 20.0883 55.4661 20.248 54.9897 20.248ZM61.0905 19.6127L59.9615 21.2896H58.5735L59.8786 19.4356C59.4781 19.2968 59.1726 19.0833 58.9619 18.7951C58.7513 18.5069 58.646 18.1511 58.646 17.7275C58.646 17.0887 58.8704 16.5957 59.3193 16.2486C59.7681 15.9014 60.3862 15.7278 61.1734 15.7278H63.711V21.2896H62.5509V19.6127H61.0905ZM62.5509 18.7066H61.1734C60.3654 18.7066 59.9615 18.3941 59.9615 17.7692C59.9615 17.1373 60.3792 16.8214 61.2148 16.8214H62.5509V18.7066ZM69.5322 19.0919H66.7459V21.2896H65.4512V15.7278H66.7459V17.9879H69.5322V15.7278H70.8269V21.2896H69.5322V19.0919ZM74.1829 21.3625C74.5972 21.3625 74.9511 21.2982 75.2446 21.1698C75.538 21.0413 75.7642 20.8556 75.923 20.6126V21.2896H77.1452V18.0296C77.1452 17.238 76.9294 16.6461 76.4979 16.2538C76.0663 15.8615 75.4431 15.6653 74.6283 15.6653C74.1725 15.6653 73.7409 15.7243 73.3335 15.8424C72.9261 15.9604 72.5774 16.1305 72.2874 16.3527L72.7949 17.3005C73.0021 17.1269 73.2558 16.9915 73.5562 16.8943C73.8566 16.7971 74.1622 16.7485 74.4729 16.7485C74.9286 16.7485 75.2722 16.8527 75.5035 17.061C75.7348 17.2693 75.8505 17.5678 75.8505 17.9567V18.04H74.4211C73.627 18.04 73.0452 18.191 72.6758 18.4931C72.3064 18.7951 72.1217 19.1961 72.1217 19.696C72.1217 20.0154 72.2062 20.3019 72.3754 20.5553C72.5446 20.8087 72.7846 21.0066 73.0953 21.149C73.406 21.2913 73.7686 21.3625 74.1829 21.3625ZM73.6753 20.2064C73.8618 20.3452 74.1207 20.4147 74.4522 20.4147C74.7767 20.4147 75.065 20.34 75.3171 20.1908C75.5691 20.0415 75.7469 19.828 75.8505 19.5502V18.9045H74.5143C73.7686 18.9045 73.3957 19.151 73.3957 19.644C73.3957 19.88 73.4889 20.0675 73.6753 20.2064Z" fill="white"/>
<path fill-rule="evenodd" clip-rule="evenodd" d="M43.7068 34.4421C44.3014 34.4421 44.8382 34.3258 45.3172 34.0933C45.7962 33.8608 46.1761 33.5307 46.4568 33.103C46.7376 32.6754 46.878 32.1792 46.878 31.6145C46.878 31.0831 46.75 30.6139 46.494 30.207C46.238 29.8001 45.8829 29.4866 45.4287 29.2665C44.9745 29.0465 44.4625 28.9365 43.8926 28.9365C43.3971 28.9365 42.9512 29.0133 42.5548 29.1669C42.1584 29.3205 41.8322 29.5468 41.5762 29.8458V29.8333C41.5762 28.8617 41.8115 28.1185 42.2823 27.6037C42.753 27.0888 43.4054 26.8314 44.2395 26.8314C44.9084 26.8314 45.4576 26.9725 45.887 27.2549L46.4816 26.0342C46.1926 25.8515 45.8519 25.7124 45.4596 25.6169C45.0674 25.5214 44.6483 25.4737 44.2023 25.4737C43.36 25.4737 42.6188 25.6543 41.9788 26.0155C41.3387 26.3767 40.8412 26.904 40.4861 27.5974C40.131 28.2908 39.9534 29.1275 39.9534 30.1073C39.9534 31.5024 40.2817 32.5736 40.9382 33.321C41.5948 34.0684 42.5176 34.4421 43.7068 34.4421ZM38.2316 34.3175V25.5982H34.7878V26.9559H36.6212V34.3175H38.2316ZM42.3008 32.7543C42.6188 33.0324 43.0585 33.1715 43.6201 33.1715C44.1239 33.1715 44.5326 33.0366 44.8465 32.7667C45.1603 32.4968 45.3172 32.1377 45.3172 31.6893C45.3172 31.2325 45.1603 30.8713 44.8465 30.6056C44.5326 30.3398 44.1115 30.207 43.5829 30.207C43.0627 30.207 42.6394 30.3481 42.3132 30.6305C41.987 30.9128 41.8239 31.2699 41.8239 31.7017C41.8239 32.1252 41.9829 32.4761 42.3008 32.7543ZM50.1483 34.4047C50.6438 34.4047 51.067 34.3279 51.418 34.1742C51.769 34.0206 52.0395 33.7985 52.2294 33.5078V34.3175H53.6911V30.4187C53.6911 29.4721 53.433 28.7641 52.9169 28.295C52.4008 27.8258 51.6554 27.5912 50.681 27.5912C50.1359 27.5912 49.6198 27.6618 49.1325 27.803C48.6453 27.9441 48.2282 28.1476 47.8814 28.4133L48.4884 29.5468C48.7361 29.3392 49.0396 29.1773 49.3989 29.061C49.7581 28.9448 50.1235 28.8866 50.4951 28.8866C51.0402 28.8866 51.451 29.0112 51.7277 29.2603C52.0044 29.5094 52.1427 29.8665 52.1427 30.3315V30.4312H50.4332C49.4835 30.4312 48.7877 30.6118 48.3459 30.973C47.9041 31.3343 47.6832 31.8138 47.6832 32.4117C47.6832 32.7937 47.7844 33.1362 47.9867 33.4393C48.189 33.7424 48.476 33.9791 48.8476 34.1493C49.2192 34.3196 49.6528 34.4047 50.1483 34.4047ZM49.5413 33.0221C49.7643 33.1881 50.074 33.2712 50.4704 33.2712C50.8585 33.2712 51.2033 33.1819 51.5047 33.0034C51.8062 32.8248 52.0188 32.5695 52.1427 32.2373V31.465H50.5447C49.6528 31.465 49.2069 31.7598 49.2069 32.3494C49.2069 32.6318 49.3183 32.856 49.5413 33.0221Z" fill="white"/>
</g>
<defs>
<filter id="filter0_d_117_27362" x="0" y="8.10526" width="88" height="44.4211" filterUnits="userSpaceOnUse" color-interpolation-filters="sRGB">
<feFlood flood-opacity="0" result="BackgroundImageFix"/>
<feColorMatrix in="SourceAlpha" type="matrix" values="0 0 0 0 0 0 0 0 0 0 0 0 0 0 0 0 0 0 127 0" result="hardAlpha"/>
<feOffset dy="6"/>
<feGaussianBlur stdDeviation="3"/>
<feColorMatrix type="matrix" values="0 0 0 0 0 0 0 0 0 0 0 0 0 0 0 0 0 0 0.307665 0"/>
<feBlend mode="normal" in2="BackgroundImageFix" result="effect1_dropShadow_117_27362"/>
<feBlend mode="normal" in="SourceGraphic" in2="effect1_dropShadow_117_27362" result="shape"/>
</filter>
<linearGradient id="paint0_linear_117_27362" x1="6" y1="8.10526" x2="6" y2="40.5263" gradientUnits="userSpaceOnUse">
<stop stop-color="#4293E6"/>
<stop offset="1" stop-color="#1F5AC8"/>
</linearGradient>
</defs>
</svg>
