<svg width="23" height="26" viewBox="0 0 23 26" fill="none" xmlns="http://www.w3.org/2000/svg">
<mask id="path-1-outside-1_212_6434" maskUnits="userSpaceOnUse" x="0" y="0" width="23" height="26" fill="black">
<rect fill="white" width="23" height="26"/>
<path fill-rule="evenodd" clip-rule="evenodd" d="M18 2H21V24H18V2ZM10 12H13V24H10V12ZM5 7H2V24H5V7Z"/>
</mask>
<path fill-rule="evenodd" clip-rule="evenodd" d="M18 2H21V24H18V2ZM10 12H13V24H10V12ZM5 7H2V24H5V7Z" fill="#CC4700"/>
<path d="M21 2H23L21 0V2ZM18 2V0L16 2H18ZM21 24V26L23 24H21ZM18 24H16L18 26V24ZM13 12H15L13 10V12ZM10 12V10L8 12H10ZM13 24V26L15 24H13ZM10 24H8L10 26V24ZM2 7V5L0 7H2ZM5 7H7L5 5V7ZM2 24H0L2 26V24ZM5 24V26L7 24H5ZM21 0H18V4H21V0ZM23 24V2H19V24H23ZM18 26H21V22H18V26ZM16 2V24H20V2H16ZM13 10H10V14H13V10ZM15 24V12H11V24H15ZM10 26H13V22H10V26ZM8 12V24H12V12H8ZM2 9H5V5H2V9ZM4 24V7H0V24H4ZM5 22H2V26H5V22ZM3 7V24H7V7H3Z" fill="white" fill-opacity="0.484269" mask="url(#path-1-outside-1_212_6434)"/>
</svg>
