<svg width="381" height="237" viewBox="0 0 381 237" fill="none" xmlns="http://www.w3.org/2000/svg">
<path fill-rule="evenodd" clip-rule="evenodd" d="M0.0012207 0H358.561C358.561 0 381 5.93785 381 27.4237V231.679L376.188 226.854L366.069 237H363.307L353.188 226.854L343.069 237H340.307L330.188 226.854L320.069 237H317.307L307.188 226.854L297.069 237H294.307L284.188 226.854L274.069 237H271.307L261.188 226.854L251.069 237H246.808L236.335 226.5L225.865 237H223.808L213.335 226.5L202.865 237H200.307L190.188 226.854L180.069 237H177.307L167.188 226.854L157.069 237H154.307L144.188 226.854L134.069 237H131.307L121.188 226.854L111.069 237H107.808L97.3346 226.5L86.8651 237H84.3068L74.1881 226.854L64.0694 237H59.8075L49.3346 226.5L38.8651 237H36.8076L26.3346 226.5L21.123 231.727C21.2669 200.694 21.9536 42.7032 21.098 27.4589C20.1488 10.5457 0.0012207 0 0.0012207 0Z" fill="#FBF9F6"/>
</svg>
