<svg width="20" height="12" viewBox="0 0 20 12" fill="none" xmlns="http://www.w3.org/2000/svg">
<path d="M19.2152 0.512551H15.9697C15.6998 0.512549 15.4518 0.665104 15.3242 0.909597C15.3242 0.909597 14.0297 3.36039 13.614 4.18586C12.4954 6.40649 11.7711 5.70936 11.7711 4.67875V1.12519C11.7711 0.506826 11.2835 0.0055458 10.682 0.0055458H8.24183C7.56616 -0.046101 6.91267 0.265646 6.51478 0.829429C6.51478 0.829429 7.75386 0.623463 7.75386 2.33988C7.75386 2.7655 7.77518 3.98991 7.79461 5.01687C7.80211 5.32684 7.62076 5.60872 7.34036 5.72292C7.05996 5.83712 6.74004 5.7594 6.53902 5.52824C5.54022 4.1001 4.71288 2.55314 4.07498 0.920995C3.96311 0.671674 3.72027 0.512152 3.45319 0.512551C2.74935 0.512551 1.3409 0.512551 0.504466 0.512551C0.33982 0.511399 0.185131 0.593481 0.0906684 0.732123C-0.00379458 0.870764 -0.0259748 1.04827 0.0313355 1.20696C0.926711 3.7319 4.78371 11.6667 9.18608 11.6667H11.039C11.4433 11.6667 11.7711 11.3297 11.7711 10.9141V9.76379C11.7711 9.46888 11.9415 9.20215 12.2048 9.08506C12.4681 8.96798 12.7739 9.02291 12.9829 9.22485L15.2008 11.3671C15.4 11.5595 15.663 11.6667 15.9363 11.6667H18.8488C20.2534 11.6667 20.2534 10.6646 19.4876 9.88917C18.9486 9.34346 17.0037 7.23588 17.0037 7.23588C16.6596 6.86935 16.6267 6.29962 16.9264 5.8939C17.555 5.04339 18.5833 3.65117 19.0194 3.05475C19.6154 2.23954 20.6942 0.512551 19.2152 0.512551Z" fill="#0577FF"/>
</svg>
